<svg version="1.1" xmlns:cc="http://creativecommons.org/ns#" xmlns:dc="http://purl.org/dc/elements/1.1/" xmlns:rdf="http://www.w3.org/1999/02/22-rdf-syntax-ns#" xmlns="http://www.w3.org/2000/svg" xmlns:xlink="http://www.w3.org/1999/xlink" x="0px" y="0px" viewBox="0 0 1024 768" xml:space="preserve">
<style>
#logo-fade{
opacity: 0;
animation: fadeIn 4s ease-in forwards infinite;
}

@keyframes fadeIn { 0% { opacity:0; } 50% { opacity:0; } 100% { opacity:1; } }
@keyframes fadeOut { from { opacity:1; } to { opacity:0; } }

#outline{
opacity: 1;
stroke-dasharray: 2000;
stroke-dashoffset: 2000;
animation: dash 4s ease-in-out forwards infinite;
}

@keyframes dash {
  0% {
    opacity: 1;
    stroke-dashoffset: 2000;
  }
  50% {
    opacity: 1;
    stroke-dashoffset: 1000;
  }
  100% {
    opacity: 0;
    stroke-dashoffset: 0;
  }
}
</style>
<path id="outline" d="m420.81 477.76v-4.15c0-3.65-2.27-5.25-6.03-5.25h-6.21v24.84h3.33v-10.18h2.91l3.44 10.18h3.41l-3.76-10.68c1.85-0.75 2.91-2.27 2.91-4.76zm-3.34-0.6c0 2.2-0.99 2.95-2.84 2.95h-2.73v-8.8h2.73c1.85 0 2.84 0.74 2.84 2.94v2.91zm-121.97-75.47v-40.6c0-5.61-1.26-9.68-3.78-12.2s-5.4-4.14-8.63-4.84c3.23-0.7 6.1-2.39 8.63-5.05 2.52-2.81 3.78-7.08 3.78-12.83v-35.76c0-3.36-0.49-6.24-1.47-8.63-0.98-2.52-2.31-4.56-4-6.1-1.54-1.54-3.29-2.67-5.25-3.36-1.96-0.7-3.93-1.05-5.9-1.05h-3.15c-1.96 0-4 0.35-6.1 1.05-1.96 0.7-3.72 1.82-5.26 3.36s-2.8 3.58-3.78 6.1c-0.98 2.38-1.47 5.26-1.47 8.63v41.65h9.67v-40.18c0-4.49 0.78-7.65 2.32-9.47 1.68-1.96 3.51-2.94 5.47-2.94h1.47c1.96 0 3.72 0.98 5.26 2.94 1.68 1.82 2.52 4.98 2.52 9.47v35.34c0 4.49-0.85 7.85-2.52 10.1-1.69 2.1-3.72 3.16-6.1 3.16h-4v7.15h4c2.38 0 4.42 1.12 6.1 3.37 1.68 2.11 2.52 5.4 2.52 9.88v39.34c0 4.63-0.85 7.86-2.52 9.68-1.54 1.83-3.3 2.74-5.26 2.74h-1.47c-1.96 0-3.79-0.91-5.47-2.74-1.54-1.82-2.32-4.98-2.32-9.46v-40.18h-9.67v41.44c0 3.36 0.49 6.31 1.47 8.83 0.98 2.38 2.24 4.42 3.78 6.1 1.54 1.54 3.3 2.67 5.26 3.36 2.11 0.7 4.14 1.05 6.1 1.05h3.15c1.97 0 3.93-0.35 5.9-1.05 1.96-0.7 3.71-1.82 5.25-3.36 1.69-1.69 3.02-3.72 4-6.1 0.98-2.52 1.47-5.47 1.47-8.83zm38.95-129.17h-9.67v147.05h27.97v-7.37h-18.3v-139.68zm237.56 119.06h-0.42l-11.57-119.07h-9.46l14.73 147.04h12.62l14.09-147.04h-8.41l-11.58 119.07zm55.42-41.86h15.15v-7.36h-15.15v-61.64h19.55v-8.21h-29.24v147.05h30.09v-8.21h-20.4v-61.64zm75.72 62.48h-18.3v-139.68h-9.67v147.05h27.97v-7.37zm56.47 4.21c1.54-1.54 2.81-3.51 3.79-5.89 0.98-2.52 1.47-5.47 1.47-8.84v-23.77c0-6.73-1.4-12.62-4.21-17.67-2.8-5.18-5.89-10.17-9.26-14.93-3.22-4.91-6.24-9.89-9.05-14.94-2.8-5.18-4.2-11.08-4.2-17.67v-20.82c0-4.49 0.77-7.65 2.31-9.47 1.69-1.96 3.51-2.94 5.47-2.94h1.47c1.96 0 3.72 0.98 5.26 2.94 1.69 1.83 2.52 4.98 2.52 9.47v39.96h8.83s0-41.44 0-41.44c0-3.37-0.49-6.24-1.47-8.63-0.98-2.52-2.31-4.56-4-6.1-1.54-1.54-3.29-2.67-5.25-3.37s-3.93-1.05-5.9-1.05h-2.31c-1.96 0-4 0.36-6.1 1.05-1.96 0.7-3.72 1.83-5.26 3.37s-2.8 3.58-3.78 6.1c-0.98 2.38-1.47 5.25-1.47 8.63v23.77c0 4.49 0.63 8.63 1.89 12.42 1.4 3.78 3.09 7.36 5.05 10.73 1.96 3.36 4.07 6.66 6.32 9.88 2.38 3.09 4.56 6.32 6.52 9.68 1.96 3.23 3.58 6.66 4.84 10.31 1.4 3.64 2.11 7.64 2.11 11.99v21.03c0 4.49-0.91 7.72-2.74 9.68-1.68 1.82-3.51 2.74-5.47 2.74h-1.47c-1.96 0-3.85-0.92-5.68-2.74-1.68-1.96-2.52-5.19-2.52-9.68v-39.97h-8.83v41.44c0 3.37 0.49 6.32 1.47 8.84 0.98 2.38 2.25 4.35 3.78 5.89 1.68 1.54 3.51 2.67 5.47 3.36 2.1 0.7 4.13 1.05 6.1 1.05h2.94c2.1 0 4.14-0.35 6.1-1.05s3.71-1.82 5.25-3.36zm-236.78-3.41c1.17-0.24 2.13-0.44 2.15-0.44s0.03-8.4 0.03-18.67-0.01-18.67-0.03-18.67l-0.25 0.1v-0.04l-0.58 0.03c-0.32 0.01-0.95 0.04-1.39 0.07s-1.2 0.09-1.7 0.13c-0.49 0.05-1.34 0.16-1.88 0.23s-1.42 0.22-1.96 0.31c-0.53 0.1-1.29 0.25-1.7 0.35-0.4 0.09-1.21 0.28-1.79 0.43s-1.37 0.36-1.76 0.48c-0.39 0.11-1.16 0.36-1.7 0.53-0.55 0.18-1.33 0.45-1.74 0.6s-1.07 0.4-1.47 0.56c-0.39 0.15-1.08 0.43-1.52 0.61s-1.26 0.53-1.81 0.78c-0.56 0.24-1.42 0.64-1.93 0.88-0.5 0.24-1.41 0.68-2 0.98-0.6 0.3-1.51 0.78-2.05 1.05-0.53 0.28-1.37 0.74-1.88 1.02-0.5 0.28-1.43 0.8-2.05 1.15-0.62 0.36-1.65 0.95-2.3 1.34-0.64 0.38-1.8 1.07-2.57 1.54s-2.97 1.81-4.89 2.99-4.04 2.48-4.72 2.89-1.78 1.06-2.43 1.44c-0.66 0.39-1.57 0.92-2.03 1.17-0.46 0.26-1.27 0.71-1.79 1-0.53 0.29-1.48 0.8-2.11 1.12-0.63 0.33-1.7 0.87-2.37 1.19s-1.57 0.73-2 0.92-1.09 0.48-1.47 0.63c-0.38 0.16-1.03 0.42-1.46 0.58-0.43 0.15-1.23 0.45-1.79 0.64s-1.4 0.46-1.87 0.59c-0.46 0.14-1.18 0.33-1.59 0.44-0.41 0.1-1.1 0.25-1.54 0.34s-1.14 0.21-1.56 0.28c-0.41 0.07-1.02 0.15-1.35 0.19s-0.89 0.09-1.25 0.11c-0.35 0.03-1.01 0.06-1.47 0.08-0.46 0.01-1.38 0-2.05-0.02-0.67-0.03-1.56-0.09-2-0.13-0.43-0.03-1.1-0.11-1.49-0.15-0.39-0.05-1.07-0.15-1.5-0.23-0.43-0.07-1.14-0.21-1.56-0.3-0.43-0.09-1.05-0.23-1.39-0.33-0.34-0.09-0.84-0.22-1.1-0.3s-0.75-0.22-1.08-0.33c-0.33-0.1-0.97-0.32-1.42-0.48-0.46-0.16-1.19-0.44-1.63-0.62-0.45-0.18-1.17-0.48-1.61-0.68-0.44-0.19-1.14-0.52-1.56-0.72s-1.18-0.59-1.7-0.86-1.37-0.73-1.88-1.02c-0.52-0.29-1.41-0.81-1.97-1.15-0.57-0.34-1.37-0.82-1.77-1.08-0.41-0.25-1.14-0.72-1.64-1.04-0.49-0.31-2.88-1.89-5.3-3.5s-4.93-3.26-5.55-3.66c-0.63-0.4-1.65-1.04-2.25-1.42s-1.59-0.97-2.18-1.33-1.44-0.85-1.88-1.1c-0.45-0.26-1.32-0.75-1.96-1.09-0.63-0.35-1.94-1.03-2.91-1.51s-2.23-1.09-2.8-1.35c-0.57-0.25-1.41-0.63-1.86-0.82-0.46-0.19-1.14-0.48-1.51-0.63-0.38-0.16-1.1-0.43-1.61-0.63-0.5-0.18-1.33-0.48-1.83-0.66-0.51-0.18-1.41-0.47-2-0.65-0.6-0.19-1.28-0.4-1.53-0.46l-0.45-0.13v-7.1c0-5.65 0-7.09 0.06-7.08 0.03 0.01 0.45 0.14 0.92 0.29 0.48 0.14 1.24 0.4 1.7 0.56s1.15 0.43 1.53 0.58 1.04 0.43 1.47 0.62 1.38 0.64 2.11 1 1.66 0.84 2.06 1.06c0.41 0.22 1.17 0.65 1.69 0.95 0.53 0.31 1.42 0.83 2 1.18s1.44 0.89 1.94 1.2c0.49 0.31 1.55 1 2.36 1.53 0.8 0.53 2.74 1.82 4.29 2.87 1.56 1.05 3.7 2.5 4.76 3.2 1.06 0.71 2.38 1.58 2.92 1.93s1.47 0.94 2.07 1.32c0.59 0.37 1.49 0.92 2 1.22 0.51 0.31 1.29 0.77 1.74 1.02 0.46 0.26 1.32 0.74 1.91 1.07 0.6 0.33 1.79 0.94 2.65 1.37 0.85 0.43 1.89 0.92 2.29 1.11 0.41 0.18 1.18 0.51 1.73 0.74 0.54 0.23 1.42 0.58 1.96 0.78 0.53 0.2 1.38 0.5 1.88 0.67 0.5 0.16 1.37 0.44 1.92 0.59 0.56 0.16 1.39 0.38 1.86 0.5 0.47 0.11 1.3 0.3 1.86 0.41s1.41 0.26 1.91 0.34c0.49 0.08 1.35 0.19 1.91 0.26 0.56 0.06 1.29 0.13 1.63 0.16 0.34 0.02 1.18 0.07 1.86 0.09 0.68 0.03 1.68 0.04 2.23 0.02 0.54-0.01 1.35-0.04 1.79-0.07s1.15-0.08 1.56-0.11c0.42-0.04 1.16-0.12 1.66-0.18 0.49-0.06 1.26-0.17 1.71-0.25s1.18-0.21 1.63-0.3 1.31-0.28 1.92-0.43c0.6-0.15 1.4-0.36 1.77-0.46 0.36-0.11 1.06-0.31 1.56-0.47 0.49-0.15 1.35-0.43 1.91-0.63s1.35-0.49 1.76-0.65c0.42-0.16 1.16-0.47 1.65-0.68 0.48-0.21 1.35-0.58 1.9-0.83 0.56-0.26 1.7-0.8 2.54-1.22 0.83-0.42 2.01-1.03 2.62-1.36 0.6-0.33 1.63-0.9 2.27-1.27 0.65-0.36 1.88-1.1 2.76-1.61 0.87-0.53 2.28-1.39 3.12-1.92 0.85-0.53 2.15-1.35 2.89-1.83 0.75-0.47 2.2-1.4 3.23-2.06 1.04-0.66 2.38-1.51 2.99-1.89 0.6-0.38 1.51-0.94 2-1.25s1.32-0.8 1.84-1.12c0.52-0.31 1.5-0.88 2.18-1.27s1.72-0.97 2.32-1.29c0.6-0.33 1.51-0.8 2.03-1.07 0.52-0.26 1.42-0.71 2.01-1 0.58-0.28 1.51-0.7 2.04-0.94 0.53-0.23 1.31-0.56 1.71-0.73 0.41-0.16 1.12-0.45 1.61-0.63 0.48-0.19 1.39-0.5 2.02-0.71s1.55-0.5 2.04-0.65c0.49-0.14 1.3-0.35 1.79-0.48s1.24-0.3 1.65-0.39c0.42-0.09 1.71-0.35 2.87-0.6 1.17-0.24 2.13-0.44 2.15-0.44s0.03-8.4 0.03-18.67-0.01-18.67-0.03-18.67c-0.02 0-1.63 0.11-3.57 0.23-1.95 0.13-3.86 0.26-4.26 0.31-0.39 0.04-1.04 0.11-1.44 0.16-0.41 0.05-1.05 0.14-1.44 0.2s-1 0.17-1.34 0.23c-0.34 0.07-0.96 0.19-1.38 0.28-0.41 0.09-1.12 0.25-1.58 0.37-0.46 0.11-1.16 0.3-1.57 0.41s-1.14 0.33-1.63 0.48c-0.5 0.16-1.29 0.42-1.77 0.59s-1.18 0.43-1.56 0.57-1.17 0.46-1.77 0.71-1.49 0.63-1.98 0.86c-0.49 0.22-1.69 0.8-2.67 1.29-0.97 0.48-2.17 1.1-2.66 1.37-0.5 0.27-1.33 0.74-1.86 1.04s-1.47 0.85-2.1 1.23c-0.62 0.38-1.63 0.99-2.22 1.37-0.6 0.38-1.6 1.01-2.22 1.41s-3.41 2.25-6.2 4.11-5.56 3.68-6.15 4.06-1.46 0.92-1.93 1.21-1.32 0.8-1.89 1.14c-0.57 0.33-1.44 0.83-1.93 1.1-0.49 0.28-1.42 0.76-2.05 1.09-0.63 0.32-1.61 0.8-2.18 1.05-0.57 0.26-1.41 0.62-1.86 0.8-0.46 0.18-1.18 0.46-1.61 0.61s-1.1 0.37-1.47 0.49c-0.38 0.11-1.04 0.31-1.47 0.41-0.43 0.11-1.14 0.28-1.57 0.36-0.43 0.09-1.15 0.21-1.59 0.28-0.43 0.06-1.07 0.14-1.41 0.17-0.4 0.04-1.27 0.06-2.41 0.06-1.35 0-2-0.02-2.62-0.08-0.45-0.04-1.19-0.13-1.65-0.2s-1.2-0.19-1.66-0.28c-0.45-0.08-1.17-0.24-1.58-0.34-0.42-0.11-1.17-0.31-1.66-0.46s-1.2-0.38-1.59-0.5c-0.38-0.14-1.08-0.39-1.56-0.58s-1.25-0.51-1.7-0.71c-0.46-0.2-1.32-0.61-1.93-0.91-0.6-0.3-1.43-0.73-1.84-0.95-0.41-0.21-1.09-0.6-1.54-0.85s-1.22-0.71-1.71-1.01-1.41-0.87-2.04-1.26c-0.63-0.4-2.14-1.39-3.37-2.2-1.22-0.81-3.35-2.24-4.73-3.16-1.37-0.92-3.21-2.14-4.07-2.7-0.85-0.56-2-1.29-2.54-1.64-0.54-0.33-1.54-0.95-2.23-1.36-0.68-0.41-1.7-1-2.25-1.32-0.56-0.31-1.4-0.78-1.88-1.05-0.48-0.26-1.55-0.82-2.39-1.24-0.83-0.42-1.96-0.97-2.5-1.22s-1.37-0.62-1.83-0.82c-0.47-0.2-1.31-0.55-1.88-0.77-0.57-0.23-1.51-0.58-2.09-0.8-0.58-0.21-1.55-0.54-2.14-0.73-0.59-0.2-1.61-0.51-2.25-0.69-0.65-0.19-1.53-0.43-1.97-0.54l-0.78-0.2v-14.17l0.7 0.19c0.38 0.1 0.97 0.26 1.31 0.36 0.34 0.11 0.93 0.29 1.31 0.42s1.04 0.36 1.47 0.53c0.43 0.16 1.12 0.43 1.51 0.6 0.4 0.17 1.08 0.47 1.49 0.66s1.29 0.63 1.95 0.96c0.66 0.34 1.64 0.86 2.16 1.16 0.53 0.3 1.43 0.82 2 1.17 0.57 0.34 1.45 0.88 1.96 1.2 0.5 0.32 1.35 0.87 1.88 1.22s1.51 1 2.18 1.46 2.39 1.65 3.83 2.65 3.19 2.22 3.9 2.71c0.7 0.49 2.02 1.38 2.92 1.98s1.98 1.31 2.41 1.59c0.43 0.27 1.15 0.72 1.61 1.01 0.45 0.28 1.25 0.76 1.77 1.06 0.52 0.31 1.29 0.75 1.72 0.99 0.43 0.23 1.3 0.7 1.93 1.04 0.63 0.33 1.61 0.82 2.16 1.08 0.55 0.25 1.34 0.62 1.76 0.8 0.41 0.18 1.17 0.5 1.67 0.7 0.51 0.21 1.38 0.53 1.94 0.73 0.55 0.19 1.46 0.5 2.02 0.66 0.56 0.17 1.53 0.44 2.16 0.6 0.62 0.16 1.57 0.38 2.08 0.48 0.52 0.11 1.27 0.24 1.66 0.31 0.39 0.06 1.03 0.16 1.42 0.21s1.07 0.12 1.49 0.16c0.43 0.04 1.22 0.09 1.75 0.13 0.59 0.03 1.61 0.04 2.64 0.02 0.92-0.01 2.06-0.06 2.52-0.09 0.47-0.04 1.27-0.13 1.79-0.19s1.29-0.18 1.72-0.25c0.44-0.08 1.15-0.21 1.59-0.3s1.32-0.3 1.96-0.46c0.63-0.16 1.49-0.39 1.91-0.52 0.41-0.13 1-0.31 1.31-0.41s0.88-0.3 1.29-0.45c0.4-0.14 1.19-0.44 1.74-0.66 0.56-0.22 1.33-0.55 1.72-0.71 0.4-0.17 1.14-0.51 1.66-0.75s1.34-0.63 1.81-0.88c0.48-0.24 1.22-0.63 1.66-0.85 0.43-0.23 1.1-0.59 1.49-0.8s1.19-0.66 1.77-1c0.58-0.33 1.52-0.89 2.08-1.23 0.57-0.34 1.59-0.96 2.25-1.37 0.67-0.42 1.86-1.17 2.64-1.67s2.69-1.73 4.23-2.72 3.3-2.13 3.91-2.52c0.61-0.38 1.5-0.94 1.98-1.24s1.46-0.9 2.18-1.33 1.76-1.04 2.32-1.37c0.55-0.31 1.46-0.82 2-1.12s1.67-0.88 2.5-1.31c0.83-0.42 2.03-1 2.67-1.28 0.63-0.28 1.57-0.69 2.08-0.9s1.34-0.54 1.83-0.72c0.5-0.19 1.37-0.5 1.94-0.69s1.45-0.46 1.96-0.6 1.37-0.37 1.93-0.51c0.55-0.13 1.38-0.32 1.83-0.4 0.46-0.09 1.09-0.21 1.43-0.26 0.33-0.05 1.81-0.25 3.28-0.46 1.47-0.2 2.75-0.38 2.83-0.39l0.15-0.03v-37.38h-0.91c-0.5 0.01-2.12 0.04-3.59 0.07-1.48 0.03-3.1 0.09-3.61 0.11-0.5 0.03-1.28 0.08-1.72 0.12-0.44 0.03-1.17 0.11-1.61 0.16s-1.15 0.14-1.59 0.21c-0.43 0.06-1.14 0.18-1.59 0.25-0.44 0.08-1.2 0.22-1.69 0.33-0.49 0.1-1.31 0.28-1.81 0.41-0.5 0.12-1.25 0.32-1.66 0.43s-1.14 0.33-1.63 0.48c-0.5 0.15-1.33 0.43-1.86 0.62s-1.41 0.52-1.94 0.73c-0.54 0.21-1.48 0.61-2.09 0.88-0.61 0.26-1.78 0.82-2.6 1.24-0.82 0.41-1.9 0.97-2.42 1.26-0.5 0.28-1.34 0.75-1.86 1.06s-1.32 0.8-1.79 1.09-1.29 0.82-1.83 1.17c-0.55 0.36-1.49 1-2.12 1.43-0.62 0.43-1.63 1.14-2.25 1.59-0.62 0.44-1.6 1.16-2.18 1.59s-2.11 1.57-3.4 2.52c-1.29 0.96-2.87 2.13-3.51 2.59-0.65 0.47-1.48 1.07-1.86 1.34-0.38 0.26-1.14 0.78-1.69 1.15s-1.42 0.94-1.95 1.27-1.29 0.79-1.71 1.03-1.13 0.63-1.59 0.88c-0.46 0.24-1.17 0.6-1.59 0.8-0.42 0.19-1 0.46-1.29 0.58-0.28 0.13-0.78 0.33-1.1 0.45-0.31 0.13-0.82 0.31-1.12 0.42-0.31 0.1-0.92 0.3-1.38 0.43-0.46 0.14-1.19 0.33-1.65 0.43-0.46 0.11-1.21 0.25-1.68 0.33s-1.15 0.17-1.51 0.21c-0.37 0.04-1.02 0.09-1.45 0.12-0.43 0.02-1.09 0.04-1.46 0.04s-1.05-0.02-1.49-0.04c-0.44-0.03-1.1-0.08-1.47-0.12-0.36-0.04-0.95-0.11-1.29-0.16s-0.87-0.14-1.17-0.2c-0.31-0.06-0.75-0.15-0.99-0.21s-0.75-0.18-1.12-0.28c-0.38-0.11-0.9-0.26-1.18-0.34s-0.77-0.25-1.11-0.37-0.94-0.35-1.35-0.5c-0.41-0.16-1.14-0.47-1.63-0.69s-1.3-0.6-1.79-0.85-1.19-0.61-1.54-0.8-1.04-0.58-1.51-0.86c-0.48-0.28-1.42-0.85-2.09-1.27-0.67-0.41-1.96-1.25-2.85-1.85-0.9-0.6-2.45-1.66-3.44-2.35-1-0.69-2.67-1.86-3.72-2.58s-2.7-1.86-3.68-2.5c-0.97-0.65-2.28-1.5-2.89-1.89-0.62-0.4-1.64-1.02-2.28-1.41-0.63-0.38-1.51-0.9-1.95-1.15-0.45-0.25-1.21-0.68-1.7-0.95-0.5-0.27-1.55-0.82-2.35-1.22s-1.83-0.9-2.3-1.12c-0.47-0.21-1.32-0.59-1.91-0.84-0.58-0.24-1.47-0.6-1.97-0.8-0.51-0.19-1.39-0.52-1.96-0.72-0.56-0.21-1.46-0.5-1.99-0.67-0.53-0.16-1.37-0.42-1.86-0.55-0.49-0.14-1.31-0.36-1.83-0.49s-1.37-0.33-1.88-0.44c-0.52-0.11-1.37-0.28-1.9-0.38-0.53-0.09-1.39-0.24-1.89-0.31-0.5-0.08-1.33-0.19-1.83-0.26-0.51-0.06-1.24-0.15-1.63-0.18-0.39-0.04-1.12-0.1-1.61-0.14-0.5-0.04-1.37-0.09-1.96-0.11-0.58-0.03-1.55-0.06-2.15-0.08l-1.09-0.03v12.07l1.22 0.03c0.67 0.01 1.57 0.05 2 0.08s1.15 0.08 1.59 0.11c0.44 0.04 1.17 0.11 1.61 0.16s1.28 0.16 1.86 0.26c0.58 0.09 1.57 0.26 2.19 0.38s1.59 0.33 2.17 0.48c0.58 0.14 1.45 0.37 1.95 0.51s1.42 0.43 2.06 0.64c0.63 0.21 1.57 0.54 2.08 0.73s1.32 0.52 1.8 0.72 1.19 0.51 1.58 0.68c0.38 0.18 1.1 0.51 1.59 0.75s1.32 0.66 1.83 0.93c0.52 0.28 1.29 0.7 1.72 0.94 0.44 0.23 1.19 0.67 1.68 0.96s1.33 0.8 1.86 1.13 1.56 0.99 2.3 1.47c0.73 0.48 2.02 1.34 2.85 1.91s2.45 1.69 3.6 2.49 2.62 1.82 3.27 2.27c0.65 0.44 1.79 1.22 2.55 1.72 0.75 0.5 1.73 1.14 2.18 1.42 0.44 0.28 1.12 0.7 1.51 0.94s1.1 0.66 1.59 0.94c0.48 0.28 1.34 0.76 1.91 1.07s1.54 0.82 2.16 1.12c0.62 0.31 1.52 0.73 2.02 0.95 0.49 0.21 1.22 0.53 1.63 0.7 0.41 0.16 1.07 0.42 1.47 0.57 0.41 0.15 1.12 0.4 1.59 0.55 0.46 0.15 1.1 0.35 1.42 0.44 0.31 0.09 0.88 0.25 1.26 0.35s1.07 0.26 1.53 0.36c0.46 0.11 1.26 0.26 1.76 0.35 0.51 0.09 1.25 0.2 1.64 0.25s1.03 0.12 1.42 0.16 1.07 0.09 1.51 0.11c0.44 0.03 1.51 0.05 2.37 0.05s1.92-0.02 2.36-0.05c0.45-0.03 1.13-0.08 1.52-0.12 0.39-0.03 1.09-0.12 1.55-0.18 0.46-0.07 1.24-0.19 1.72-0.28s1.25-0.24 1.69-0.35c0.44-0.1 1.18-0.28 1.64-0.41 0.45-0.13 1.14-0.33 1.53-0.46s0.99-0.33 1.33-0.44c0.34-0.12 1.02-0.37 1.49-0.56 0.48-0.19 1.28-0.53 1.77-0.74s1.46-0.68 2.15-1.02c0.7-0.35 1.67-0.86 2.16-1.14 0.49-0.27 1.24-0.7 1.66-0.95 0.41-0.25 1.12-0.68 1.56-0.96s1.3-0.83 1.91-1.24c0.6-0.41 1.44-0.97 1.86-1.27 0.41-0.29 1.09-0.77 1.49-1.06 0.41-0.29 1.16-0.83 1.67-1.22 0.52-0.38 1.76-1.3 2.76-2.04 1-0.75 2.32-1.73 2.94-2.19 0.63-0.46 1.43-1.04 1.79-1.31 0.37-0.26 0.89-0.64 1.15-0.82 0.26-0.19 0.82-0.58 1.24-0.88 0.42-0.29 1.17-0.8 1.66-1.12 0.49-0.33 1.24-0.82 1.65-1.08 0.42-0.27 1.15-0.72 1.61-1 0.47-0.28 1.27-0.74 1.77-1.02s1.55-0.82 2.33-1.22c0.79-0.38 1.8-0.86 2.25-1.05 0.45-0.2 1.16-0.48 1.57-0.65 0.4-0.16 1.17-0.43 1.7-0.61s1.34-0.44 1.81-0.58c0.47-0.13 1.27-0.35 1.79-0.48 0.52-0.12 1.25-0.28 1.63-0.36s0.82-0.16 0.99-0.19c0.16-0.02 0.34-0.06 0.4-0.07l0.11-0.02v14.4l-0.89 0.23c-0.48 0.12-1.34 0.35-1.91 0.51s-1.64 0.51-2.39 0.75c-0.75 0.25-1.69 0.58-2.1 0.73s-1.1 0.42-1.54 0.6c-0.43 0.17-1.12 0.46-1.53 0.63s-1.17 0.5-1.7 0.75c-0.53 0.23-1.56 0.72-2.3 1.09-0.73 0.36-1.76 0.88-2.27 1.14-0.52 0.27-1.31 0.7-1.75 0.94-0.44 0.23-1.36 0.75-2.03 1.14-0.68 0.38-1.67 0.97-2.2 1.29-0.54 0.32-1.55 0.93-2.25 1.37-0.69 0.43-1.96 1.23-2.82 1.78s-2.33 1.49-3.28 2.11c-0.95 0.61-2.36 1.53-3.14 2.03s-2.06 1.32-2.82 1.8c-0.78 0.48-1.83 1.14-2.35 1.46-0.52 0.31-1.44 0.86-2.04 1.22-0.61 0.35-1.48 0.85-1.93 1.1-0.46 0.26-1.29 0.7-1.86 1-0.56 0.29-1.47 0.75-2.02 1.01-0.55 0.25-1.33 0.62-1.75 0.8-0.41 0.19-1.17 0.5-1.68 0.7-0.5 0.2-1.39 0.53-1.98 0.72-0.59 0.2-1.44 0.47-1.89 0.59-0.46 0.13-1.08 0.3-1.39 0.37-0.31 0.08-0.89 0.2-1.28 0.28-0.39 0.07-0.99 0.18-1.33 0.23s-0.95 0.13-1.33 0.16c-0.39 0.04-1.15 0.09-1.68 0.11s-1.44 0.02-2.03 0c-0.58-0.02-1.39-0.07-1.79-0.11s-1.03-0.12-1.4-0.17c-0.36-0.05-1.07-0.17-1.56-0.27-0.5-0.1-1.2-0.25-1.57-0.34s-0.89-0.23-1.15-0.31c-0.26-0.07-0.9-0.27-1.4-0.43-0.5-0.17-1.27-0.44-1.7-0.6s-1.14-0.46-1.59-0.65c-0.44-0.19-1.23-0.55-1.76-0.8s-1.37-0.68-1.88-0.95c-0.51-0.26-1.28-0.68-1.71-0.92s-1.24-0.72-1.81-1.06-1.37-0.83-1.77-1.08c-0.41-0.26-1.34-0.85-2.07-1.34-0.73-0.48-1.86-1.24-2.5-1.68s-2.25-1.54-3.56-2.46c-1.31-0.91-3.01-2.09-3.77-2.62-0.75-0.52-2.16-1.47-3.12-2.11s-2.21-1.46-2.78-1.81c-0.57-0.36-1.59-1-2.28-1.4-0.68-0.41-1.66-0.98-2.18-1.27-0.51-0.29-1.29-0.72-1.72-0.94-0.43-0.23-1.19-0.62-1.7-0.88-0.51-0.25-1.31-0.64-1.79-0.86s-1.32-0.59-1.88-0.82-1.49-0.6-2.07-0.82c-0.58-0.21-1.47-0.53-1.98-0.69-0.5-0.16-1.28-0.41-1.72-0.53s-1.17-0.32-1.63-0.44c-0.45-0.11-1.17-0.28-1.59-0.37-0.43-0.09-1.19-0.23-1.7-0.32-0.52-0.09-1.34-0.21-1.83-0.28-0.49-0.06-1.23-0.14-1.65-0.19-0.42-0.03-1.14-0.08-1.61-0.11s-2.02-0.09-3.45-0.13c-1.42-0.05-2.82-0.11-3.11-0.12l-0.52-0.03v37.39l0.11 0.03c0.06 0 1.35 0.22 2.88 0.46s3.16 0.51 3.63 0.6 1.22 0.24 1.67 0.35c0.45 0.1 1.18 0.28 1.63 0.39s1.17 0.31 1.61 0.43c0.45 0.13 1.42 0.43 2.16 0.68 0.75 0.25 1.73 0.6 2.2 0.78s1.15 0.44 1.51 0.6c0.37 0.15 0.89 0.37 1.16 0.48 0.28 0.11 0.89 0.39 1.36 0.6 0.47 0.22 1.39 0.67 2.05 0.99 0.66 0.33 1.59 0.82 2.09 1.08 0.49 0.26 1.35 0.74 1.91 1.06 0.55 0.31 1.56 0.9 2.22 1.31 0.67 0.41 1.79 1.1 2.48 1.54 0.7 0.44 2.26 1.47 3.49 2.28 1.22 0.82 3.32 2.22 4.66 3.12 1.35 0.9 3.1 2.07 3.9 2.6 0.81 0.53 1.88 1.21 2.39 1.53 0.51 0.31 1.34 0.82 1.84 1.12 0.5 0.31 1.29 0.76 1.74 1.02 0.45 0.25 1.19 0.67 1.63 0.91 0.45 0.24 1.34 0.71 2 1.04s1.53 0.75 1.94 0.95c0.4 0.18 1.16 0.52 1.7 0.75 0.53 0.23 1.32 0.55 1.76 0.72s1.14 0.42 1.54 0.56 1.02 0.35 1.37 0.46c0.36 0.11 0.94 0.29 1.29 0.39 0.36 0.1 1.02 0.28 1.47 0.39s1.16 0.28 1.57 0.37c0.4 0.08 1.02 0.21 1.37 0.27 0.36 0.06 0.85 0.15 1.1 0.19 0.26 0.04 0.6 0.09 0.78 0.11s0.6 0.08 0.94 0.11c0.34 0.04 0.97 0.11 1.4 0.14s1.29 0.08 1.93 0.12c0.68 0.03 1.68 0.04 2.43 0.02 0.71-0.01 1.69-0.06 2.18-0.1s1.24-0.11 1.66-0.16c0.41-0.05 1.07-0.14 1.46-0.21 0.39-0.06 1.09-0.19 1.54-0.28s1.17-0.24 1.58-0.34c0.42-0.1 1.17-0.3 1.66-0.44 0.49-0.13 1.28-0.38 1.74-0.53 0.47-0.16 1.27-0.43 1.77-0.62 0.51-0.19 1.3-0.49 1.77-0.69 0.47-0.19 1.18-0.49 1.59-0.67 0.4-0.18 1.16-0.53 1.7-0.79 0.53-0.25 1.43-0.71 2-1s1.5-0.79 2.08-1.11 1.51-0.85 2.06-1.19c0.56-0.34 1.39-0.82 1.83-1.1 0.44-0.27 1.12-0.69 1.49-0.92 0.38-0.24 1.17-0.74 1.74-1.12 0.58-0.38 3.16-2.08 5.73-3.8 2.57-1.71 5.08-3.38 5.59-3.71 0.5-0.33 1.23-0.8 1.62-1.04 0.39-0.25 1.02-0.65 1.41-0.9 0.39-0.24 1.2-0.73 1.79-1.09 0.6-0.35 1.51-0.88 2.02-1.17 0.52-0.28 1.22-0.67 1.54-0.84 0.33-0.18 1.12-0.58 1.75-0.9 0.63-0.31 1.44-0.71 1.81-0.88s0.97-0.43 1.34-0.6c0.36-0.16 1.02-0.43 1.47-0.61 0.44-0.17 1.12-0.43 1.51-0.57s1.03-0.36 1.42-0.48c0.39-0.13 1-0.31 1.35-0.42 0.36-0.1 0.82-0.23 1.04-0.28 0.21-0.06 0.43-0.11 0.47-0.12l0.08-0.02v14.26l-0.31 0.09c-0.17 0.05-0.82 0.25-1.44 0.46-0.62 0.2-1.56 0.52-2.09 0.71s-1.45 0.53-2.05 0.77c-0.59 0.23-1.53 0.63-2.08 0.86-0.56 0.24-1.46 0.64-2 0.89-0.55 0.25-1.78 0.85-2.74 1.33s-2.12 1.08-2.57 1.33c-0.46 0.25-1.27 0.7-1.82 1-0.54 0.31-1.51 0.86-2.16 1.25-0.65 0.38-1.7 1-2.35 1.4-0.64 0.39-1.73 1.07-2.43 1.5-0.7 0.44-2.36 1.49-3.7 2.34s-3.11 1.98-3.92 2.5c-0.82 0.52-2.15 1.35-2.94 1.84-0.79 0.5-1.93 1.19-2.52 1.54s-1.54 0.9-2.1 1.23c-0.56 0.32-1.48 0.83-2.04 1.14-0.56 0.3-1.64 0.85-2.4 1.23s-1.7 0.82-2.09 1-1.05 0.46-1.47 0.64c-0.41 0.18-1.12 0.46-1.55 0.62-0.44 0.17-1.22 0.45-1.75 0.63-0.52 0.18-1.33 0.43-1.8 0.58-0.47 0.13-1.18 0.33-1.59 0.43-0.4 0.1-0.98 0.23-1.29 0.3-0.3 0.06-0.84 0.17-1.19 0.23-0.36 0.06-0.95 0.16-1.32 0.21-0.36 0.05-0.98 0.12-1.37 0.16s-1.09 0.09-1.56 0.11c-0.47 0.03-1.2 0.05-1.64 0.05s-1.16-0.02-1.61-0.05c-0.45-0.03-1.13-0.08-1.51-0.12-0.38-0.03-1.04-0.12-1.47-0.18-0.43-0.07-1.15-0.19-1.59-0.27-0.44-0.09-1.24-0.28-1.77-0.41-0.53-0.14-1.32-0.35-1.74-0.48-0.43-0.13-1.17-0.38-1.66-0.55-0.48-0.17-1.19-0.44-1.59-0.6-0.39-0.16-0.97-0.4-1.3-0.53-0.33-0.14-0.97-0.43-1.42-0.65-0.45-0.21-1.37-0.66-2.03-1-0.65-0.34-1.65-0.87-2.2-1.18-0.56-0.31-1.67-0.96-2.48-1.44s-1.91-1.16-2.43-1.49c-0.53-0.33-1.63-1.04-2.44-1.58-0.8-0.53-1.84-1.22-2.3-1.52-0.45-0.31-2.04-1.39-3.54-2.39-1.49-1.01-3.4-2.29-4.25-2.85s-1.92-1.25-2.38-1.55c-0.46-0.29-1.16-0.74-1.56-0.99s-1.12-0.7-1.61-0.99c-0.49-0.3-1.39-0.83-2-1.17-0.61-0.35-1.51-0.85-2.01-1.12-0.5-0.26-1.48-0.78-2.18-1.12-0.7-0.35-1.62-0.8-2.04-0.99s-1.05-0.47-1.41-0.62c-0.35-0.15-1.04-0.43-1.53-0.63s-1.25-0.48-1.69-0.65c-0.45-0.16-1.17-0.4-1.61-0.54s-1.14-0.35-1.55-0.47c-0.41-0.11-1.17-0.31-1.68-0.43s-1.35-0.31-1.88-0.41c-0.52-0.1-1.37-0.24-1.88-0.32-0.52-0.07-1.22-0.16-1.58-0.21-0.35-0.04-0.92-0.09-1.27-0.11-0.34-0.03-1.76-0.11-3.14-0.18-1.39-0.08-2.74-0.15-3.01-0.16s-0.63-0.03-0.82-0.05l-0.33-0.03v37.25l0.08 0.02c0.05 0.01 1.32 0.28 2.84 0.6 1.51 0.32 3.29 0.71 3.95 0.87 0.65 0.16 1.66 0.44 2.23 0.6 0.58 0.16 1.56 0.47 2.18 0.68 0.63 0.21 1.68 0.58 2.33 0.83 0.66 0.24 1.58 0.6 2.05 0.8 0.46 0.2 1.18 0.5 1.59 0.68 0.4 0.18 1.25 0.57 1.88 0.87s1.69 0.83 2.35 1.17c0.65 0.34 1.54 0.82 1.98 1.06 0.43 0.24 1.07 0.6 1.42 0.8 0.36 0.21 1.05 0.62 1.56 0.92 0.5 0.3 1.39 0.84 1.96 1.2 0.57 0.35 1.53 0.96 2.13 1.35 0.61 0.39 3.03 1.98 5.38 3.54 2.35 1.57 4.69 3.1 5.19 3.43 0.5 0.32 1.46 0.92 2.11 1.33s1.6 0.98 2.09 1.27 1.13 0.66 1.42 0.82 0.81 0.46 1.15 0.65 1.12 0.6 1.72 0.92c0.61 0.32 1.55 0.79 2.09 1.05s1.38 0.64 1.86 0.85 1.33 0.57 1.89 0.79c0.55 0.23 1.39 0.54 1.84 0.7s1.21 0.43 1.67 0.58c0.47 0.16 1.22 0.38 1.66 0.51 0.45 0.13 1.22 0.33 1.72 0.46s1.16 0.28 1.46 0.35 0.92 0.19 1.37 0.28 1.22 0.21 1.72 0.29 1.37 0.19 1.93 0.25c0.57 0.06 1.32 0.13 1.66 0.16s1.01 0.07 1.49 0.09c0.48 0.03 1.53 0.05 2.34 0.05s1.85-0.02 2.32-0.05c0.47-0.02 1.19-0.08 1.61-0.11 0.42-0.04 1.09-0.11 1.49-0.16 0.41-0.05 1.11-0.15 1.57-0.23 0.46-0.07 1.26-0.22 1.77-0.32s1.39-0.3 1.94-0.43 1.48-0.38 2.06-0.55c0.58-0.16 1.53-0.46 2.13-0.67 0.6-0.2 1.47-0.5 1.92-0.67 0.46-0.17 1.12-0.42 1.47-0.56s1.14-0.47 1.74-0.72c0.6-0.26 1.49-0.65 1.98-0.87 0.48-0.22 1.56-0.74 2.39-1.15s1.95-0.98 2.48-1.27c0.53-0.28 1.37-0.74 1.88-1.02 0.5-0.28 1.43-0.8 2.05-1.15 0.62-0.36 1.65-0.95 2.29-1.33 0.65-0.38 1.74-1.04 2.44-1.46 0.7-0.43 1.64-1 2.09-1.27 0.46-0.28 1.46-0.9 2.22-1.37 0.78-0.48 2.33-1.42 3.45-2.11 1.12-0.68 2.66-1.61 3.41-2.06s1.93-1.13 2.62-1.53c0.68-0.39 1.67-0.94 2.19-1.23s1.48-0.8 2.14-1.14c0.66-0.35 1.76-0.9 2.45-1.22 0.69-0.33 1.69-0.8 2.23-1.04 0.55-0.23 1.41-0.6 1.91-0.8 0.51-0.21 1.24-0.48 1.61-0.63 0.15-0.05 0.36-0.13 0.58-0.2v13.24l-0.31 0.09c-0.17 0.05-0.82 0.25-1.44 0.46-0.62 0.2-1.56 0.52-2.09 0.71s-1.45 0.53-2.05 0.77c-0.59 0.23-1.53 0.63-2.08 0.86-0.56 0.24-1.46 0.64-2 0.89-0.55 0.25-1.78 0.85-2.74 1.33s-2.12 1.08-2.57 1.33c-0.46 0.25-1.27 0.7-1.82 1-0.54 0.31-1.51 0.86-2.16 1.25-0.65 0.38-1.7 1-2.35 1.4-0.64 0.39-1.73 1.07-2.43 1.5-0.7 0.44-2.36 1.49-3.7 2.34s-3.11 1.98-3.92 2.5c-0.82 0.52-2.15 1.35-2.94 1.84-0.79 0.5-1.93 1.19-2.52 1.54s-1.54 0.9-2.1 1.23c-0.56 0.32-1.48 0.83-2.04 1.14-0.56 0.3-1.64 0.85-2.4 1.23s-1.7 0.82-2.09 1-1.05 0.46-1.47 0.64c-0.41 0.18-1.12 0.46-1.55 0.62-0.44 0.17-1.22 0.45-1.75 0.63-0.52 0.18-1.33 0.44-1.8 0.58-0.47 0.13-1.18 0.33-1.59 0.43-0.4 0.1-0.98 0.23-1.29 0.3-0.3 0.06-0.84 0.17-1.19 0.23-0.36 0.06-0.95 0.16-1.32 0.21-0.36 0.05-0.98 0.12-1.37 0.16s-1.09 0.09-1.56 0.11c-0.47 0.03-1.2 0.05-1.64 0.05s-1.16-0.02-1.61-0.05c-0.45-0.03-1.13-0.08-1.51-0.12-0.38-0.03-1.04-0.12-1.47-0.18-0.43-0.07-1.15-0.19-1.59-0.27-0.44-0.09-1.24-0.28-1.77-0.41-0.53-0.14-1.32-0.35-1.74-0.48-0.43-0.13-1.17-0.38-1.66-0.55-0.48-0.17-1.19-0.44-1.59-0.6-0.39-0.16-0.97-0.4-1.3-0.53-0.33-0.14-0.97-0.43-1.42-0.65-0.45-0.21-1.37-0.66-2.03-1-0.65-0.34-1.65-0.87-2.2-1.18-0.56-0.31-1.67-0.96-2.48-1.44s-1.91-1.16-2.43-1.49c-0.53-0.33-1.63-1.04-2.44-1.58-0.8-0.53-1.84-1.22-2.3-1.52-0.45-0.31-2.04-1.39-3.54-2.39-1.49-1.01-3.4-2.29-4.25-2.85s-1.92-1.25-2.38-1.55c-0.46-0.29-1.16-0.74-1.56-0.99s-1.12-0.7-1.61-0.99c-0.49-0.3-1.39-0.83-2-1.17-0.61-0.35-1.51-0.85-2.01-1.12-0.5-0.26-1.48-0.78-2.18-1.12-0.7-0.35-1.62-0.8-2.04-0.99s-1.05-0.47-1.41-0.62c-0.35-0.15-1.04-0.43-1.53-0.63s-1.25-0.48-1.69-0.65c-0.45-0.16-1.17-0.4-1.61-0.54s-1.14-0.35-1.55-0.47c-0.41-0.11-1.17-0.31-1.68-0.43s-1.35-0.31-1.88-0.41c-0.52-0.1-1.37-0.24-1.88-0.32-0.52-0.07-1.22-0.16-1.58-0.21-0.35-0.04-0.92-0.09-1.27-0.11-0.34-0.03-1.76-0.11-3.14-0.18-1.39-0.08-2.74-0.15-3.01-0.16s-0.63-0.03-0.82-0.05l-0.33-0.03v12.93c6.89-0.33 12.14 0.55 12.14 0.55 0.03 0.01 0.45 0.14 0.92 0.29 0.48 0.14 1.24 0.4 1.7 0.56s1.15 0.43 1.53 0.58 1.04 0.43 1.47 0.62 1.38 0.64 2.11 1 1.66 0.84 2.06 1.06c0.41 0.22 1.17 0.65 1.69 0.95 0.53 0.31 1.42 0.83 2 1.18s1.44 0.89 1.94 1.2c0.49 0.31 1.55 1 2.36 1.53 0.8 0.53 2.74 1.82 4.29 2.87 1.56 1.05 3.7 2.5 4.76 3.2 1.06 0.71 2.38 1.58 2.92 1.93s1.47 0.94 2.07 1.32c0.59 0.37 1.49 0.92 2 1.22 0.51 0.31 1.29 0.77 1.74 1.02 0.46 0.26 1.32 0.74 1.91 1.07 0.6 0.33 1.79 0.94 2.65 1.37 0.85 0.43 1.89 0.92 2.29 1.11 0.41 0.18 1.18 0.51 1.73 0.74 0.54 0.23 1.42 0.58 1.96 0.78 0.53 0.2 1.38 0.5 1.88 0.67 0.5 0.16 1.37 0.44 1.92 0.59 0.56 0.16 1.39 0.38 1.86 0.5 0.47 0.11 1.3 0.3 1.86 0.41s1.41 0.26 1.91 0.34c0.49 0.08 1.35 0.19 1.91 0.26 0.56 0.06 1.29 0.13 1.63 0.16 0.34 0.02 1.18 0.07 1.86 0.09 0.68 0.03 1.68 0.04 2.23 0.02 0.54-0.01 1.35-0.04 1.79-0.07s1.15-0.08 1.56-0.11c0.42-0.04 1.16-0.12 1.66-0.18 0.49-0.06 1.26-0.17 1.71-0.25s1.18-0.21 1.63-0.3 1.31-0.28 1.92-0.43c0.6-0.15 1.4-0.35 1.77-0.46 0.36-0.11 1.06-0.31 1.56-0.47 0.49-0.15 1.35-0.43 1.91-0.63s1.35-0.49 1.76-0.65c0.42-0.16 1.16-0.47 1.65-0.68 0.48-0.21 1.35-0.58 1.9-0.83 0.56-0.26 1.7-0.8 2.54-1.22 0.83-0.42 2.01-1.03 2.62-1.36 0.6-0.33 1.63-0.9 2.27-1.27 0.65-0.36 1.88-1.1 2.76-1.61 0.87-0.53 2.28-1.39 3.12-1.92 0.85-0.53 2.15-1.35 2.89-1.83 0.75-0.47 2.2-1.4 3.23-2.06 1.04-0.66 2.38-1.51 2.99-1.89 0.6-0.38 1.51-0.94 2-1.25s1.32-0.8 1.84-1.12c0.52-0.31 1.5-0.88 2.18-1.27s1.72-0.97 2.32-1.29c0.6-0.33 1.51-0.8 2.03-1.07 0.52-0.26 1.42-0.71 2.01-1 0.58-0.28 1.51-0.7 2.04-0.94 0.53-0.23 1.31-0.56 1.71-0.73 0.41-0.16 1.12-0.45 1.61-0.63 0.48-0.19 1.39-0.5 2.02-0.71s1.55-0.5 2.04-0.65c0.49-0.14 1.3-0.35 1.79-0.48s1.24-0.3 1.65-0.39c0.42-0.09 1.71-0.36 2.87-0.6zm-318.09 55.36h-3.34v24.84h10.04v-3.02h-6.71v-21.82zm16.11 13.73h6.03v-2.98h-6.03v-7.81h7.13v-2.95h-10.47v24.84h10.57v-2.95h-7.24v-8.16zm17.45-13.73l-4.93 24.84h3.23l1.06-5.85h5.32l1.03 5.85h3.41l-5-24.84h-4.12zm-0.14 16.18l2.17-11.99 2.13 11.99h-4.29zm21.42-16.18h-6.14v24.84h6.14c3.76 0 6.03-1.6 6.03-5.25v-14.33c0-3.65-2.27-5.25-6.03-5.25zm2.7 18.95c0 2.2-0.99 2.95-2.84 2.95h-2.66v-18.95h2.66c1.85 0 2.84 0.74 2.84 2.94v13.06zm14.04-5.22h6.03v-2.98h-6.03v-7.81h7.13v-2.95h-10.47v24.84h10.57v-2.95h-7.24v-8.16zm26.26-4.33v-4.15c0-3.65-2.27-5.25-6.03-5.25h-6.21v24.84h3.33v-10.18h2.91l3.44 10.18h3.41l-3.76-10.68c1.85-0.75 2.91-2.27 2.91-4.76zm-3.34-0.6c0 2.2-0.99 2.95-2.84 2.95h-2.73v-8.8h2.73c1.84 0 2.84 0.74 2.84 2.94v2.91zm18.44 2.91l-3.23-1.77c-1.42-0.82-1.95-1.35-1.95-2.84v-1.7c0-1.99 0.96-2.77 2.66-2.77s2.66 0.78 2.66 2.77v3.37h3.26v-3.94c0-3.58-2.48-5.11-5.89-5.11h-0.07c-3.41 0-5.89 1.53-5.89 5.11v3.12c0 2.38 1.21 3.44 3.48 4.75l3.19 1.77c1.46 0.82 1.99 1.46 1.99 2.95v1.95c0 1.95-0.96 2.84-2.7 2.84s-2.7-0.89-2.7-2.84v-3.66h-3.26v4.22c0 3.76 2.16 5.18 5.93 5.18h0.07c3.76 0 5.92-1.46 5.92-5.18v-3.44c0-2.38-1.35-3.58-3.48-4.79zm19.62-0.99h-5.85v-10.71h-3.33v24.84h3.33v-11.14h5.85v11.14h3.33v-24.84h-3.33v10.71zm10.99 14.12h3.33v-24.84h-3.33v24.84zm17.21-24.84h-6.21v24.84h3.33v-9.9h2.87c3.76 0 6.03-1.6 6.03-5.25v-4.44c0-3.65-2.27-5.25-6.03-5.25zm2.69 9.05c0 2.16-0.99 2.91-2.84 2.91h-2.73v-9.01h2.73c1.85 0 2.84 0.74 2.84 2.94v3.16zm19.87 19.34h3.05v-31.93h-3.05v31.93zm43.38-14.66h6.03v-2.98h-6.03v-7.81h7.13v-2.95h-10.47v24.84h10.57v-2.95h-7.24v-8.16zm21.74-2.02l-3.23-1.77c-1.42-0.82-1.95-1.35-1.95-2.84v-1.7c0-1.99 0.96-2.77 2.66-2.77s2.66 0.78 2.66 2.77v3.37h3.26v-3.94c0-3.58-2.48-5.11-5.89-5.11h-0.07c-3.41 0-5.89 1.53-5.89 5.11v3.12c0 2.38 1.21 3.44 3.48 4.75l3.19 1.77c1.46 0.82 1.99 1.46 1.99 2.95v1.95c0 1.95-0.96 2.84-2.7 2.84s-2.7-0.89-2.7-2.84v-3.66h-3.26v4.22c0 3.76 2.16 5.18 5.93 5.18h0.07c3.76 0 5.92-1.46 5.92-5.18v-3.44c0-2.38-1.35-3.58-3.48-4.79zm10.57 13.13h3.34v-24.84h-3.34v24.84zm14.33-24.84h-3.34v24.84h10.04v-3.02h-6.71v-21.82zm12.91 24.84h3.33v-24.84h-3.33v24.84zm14.33-11.11h6.03v-2.98h-6.03v-7.81h7.13v-2.95h-10.47v24.84h10.57v-2.95h-7.24v-8.16zm23.59 3.38l-6.24-17.1h-3.34v24.84h3.09v-17.67l6.39 17.67h3.19v-24.84h-3.09v17.1zm16.56-17.39h-0.07c-3.76 0-6.03 1.67-6.03 5.25v14.9c0 3.76 2.27 5.25 6.03 5.25h0.07c3.76 0 6.03-1.53 6.03-5.25v-5.04h-3.33v4.4c0 2.16-0.92 2.95-2.73 2.95s-2.73-0.78-2.73-2.95v-13.62c0-2.16 0.92-2.95 2.73-2.95s2.73 0.78 2.73 2.95v3.8h3.33v-4.43c0-3.58-2.27-5.25-6.03-5.25zm16.6 14.01h6.03v-2.98h-6.03v-7.81h7.13v-2.95h-10.47v24.84h10.57v-2.95h-7.24v-8.16zm23.95 14.66h3.05v-31.93h-3.05v31.93zm23.83-14.66h6.03v-2.98h-6.03v-7.81h7.13v-2.95h-10.47v24.84h10.57v-2.95h-7.24v-8.16zm22.49 1.71l-5.29-15.43h-3.19v24.84h3.12v-16.89l4.43 13.06h1.88l4.47-13.06v16.89h3.23v-24.84h-3.3l-5.36 15.43zm22.38-15.44h-6.21v24.84h3.34v-9.9h2.87c3.76 0 6.03-1.6 6.03-5.25v-4.44c0-3.65-2.27-5.25-6.03-5.25zm2.7 9.05c0 2.16-0.99 2.91-2.84 2.91h-2.73v-9.01h2.73c1.85 0 2.84 0.74 2.84 2.94v3.16zm16.1-9.33h-0.28c-3.76 0-6.03 1.56-6.03 5.25v14.9c0 3.65 2.27 5.25 6.03 5.25h0.28c3.76 0 6.03-1.6 6.03-5.25v-14.9c0-3.66-2.27-5.25-6.03-5.25zm2.7 19.51c0 2.2-0.99 2.95-2.84 2.95s-2.84-0.75-2.84-2.95v-13.62c0-2.2 0.99-2.95 2.84-2.95s2.84 0.75 2.84 2.95v13.62zm25.08-0.35l-3.58-18.87h-3.05l-3.55 18.87-2.52-18.87h-3.3l4.01 24.84h3.26l3.62-18.48 3.58 18.48h3.16l4.01-24.84h-3.12l-2.52 18.87zm15.07-5.15h6.03v-2.98h-6.03v-7.81h7.13v-2.95h-10.47v24.84h10.57v-2.95h-7.24v-8.16zm26.25-4.33v-4.15c0-3.65-2.27-5.25-6.03-5.25h-6.21v24.84h3.33v-10.18h2.91l3.44 10.18h3.41l-3.76-10.68c1.85-0.75 2.91-2.27 2.91-4.76zm-3.33-0.6c0 2.2-0.99 2.95-2.84 2.95h-2.73v-8.8h2.73c1.85 0 2.84 0.74 2.84 2.94v2.91zm19.12 6.64l-5.29-15.43h-3.19v24.84h3.12v-16.89l4.43 13.06h1.88l4.47-13.06v16.89h3.23v-24.84h-3.3l-5.36 15.43zm19.5-1.71h6.03v-2.98h-6.03v-7.81h7.13v-2.95h-10.47v24.84h10.57v-2.95h-7.24v-8.16zm23.59 3.38l-6.24-17.1h-3.34v24.84h3.09v-17.67l6.39 17.67h3.19v-24.84h-3.09v17.1zm9.08-17.11v2.95h4.33v21.89h3.33v-21.89h4.33v-2.95h-11.99z" fill="none" stroke="#1d3b5d" stroke-width="4" stroke-linejoin="round" stroke-linecap="round" />

<g id="logo-fade">
 <defs>  <linearGradient id="b" y2="269.43" gradientUnits="userSpaceOnUse" x2="523.21" y1="415.31" x1="377.34">   <stop stop-color="#2979ff" offset="0"/>   <stop stop-color="#2b7ffc" offset=".18"/>   <stop stop-color="#3392f6" offset=".44"/>   <stop stop-color="#3fb0ec" offset=".74"/>   <stop stop-color="#4dd0e1" offset="1"/>  </linearGradient> </defs> <path d="m277.21 340.47c2.38 0 4.42-1.05 6.1-3.16 1.68-2.25 2.52-5.61 2.52-10.1v-35.34c0-4.49-0.85-7.65-2.52-9.47-1.54-1.96-3.3-2.94-5.26-2.94h-1.47c-1.96 0-3.79 0.98-5.47 2.94-1.54 1.82-2.32 4.98-2.32 9.47v40.18h-9.67v-41.65c0-3.36 0.49-6.24 1.47-8.63 0.98-2.52 2.24-4.56 3.78-6.1s3.3-2.67 5.26-3.36c2.11-0.7 4.14-1.05 6.1-1.05h3.15c1.97 0 3.93 0.35 5.9 1.05 1.96 0.7 3.71 1.82 5.25 3.36 1.69 1.54 3.02 3.58 4 6.1 0.98 2.38 1.47 5.26 1.47 8.63v35.76c0 5.75-1.26 10.03-3.78 12.83-2.52 2.66-5.4 4.35-8.63 5.05 3.23 0.7 6.1 2.31 8.63 4.84 2.52 2.52 3.78 6.59 3.78 12.2v40.6c0 3.36-0.49 6.31-1.47 8.83-0.98 2.38-2.31 4.42-4 6.1-1.54 1.54-3.29 2.67-5.25 3.36-1.96 0.7-3.93 1.05-5.9 1.05h-3.15c-1.96 0-4-0.35-6.1-1.05-1.96-0.7-3.72-1.82-5.26-3.36-1.54-1.69-2.8-3.72-3.78-6.1-0.98-2.52-1.47-5.47-1.47-8.83v-41.44h9.67v40.18c0 4.49 0.78 7.64 2.32 9.46 1.68 1.83 3.51 2.74 5.47 2.74h1.47c1.96 0 3.72-0.91 5.26-2.74 1.68-1.82 2.52-5.05 2.52-9.68v-39.34c0-4.49-0.85-7.78-2.52-9.88-1.69-2.25-3.72-3.37-6.1-3.37h-4v-7.15h4z" fill="#1d3b5d"/> <polygon points="334.45 272.52 334.45 412.2 352.76 412.2 352.76 419.57 324.78 419.57 324.78 272.52" fill="#1d3b5d"/> <polygon points="583.59 272.52 592 272.52 577.9 419.56 565.28 419.56 550.56 272.52 560.02 272.52 571.59 391.58 572.01 391.58" fill="#1d3b5d"/> <polygon points="627.43 280.72 627.43 342.36 642.57 342.36 642.57 349.72 627.43 349.72 627.43 411.36 647.83 411.36 647.83 419.57 617.74 419.57 617.74 272.52 646.98 272.52 646.98 280.72" fill="#1d3b5d"/> <polygon points="684.85 272.52 684.85 412.2 703.15 412.2 703.15 419.57 675.18 419.57 675.18 272.52" fill="#1d3b5d"/> <path d="m755.2 331.84v-39.96c0-4.49-0.84-7.65-2.52-9.47-1.54-1.96-3.3-2.94-5.26-2.94h-1.47c-1.96 0-3.78 0.98-5.47 2.94-1.54 1.83-2.31 4.98-2.31 9.47v20.82c0 6.59 1.4 12.49 4.2 17.67 2.81 5.05 5.82 10.03 9.05 14.94 3.37 4.76 6.46 9.75 9.26 14.93 2.81 5.05 4.21 10.94 4.21 17.67v23.77c0 3.37-0.49 6.32-1.47 8.84-0.98 2.38-2.25 4.35-3.79 5.89s-3.29 2.67-5.25 3.36c-1.96 0.7-4 1.05-6.1 1.05h-2.94c-1.97 0-4-0.35-6.1-1.05-1.96-0.7-3.79-1.82-5.47-3.36-1.54-1.54-2.8-3.51-3.78-5.89-0.98-2.52-1.47-5.47-1.47-8.84v-41.44h8.83v39.97c0 4.49 0.85 7.72 2.52 9.68 1.83 1.82 3.72 2.74 5.68 2.74h1.47c1.96 0 3.79-0.92 5.47-2.74 1.83-1.96 2.74-5.19 2.74-9.68v-21.03c0-4.35-0.7-8.35-2.11-11.99-1.26-3.65-2.87-7.08-4.84-10.31-1.96-3.36-4.14-6.59-6.52-9.68-2.25-3.23-4.35-6.52-6.32-9.88-1.96-3.37-3.65-6.95-5.05-10.73-1.26-3.79-1.89-7.92-1.89-12.42v-23.77c0-3.37 0.49-6.24 1.47-8.63 0.98-2.52 2.25-4.56 3.78-6.1 1.54-1.54 3.3-2.67 5.26-3.37 2.1-0.7 4.14-1.05 6.1-1.05h2.31c1.96 0 3.93 0.35 5.9 1.05 1.96 0.7 3.71 1.83 5.25 3.37 1.69 1.54 3.02 3.58 4 6.1 0.98 2.38 1.47 5.25 1.47 8.63v41.44h-8.83z" fill="#1d3b5d"/> <path d="m389 310.44c0.38 0.1 0.97 0.26 1.31 0.36 0.34 0.11 0.93 0.29 1.31 0.42s1.04 0.36 1.47 0.53c0.43 0.16 1.12 0.43 1.51 0.6 0.4 0.17 1.08 0.47 1.49 0.66s1.29 0.63 1.95 0.96c0.66 0.34 1.64 0.86 2.16 1.16 0.53 0.3 1.43 0.82 2 1.17 0.57 0.34 1.45 0.88 1.96 1.2 0.5 0.32 1.35 0.87 1.88 1.22s1.51 1 2.18 1.46 2.39 1.65 3.83 2.65 3.19 2.22 3.9 2.71c0.7 0.49 2.02 1.38 2.92 1.98s1.98 1.31 2.41 1.59c0.43 0.27 1.15 0.72 1.61 1.01 0.45 0.28 1.25 0.76 1.77 1.06 0.52 0.31 1.29 0.75 1.72 0.99 0.43 0.23 1.3 0.7 1.93 1.04 0.63 0.33 1.61 0.82 2.16 1.08 0.55 0.25 1.34 0.62 1.76 0.8 0.41 0.18 1.17 0.5 1.67 0.7 0.51 0.21 1.38 0.53 1.94 0.73 0.55 0.19 1.46 0.5 2.02 0.66 0.56 0.17 1.53 0.44 2.16 0.6 0.62 0.16 1.57 0.38 2.08 0.48 0.52 0.11 1.27 0.24 1.66 0.31 0.39 0.06 1.03 0.16 1.42 0.21s1.07 0.12 1.49 0.16c0.43 0.04 1.22 0.09 1.75 0.13 0.59 0.03 1.61 0.04 2.64 0.02 0.92-0.01 2.06-0.06 2.52-0.09 0.47-0.04 1.27-0.13 1.79-0.19s1.29-0.18 1.72-0.25c0.44-0.08 1.15-0.21 1.59-0.3s1.32-0.3 1.96-0.46c0.63-0.16 1.49-0.39 1.91-0.52 0.41-0.13 1-0.31 1.31-0.41s0.88-0.3 1.29-0.45c0.4-0.14 1.19-0.44 1.74-0.66 0.56-0.22 1.33-0.55 1.72-0.71 0.4-0.17 1.14-0.51 1.66-0.75s1.34-0.63 1.81-0.88c0.48-0.24 1.22-0.63 1.66-0.85 0.43-0.23 1.1-0.59 1.49-0.8s1.19-0.66 1.77-1c0.58-0.33 1.52-0.89 2.08-1.23 0.57-0.34 1.59-0.96 2.25-1.37 0.67-0.42 1.86-1.17 2.64-1.67s2.69-1.73 4.23-2.72 3.3-2.13 3.91-2.52c0.61-0.38 1.5-0.94 1.98-1.24s1.46-0.9 2.18-1.33 1.76-1.04 2.32-1.37c0.55-0.31 1.46-0.82 2-1.12s1.67-0.88 2.5-1.31c0.83-0.42 2.03-1 2.67-1.28 0.63-0.28 1.57-0.69 2.08-0.9s1.34-0.54 1.83-0.72c0.5-0.19 1.37-0.5 1.94-0.69s1.45-0.46 1.96-0.6 1.37-0.37 1.93-0.51c0.55-0.13 1.38-0.32 1.83-0.4 0.46-0.09 1.09-0.21 1.43-0.26 0.33-0.05 1.81-0.25 3.28-0.46 1.47-0.2 2.75-0.38 2.83-0.39l0.15-0.03v-37.38h-0.91c-0.5 0.01-2.12 0.04-3.59 0.07-1.48 0.03-3.1 0.09-3.61 0.11-0.5 0.03-1.28 0.08-1.72 0.12-0.44 0.03-1.17 0.11-1.61 0.16s-1.15 0.14-1.59 0.21c-0.43 0.06-1.14 0.18-1.59 0.25-0.44 0.08-1.2 0.22-1.69 0.33-0.49 0.1-1.31 0.28-1.81 0.41-0.5 0.12-1.25 0.32-1.66 0.43s-1.14 0.33-1.63 0.48c-0.5 0.15-1.33 0.43-1.86 0.62s-1.41 0.52-1.94 0.73c-0.54 0.21-1.48 0.61-2.09 0.88-0.61 0.26-1.78 0.82-2.6 1.24-0.82 0.41-1.9 0.97-2.42 1.26-0.5 0.28-1.34 0.75-1.86 1.06s-1.32 0.8-1.79 1.09-1.29 0.82-1.83 1.17c-0.55 0.36-1.49 1-2.12 1.43-0.62 0.43-1.63 1.14-2.25 1.59-0.62 0.44-1.6 1.16-2.18 1.59s-2.11 1.57-3.4 2.52c-1.29 0.96-2.87 2.13-3.51 2.59-0.65 0.47-1.48 1.07-1.86 1.34-0.38 0.26-1.14 0.78-1.69 1.15s-1.42 0.94-1.95 1.27-1.29 0.79-1.71 1.03-1.13 0.63-1.59 0.88c-0.46 0.24-1.17 0.6-1.59 0.8-0.42 0.19-1 0.46-1.29 0.58-0.28 0.13-0.78 0.33-1.1 0.45-0.31 0.13-0.82 0.31-1.12 0.42-0.31 0.1-0.92 0.3-1.38 0.43-0.46 0.14-1.19 0.33-1.65 0.43-0.46 0.11-1.21 0.25-1.68 0.33s-1.15 0.17-1.51 0.21c-0.37 0.04-1.02 0.09-1.45 0.12-0.43 0.02-1.09 0.04-1.46 0.04s-1.05-0.02-1.49-0.04c-0.44-0.03-1.1-0.08-1.47-0.12-0.36-0.04-0.95-0.11-1.29-0.16s-0.87-0.14-1.17-0.2c-0.31-0.06-0.75-0.15-0.99-0.21s-0.75-0.18-1.12-0.28c-0.38-0.11-0.9-0.26-1.18-0.34s-0.77-0.25-1.11-0.37-0.94-0.35-1.35-0.5c-0.41-0.16-1.14-0.47-1.63-0.69s-1.3-0.6-1.79-0.85-1.19-0.61-1.54-0.8c-0.36-0.19-1.04-0.58-1.51-0.86-0.48-0.28-1.42-0.85-2.09-1.27-0.67-0.41-1.96-1.25-2.85-1.85-0.9-0.6-2.44-1.66-3.44-2.35s-2.67-1.86-3.72-2.58-2.7-1.86-3.68-2.5c-0.97-0.65-2.28-1.5-2.89-1.89-0.62-0.4-1.64-1.02-2.28-1.41-0.63-0.38-1.51-0.9-1.95-1.15-0.45-0.25-1.21-0.68-1.7-0.95-0.5-0.27-1.55-0.82-2.35-1.22s-1.83-0.9-2.3-1.12c-0.47-0.21-1.32-0.59-1.91-0.84-0.58-0.24-1.47-0.6-1.97-0.8-0.51-0.19-1.39-0.52-1.96-0.72-0.56-0.21-1.46-0.5-1.99-0.67-0.53-0.16-1.37-0.42-1.86-0.55-0.49-0.14-1.31-0.36-1.83-0.49s-1.37-0.33-1.88-0.44c-0.52-0.11-1.37-0.28-1.9-0.38-0.53-0.09-1.39-0.24-1.89-0.31-0.5-0.08-1.33-0.19-1.83-0.26-0.51-0.06-1.24-0.15-1.63-0.18-0.39-0.04-1.12-0.1-1.61-0.14-0.5-0.04-1.37-0.09-1.96-0.11-0.58-0.03-1.55-0.06-2.15-0.08l-1.09-0.03v12.07l1.22 0.03c0.67 0.01 1.57 0.05 2 0.08s1.15 0.08 1.59 0.11c0.44 0.04 1.17 0.11 1.61 0.16s1.28 0.16 1.86 0.26c0.58 0.09 1.57 0.26 2.19 0.38s1.59 0.33 2.17 0.48c0.58 0.14 1.45 0.37 1.95 0.51s1.42 0.43 2.06 0.64c0.63 0.21 1.57 0.54 2.08 0.73s1.32 0.52 1.8 0.72 1.19 0.51 1.58 0.68c0.38 0.18 1.1 0.51 1.59 0.75s1.32 0.66 1.83 0.93c0.52 0.28 1.29 0.7 1.72 0.94 0.44 0.23 1.19 0.67 1.68 0.96s1.33 0.8 1.86 1.13 1.56 0.99 2.3 1.47c0.73 0.48 2.02 1.34 2.85 1.91s2.45 1.69 3.6 2.49 2.62 1.82 3.27 2.27c0.65 0.44 1.79 1.22 2.55 1.72 0.75 0.5 1.73 1.14 2.18 1.42 0.44 0.28 1.12 0.7 1.51 0.94s1.1 0.66 1.59 0.94c0.48 0.28 1.34 0.76 1.91 1.07s1.54 0.82 2.16 1.12c0.62 0.31 1.52 0.73 2.02 0.95 0.49 0.21 1.22 0.53 1.63 0.7 0.41 0.16 1.07 0.42 1.47 0.57s1.12 0.4 1.59 0.55c0.46 0.15 1.1 0.35 1.42 0.44 0.31 0.09 0.88 0.25 1.26 0.35s1.07 0.26 1.53 0.36c0.46 0.11 1.26 0.26 1.76 0.35 0.51 0.09 1.25 0.2 1.64 0.25s1.03 0.12 1.42 0.16 1.07 0.09 1.51 0.11c0.44 0.03 1.51 0.05 2.37 0.05s1.92-0.02 2.36-0.05c0.45-0.03 1.13-0.08 1.52-0.12 0.39-0.03 1.09-0.12 1.55-0.18 0.46-0.07 1.24-0.19 1.72-0.28s1.25-0.24 1.69-0.35c0.44-0.1 1.18-0.28 1.64-0.41 0.45-0.13 1.14-0.33 1.53-0.46s0.99-0.33 1.33-0.44c0.34-0.12 1.02-0.37 1.49-0.56 0.48-0.19 1.28-0.53 1.77-0.74s1.46-0.68 2.15-1.02c0.7-0.35 1.67-0.86 2.16-1.14 0.49-0.27 1.24-0.7 1.66-0.95 0.41-0.25 1.12-0.68 1.56-0.96s1.3-0.83 1.91-1.24c0.6-0.41 1.44-0.97 1.86-1.27 0.41-0.29 1.09-0.77 1.49-1.06 0.41-0.29 1.16-0.83 1.67-1.22 0.52-0.38 1.76-1.3 2.76-2.04 1-0.75 2.32-1.73 2.94-2.19 0.63-0.46 1.43-1.04 1.79-1.31 0.37-0.26 0.89-0.64 1.15-0.82 0.26-0.19 0.82-0.58 1.24-0.88 0.42-0.29 1.17-0.8 1.66-1.12 0.49-0.33 1.24-0.82 1.65-1.08 0.42-0.27 1.15-0.72 1.61-1 0.47-0.28 1.27-0.74 1.77-1.02s1.55-0.82 2.33-1.22c0.79-0.38 1.8-0.86 2.25-1.05 0.45-0.2 1.16-0.48 1.57-0.65 0.4-0.16 1.17-0.43 1.7-0.61s1.34-0.44 1.81-0.58c0.47-0.13 1.27-0.35 1.79-0.48 0.52-0.12 1.25-0.28 1.63-0.36s0.82-0.16 0.99-0.19c0.16-0.02 0.34-0.06 0.4-0.07l0.11-0.02v14.4l-0.89 0.23c-0.48 0.12-1.34 0.35-1.91 0.51s-1.64 0.51-2.39 0.75c-0.75 0.25-1.69 0.58-2.1 0.73s-1.1 0.42-1.54 0.6c-0.43 0.17-1.12 0.46-1.53 0.63s-1.17 0.5-1.7 0.75c-0.53 0.23-1.56 0.72-2.3 1.09-0.73 0.36-1.76 0.88-2.27 1.14-0.52 0.27-1.31 0.7-1.75 0.94-0.44 0.23-1.36 0.75-2.03 1.14-0.68 0.38-1.67 0.97-2.2 1.29-0.54 0.32-1.55 0.93-2.25 1.37-0.69 0.43-1.96 1.23-2.82 1.78s-2.33 1.49-3.28 2.11c-0.95 0.61-2.36 1.53-3.14 2.03s-2.06 1.32-2.82 1.8c-0.78 0.48-1.83 1.14-2.35 1.46-0.52 0.31-1.44 0.86-2.04 1.22-0.61 0.36-1.48 0.85-1.93 1.1-0.46 0.26-1.29 0.7-1.86 1-0.56 0.29-1.47 0.75-2.02 1.01-0.55 0.25-1.33 0.62-1.75 0.8-0.41 0.19-1.17 0.5-1.68 0.7-0.5 0.2-1.39 0.53-1.98 0.72-0.59 0.2-1.44 0.47-1.89 0.59-0.46 0.13-1.08 0.3-1.39 0.37-0.31 0.08-0.89 0.2-1.28 0.28-0.39 0.07-0.99 0.18-1.33 0.23s-0.95 0.13-1.33 0.16c-0.39 0.04-1.15 0.09-1.68 0.11s-1.44 0.02-2.03 0c-0.58-0.02-1.39-0.07-1.79-0.11s-1.03-0.12-1.4-0.17c-0.36-0.05-1.07-0.17-1.56-0.27-0.5-0.1-1.2-0.25-1.57-0.34s-0.89-0.23-1.15-0.31c-0.26-0.07-0.9-0.27-1.4-0.43-0.5-0.17-1.27-0.44-1.7-0.6s-1.14-0.46-1.59-0.65c-0.44-0.19-1.23-0.55-1.76-0.8s-1.37-0.68-1.88-0.95c-0.51-0.26-1.28-0.68-1.71-0.92-0.44-0.24-1.25-0.72-1.81-1.06-0.57-0.34-1.37-0.83-1.77-1.08-0.41-0.26-1.34-0.85-2.07-1.34-0.73-0.48-1.86-1.24-2.5-1.68s-2.25-1.54-3.56-2.46c-1.31-0.91-3.01-2.09-3.77-2.62-0.75-0.52-2.16-1.47-3.12-2.11s-2.21-1.46-2.78-1.81c-0.57-0.36-1.59-1-2.28-1.4-0.68-0.41-1.66-0.98-2.18-1.27-0.51-0.29-1.29-0.72-1.72-0.94-0.43-0.23-1.19-0.62-1.7-0.88-0.51-0.25-1.31-0.64-1.79-0.86s-1.32-0.59-1.88-0.82-1.49-0.6-2.07-0.82c-0.58-0.21-1.47-0.53-1.98-0.69-0.5-0.16-1.28-0.41-1.72-0.53s-1.17-0.32-1.63-0.44c-0.45-0.11-1.17-0.28-1.59-0.37-0.43-0.09-1.19-0.23-1.7-0.32-0.52-0.09-1.34-0.21-1.83-0.28-0.49-0.06-1.23-0.14-1.65-0.19-0.42-0.03-1.14-0.08-1.61-0.11s-2.02-0.09-3.45-0.13c-1.42-0.05-2.82-0.11-3.11-0.12l-0.52-0.03v37.39l0.11 0.03c0.06 0 1.35 0.22 2.88 0.46s3.16 0.51 3.63 0.6 1.22 0.24 1.67 0.35c0.45 0.1 1.18 0.28 1.63 0.39s1.17 0.31 1.61 0.43c0.45 0.13 1.42 0.43 2.16 0.68 0.75 0.25 1.73 0.6 2.2 0.78s1.15 0.44 1.51 0.6c0.37 0.15 0.89 0.37 1.16 0.48 0.28 0.11 0.89 0.39 1.36 0.6 0.47 0.22 1.39 0.67 2.05 0.99 0.66 0.33 1.59 0.82 2.09 1.08 0.49 0.26 1.35 0.74 1.91 1.06 0.55 0.31 1.56 0.9 2.22 1.31 0.67 0.41 1.79 1.1 2.48 1.54 0.7 0.44 2.26 1.47 3.49 2.28 1.22 0.82 3.32 2.22 4.66 3.12 1.35 0.9 3.1 2.07 3.9 2.6 0.81 0.53 1.88 1.21 2.39 1.53 0.51 0.31 1.34 0.82 1.84 1.12 0.5 0.31 1.29 0.76 1.74 1.02 0.45 0.25 1.19 0.67 1.63 0.91 0.45 0.24 1.34 0.71 2 1.04s1.53 0.75 1.94 0.95c0.4 0.18 1.16 0.52 1.7 0.75 0.53 0.23 1.32 0.55 1.76 0.72s1.14 0.42 1.54 0.56 1.02 0.35 1.37 0.46c0.36 0.11 0.94 0.29 1.29 0.39 0.36 0.1 1.02 0.28 1.47 0.39s1.16 0.28 1.57 0.37c0.4 0.08 1.02 0.21 1.37 0.27 0.36 0.06 0.85 0.15 1.1 0.19 0.26 0.04 0.6 0.09 0.78 0.11s0.6 0.08 0.94 0.11c0.34 0.04 0.97 0.11 1.4 0.14s1.29 0.08 1.93 0.12c0.68 0.03 1.68 0.04 2.43 0.02 0.71-0.01 1.69-0.06 2.18-0.1s1.24-0.11 1.66-0.16c0.41-0.05 1.07-0.14 1.46-0.21 0.39-0.06 1.09-0.19 1.54-0.28s1.17-0.24 1.58-0.34c0.42-0.1 1.17-0.3 1.66-0.44 0.49-0.13 1.28-0.38 1.74-0.53 0.47-0.16 1.27-0.44 1.77-0.62 0.51-0.19 1.3-0.49 1.77-0.69 0.47-0.19 1.18-0.49 1.59-0.67 0.4-0.18 1.16-0.53 1.7-0.79 0.53-0.25 1.43-0.71 2-1s1.5-0.79 2.08-1.11 1.51-0.85 2.06-1.19c0.56-0.33 1.39-0.82 1.83-1.1 0.44-0.27 1.12-0.69 1.49-0.92 0.38-0.24 1.17-0.74 1.74-1.12 0.58-0.38 3.16-2.08 5.73-3.8 2.57-1.71 5.08-3.38 5.59-3.71 0.5-0.33 1.23-0.8 1.62-1.04 0.39-0.25 1.02-0.65 1.41-0.9 0.39-0.24 1.2-0.73 1.79-1.09 0.6-0.35 1.51-0.88 2.02-1.17 0.52-0.28 1.22-0.67 1.54-0.84 0.33-0.18 1.12-0.58 1.75-0.9 0.63-0.31 1.44-0.71 1.81-0.88s0.97-0.43 1.34-0.6c0.36-0.16 1.02-0.43 1.47-0.61 0.44-0.17 1.12-0.43 1.51-0.57s1.03-0.36 1.42-0.48 1-0.31 1.35-0.42c0.36-0.1 0.82-0.23 1.04-0.28 0.21-0.06 0.43-0.11 0.47-0.12l0.08-0.02v14.26l-0.31 0.09c-0.17 0.05-0.82 0.25-1.44 0.46-0.62 0.2-1.56 0.52-2.09 0.71s-1.45 0.53-2.05 0.77c-0.59 0.23-1.53 0.63-2.08 0.86-0.56 0.24-1.46 0.64-2 0.89-0.55 0.25-1.78 0.85-2.74 1.33s-2.12 1.08-2.57 1.33c-0.46 0.25-1.27 0.7-1.82 1-0.54 0.31-1.51 0.86-2.16 1.25-0.65 0.38-1.7 1-2.35 1.4-0.64 0.39-1.73 1.07-2.43 1.5-0.7 0.44-2.36 1.49-3.7 2.34s-3.11 1.98-3.92 2.5c-0.82 0.52-2.15 1.35-2.94 1.84-0.79 0.5-1.93 1.19-2.52 1.54-0.59 0.36-1.54 0.9-2.1 1.23-0.56 0.32-1.48 0.83-2.04 1.14-0.56 0.3-1.64 0.85-2.4 1.23s-1.7 0.82-2.09 1-1.05 0.46-1.47 0.64c-0.41 0.18-1.12 0.46-1.55 0.62-0.44 0.17-1.22 0.45-1.75 0.63-0.52 0.18-1.33 0.44-1.8 0.58-0.47 0.13-1.18 0.33-1.59 0.43-0.4 0.1-0.98 0.23-1.29 0.3-0.3 0.06-0.84 0.17-1.19 0.23-0.36 0.06-0.95 0.16-1.32 0.21-0.36 0.05-0.98 0.12-1.37 0.16s-1.09 0.09-1.56 0.11c-0.47 0.03-1.2 0.05-1.64 0.05s-1.16-0.02-1.61-0.05c-0.45-0.03-1.13-0.08-1.51-0.12-0.38-0.03-1.04-0.12-1.47-0.18-0.43-0.07-1.15-0.19-1.59-0.27-0.44-0.09-1.24-0.28-1.77-0.41-0.53-0.14-1.32-0.35-1.74-0.48-0.43-0.13-1.17-0.38-1.66-0.55-0.48-0.17-1.19-0.44-1.59-0.6-0.39-0.16-0.97-0.4-1.3-0.53-0.33-0.14-0.97-0.43-1.42-0.65-0.45-0.21-1.37-0.66-2.03-1-0.65-0.34-1.65-0.87-2.2-1.18-0.56-0.31-1.67-0.96-2.48-1.44s-1.91-1.16-2.43-1.49c-0.53-0.33-1.63-1.04-2.44-1.58-0.8-0.53-1.84-1.22-2.3-1.52-0.45-0.31-2.04-1.39-3.54-2.39-1.49-1.01-3.4-2.29-4.25-2.85s-1.92-1.25-2.38-1.55c-0.46-0.29-1.16-0.74-1.56-0.99s-1.12-0.7-1.61-0.99c-0.49-0.3-1.39-0.83-2-1.17-0.61-0.35-1.51-0.85-2.01-1.12-0.5-0.26-1.48-0.78-2.18-1.12-0.7-0.35-1.62-0.8-2.04-0.99s-1.05-0.47-1.41-0.62c-0.35-0.15-1.04-0.43-1.53-0.63s-1.25-0.48-1.69-0.65c-0.45-0.16-1.17-0.4-1.61-0.54s-1.14-0.35-1.55-0.47c-0.41-0.11-1.17-0.31-1.68-0.43s-1.35-0.31-1.88-0.41c-0.52-0.1-1.37-0.24-1.88-0.32-0.52-0.07-1.22-0.16-1.58-0.21-0.36-0.04-0.92-0.09-1.27-0.11-0.34-0.03-1.76-0.11-3.14-0.18-1.39-0.08-2.74-0.15-3.01-0.16s-0.63-0.03-0.82-0.05l-0.33-0.03v37.25l0.08 0.02c0.05 0.01 1.32 0.28 2.84 0.6 1.51 0.32 3.29 0.71 3.95 0.87 0.65 0.16 1.66 0.44 2.23 0.6 0.58 0.16 1.56 0.47 2.18 0.68 0.63 0.21 1.68 0.58 2.33 0.83 0.66 0.24 1.58 0.6 2.05 0.8 0.46 0.2 1.18 0.5 1.59 0.68 0.4 0.18 1.25 0.57 1.88 0.87s1.69 0.83 2.35 1.17c0.65 0.34 1.54 0.82 1.98 1.06 0.43 0.24 1.07 0.6 1.42 0.8 0.36 0.21 1.05 0.62 1.56 0.92 0.5 0.3 1.39 0.84 1.96 1.2 0.57 0.35 1.53 0.96 2.13 1.35 0.61 0.39 3.03 1.98 5.38 3.54 2.35 1.57 4.69 3.1 5.19 3.43 0.5 0.32 1.46 0.92 2.11 1.33s1.6 0.98 2.09 1.27 1.13 0.66 1.42 0.82 0.81 0.46 1.15 0.65 1.12 0.6 1.72 0.92c0.61 0.32 1.55 0.79 2.09 1.05s1.38 0.64 1.86 0.85 1.33 0.57 1.89 0.79c0.55 0.23 1.39 0.54 1.84 0.7s1.21 0.43 1.67 0.58c0.47 0.16 1.22 0.38 1.66 0.51 0.45 0.13 1.22 0.33 1.72 0.46s1.16 0.28 1.46 0.35 0.92 0.19 1.37 0.28 1.22 0.21 1.72 0.29 1.37 0.19 1.93 0.25c0.57 0.06 1.32 0.13 1.66 0.16s1.01 0.07 1.49 0.09c0.48 0.03 1.53 0.05 2.34 0.05s1.85-0.02 2.32-0.05c0.47-0.02 1.19-0.08 1.61-0.11 0.42-0.04 1.09-0.11 1.49-0.16 0.41-0.05 1.11-0.15 1.57-0.23 0.46-0.07 1.26-0.22 1.77-0.32s1.39-0.3 1.94-0.43 1.48-0.38 2.06-0.55c0.58-0.16 1.53-0.46 2.13-0.67 0.6-0.2 1.47-0.5 1.92-0.67 0.46-0.17 1.12-0.42 1.47-0.56s1.14-0.47 1.74-0.72c0.6-0.26 1.49-0.65 1.98-0.87 0.48-0.22 1.56-0.74 2.39-1.15s1.95-0.98 2.48-1.27c0.53-0.28 1.37-0.74 1.88-1.02 0.5-0.28 1.43-0.8 2.05-1.15 0.62-0.36 1.65-0.95 2.29-1.33 0.65-0.38 1.74-1.04 2.44-1.46 0.7-0.43 1.64-1 2.09-1.27 0.46-0.28 1.46-0.9 2.22-1.37 0.78-0.48 2.33-1.42 3.45-2.11 1.12-0.68 2.66-1.61 3.41-2.06s1.93-1.13 2.62-1.53c0.68-0.39 1.67-0.94 2.19-1.23s1.48-0.8 2.14-1.14c0.66-0.35 1.76-0.9 2.45-1.22 0.69-0.33 1.69-0.8 2.23-1.04 0.55-0.23 1.41-0.6 1.91-0.8 0.51-0.21 1.24-0.48 1.61-0.63 0.15-0.05 0.36-0.13 0.58-0.2v13.24l-0.31 0.09c-0.17 0.05-0.82 0.25-1.44 0.46-0.62 0.2-1.56 0.52-2.09 0.71s-1.45 0.53-2.05 0.77c-0.59 0.23-1.53 0.63-2.08 0.86-0.56 0.24-1.46 0.64-2 0.89-0.55 0.25-1.78 0.85-2.74 1.33s-2.12 1.08-2.57 1.33c-0.46 0.25-1.27 0.7-1.82 1-0.54 0.31-1.51 0.86-2.16 1.25-0.65 0.38-1.7 1-2.35 1.4-0.64 0.39-1.73 1.07-2.43 1.5-0.7 0.44-2.36 1.49-3.7 2.34s-3.11 1.98-3.92 2.5c-0.82 0.52-2.15 1.35-2.94 1.84-0.79 0.5-1.93 1.19-2.52 1.54-0.59 0.36-1.54 0.9-2.1 1.23-0.56 0.32-1.48 0.83-2.04 1.14-0.56 0.3-1.64 0.85-2.4 1.23s-1.7 0.82-2.09 1-1.05 0.46-1.47 0.64c-0.41 0.18-1.12 0.46-1.55 0.62-0.44 0.17-1.22 0.45-1.75 0.63-0.52 0.18-1.33 0.44-1.8 0.58-0.47 0.13-1.18 0.33-1.59 0.43-0.4 0.1-0.98 0.23-1.29 0.3-0.3 0.06-0.84 0.17-1.19 0.23-0.36 0.06-0.95 0.16-1.32 0.21-0.36 0.05-0.98 0.12-1.37 0.16s-1.09 0.09-1.56 0.11c-0.47 0.03-1.2 0.05-1.64 0.05s-1.16-0.02-1.61-0.05c-0.45-0.03-1.13-0.08-1.51-0.12-0.38-0.03-1.04-0.12-1.47-0.18-0.43-0.07-1.15-0.19-1.59-0.27-0.44-0.09-1.24-0.28-1.77-0.41-0.53-0.14-1.32-0.35-1.74-0.48-0.43-0.13-1.17-0.38-1.66-0.55-0.48-0.17-1.19-0.44-1.59-0.6-0.39-0.16-0.97-0.4-1.3-0.53-0.33-0.14-0.97-0.43-1.42-0.65-0.45-0.21-1.37-0.66-2.03-1-0.65-0.34-1.65-0.87-2.2-1.18-0.56-0.31-1.67-0.96-2.48-1.44s-1.91-1.16-2.43-1.49c-0.53-0.33-1.63-1.04-2.44-1.58-0.8-0.53-1.84-1.22-2.3-1.52-0.45-0.31-2.04-1.39-3.54-2.39-1.49-1.01-3.4-2.29-4.25-2.85s-1.92-1.25-2.38-1.55c-0.46-0.29-1.16-0.74-1.56-0.99s-1.12-0.7-1.61-0.99c-0.49-0.3-1.39-0.83-2-1.17-0.61-0.35-1.51-0.85-2.01-1.12-0.5-0.26-1.48-0.78-2.18-1.12-0.7-0.35-1.62-0.8-2.04-0.99s-1.05-0.47-1.41-0.62c-0.35-0.15-1.04-0.43-1.53-0.63s-1.25-0.48-1.69-0.65c-0.45-0.16-1.17-0.4-1.61-0.54s-1.14-0.35-1.55-0.47c-0.41-0.11-1.17-0.31-1.68-0.43s-1.35-0.31-1.88-0.41c-0.52-0.1-1.37-0.24-1.88-0.32-0.52-0.07-1.22-0.16-1.58-0.21-0.36-0.04-0.92-0.09-1.27-0.11-0.34-0.03-1.76-0.11-3.14-0.18-1.39-0.08-2.74-0.15-3.01-0.16s-0.63-0.03-0.82-0.05l-0.33-0.03v12.93c6.89-0.33 12.14 0.55 12.14 0.55 0.03 0.01 0.45 0.14 0.92 0.29 0.48 0.14 1.24 0.4 1.7 0.56s1.15 0.43 1.53 0.58 1.04 0.43 1.47 0.62 1.38 0.64 2.11 1 1.66 0.84 2.06 1.06c0.41 0.22 1.17 0.65 1.69 0.95 0.53 0.31 1.42 0.83 2 1.18s1.44 0.89 1.94 1.2c0.49 0.31 1.55 1 2.36 1.53 0.8 0.53 2.74 1.82 4.29 2.87 1.56 1.05 3.7 2.5 4.76 3.2 1.06 0.71 2.38 1.58 2.92 1.93s1.47 0.94 2.07 1.32c0.59 0.37 1.49 0.92 2 1.22 0.51 0.31 1.29 0.77 1.74 1.02 0.46 0.26 1.32 0.74 1.91 1.07 0.6 0.33 1.79 0.94 2.65 1.37 0.85 0.43 1.89 0.92 2.29 1.11 0.41 0.18 1.18 0.51 1.73 0.74 0.54 0.23 1.42 0.58 1.96 0.78 0.53 0.2 1.38 0.5 1.88 0.67 0.5 0.16 1.37 0.44 1.92 0.59 0.56 0.16 1.39 0.38 1.86 0.5 0.47 0.11 1.3 0.3 1.86 0.41s1.41 0.26 1.91 0.34c0.49 0.08 1.35 0.19 1.91 0.26 0.56 0.06 1.29 0.13 1.63 0.16 0.34 0.02 1.18 0.07 1.86 0.09 0.68 0.03 1.68 0.04 2.23 0.02 0.54-0.01 1.35-0.04 1.79-0.07s1.15-0.08 1.56-0.11c0.42-0.04 1.16-0.12 1.66-0.18 0.49-0.06 1.26-0.17 1.71-0.25s1.18-0.21 1.63-0.3 1.31-0.28 1.92-0.43c0.6-0.15 1.4-0.36 1.77-0.46 0.36-0.11 1.06-0.31 1.56-0.47 0.49-0.15 1.35-0.43 1.91-0.63s1.35-0.49 1.76-0.65c0.42-0.16 1.16-0.47 1.65-0.68 0.48-0.21 1.35-0.58 1.9-0.83 0.56-0.26 1.7-0.8 2.54-1.22 0.83-0.42 2.01-1.03 2.62-1.36 0.6-0.33 1.63-0.9 2.27-1.27 0.65-0.36 1.88-1.1 2.76-1.61 0.87-0.53 2.28-1.39 3.12-1.92 0.85-0.53 2.15-1.35 2.89-1.83 0.75-0.47 2.2-1.4 3.23-2.06 1.04-0.66 2.38-1.51 2.99-1.89 0.6-0.38 1.51-0.94 2-1.25s1.32-0.8 1.84-1.12c0.52-0.31 1.5-0.88 2.18-1.27s1.72-0.97 2.32-1.29c0.6-0.33 1.51-0.8 2.03-1.07 0.52-0.26 1.42-0.71 2.01-1 0.58-0.28 1.51-0.7 2.04-0.94s1.31-0.56 1.71-0.73c0.41-0.16 1.12-0.45 1.61-0.63 0.48-0.19 1.39-0.5 2.02-0.71s1.55-0.5 2.04-0.65c0.49-0.14 1.3-0.35 1.79-0.48s1.24-0.3 1.65-0.39c0.42-0.09 1.71-0.36 2.87-0.6 1.17-0.24 2.13-0.44 2.15-0.44s0.03-8.4 0.03-18.67-0.01-18.67-0.03-18.67l-0.25 0.1v-0.04l-0.58 0.03c-0.32 0.01-0.95 0.04-1.39 0.07s-1.2 0.09-1.7 0.13c-0.49 0.05-1.34 0.16-1.88 0.23s-1.42 0.22-1.96 0.31c-0.53 0.1-1.29 0.25-1.7 0.35-0.4 0.09-1.21 0.28-1.79 0.43s-1.37 0.36-1.76 0.48c-0.39 0.11-1.16 0.36-1.7 0.53-0.55 0.18-1.33 0.45-1.74 0.6s-1.07 0.4-1.47 0.56c-0.39 0.15-1.08 0.43-1.52 0.61s-1.26 0.53-1.81 0.78c-0.56 0.24-1.42 0.64-1.93 0.88-0.5 0.24-1.41 0.68-2 0.98-0.6 0.3-1.51 0.78-2.05 1.05-0.53 0.28-1.37 0.74-1.88 1.02-0.5 0.28-1.43 0.8-2.05 1.15-0.62 0.36-1.65 0.95-2.3 1.34-0.64 0.38-1.8 1.07-2.57 1.54s-2.97 1.81-4.89 2.99-4.04 2.48-4.72 2.89-1.78 1.06-2.43 1.44c-0.66 0.39-1.57 0.92-2.03 1.17-0.46 0.26-1.27 0.71-1.79 1-0.53 0.29-1.48 0.8-2.11 1.12-0.63 0.33-1.7 0.87-2.37 1.19s-1.57 0.73-2 0.92-1.09 0.48-1.47 0.63c-0.38 0.16-1.03 0.42-1.46 0.58-0.43 0.15-1.23 0.45-1.79 0.64s-1.4 0.46-1.87 0.59c-0.46 0.14-1.18 0.33-1.59 0.44-0.41 0.1-1.1 0.25-1.54 0.34s-1.14 0.21-1.56 0.28c-0.41 0.07-1.02 0.15-1.35 0.19s-0.89 0.09-1.25 0.11c-0.35 0.03-1.01 0.06-1.47 0.08-0.46 0.01-1.38 0-2.05-0.02-0.67-0.03-1.56-0.09-2-0.13-0.43-0.03-1.1-0.11-1.49-0.15-0.39-0.05-1.07-0.15-1.5-0.23-0.43-0.07-1.14-0.21-1.56-0.3-0.43-0.09-1.05-0.23-1.39-0.33-0.34-0.09-0.84-0.22-1.1-0.3s-0.75-0.22-1.08-0.33c-0.33-0.1-0.97-0.32-1.42-0.48-0.46-0.16-1.19-0.44-1.63-0.62-0.45-0.18-1.17-0.48-1.61-0.68-0.44-0.19-1.14-0.52-1.56-0.72s-1.18-0.59-1.7-0.86-1.37-0.73-1.88-1.02-1.41-0.81-1.97-1.15c-0.57-0.34-1.37-0.82-1.77-1.08-0.41-0.25-1.14-0.72-1.64-1.04-0.49-0.31-2.88-1.89-5.3-3.5s-4.93-3.26-5.55-3.66c-0.63-0.4-1.65-1.04-2.25-1.42s-1.59-0.97-2.18-1.33-1.44-0.85-1.88-1.1c-0.45-0.26-1.32-0.75-1.96-1.09-0.63-0.35-1.94-1.03-2.91-1.51s-2.23-1.09-2.8-1.35c-0.57-0.25-1.41-0.63-1.86-0.82-0.46-0.19-1.14-0.48-1.51-0.63-0.38-0.16-1.1-0.43-1.61-0.63-0.5-0.18-1.33-0.48-1.83-0.66-0.51-0.18-1.41-0.47-2-0.65-0.6-0.19-1.28-0.4-1.53-0.46l-0.45-0.13v-7.1c0-5.65 0-7.09 0.06-7.08 0.03 0.01 0.45 0.14 0.92 0.29 0.48 0.14 1.24 0.4 1.7 0.56s1.15 0.43 1.53 0.58 1.04 0.43 1.47 0.62 1.38 0.64 2.11 1 1.66 0.84 2.06 1.06c0.41 0.22 1.17 0.65 1.69 0.95 0.53 0.31 1.42 0.83 2 1.18s1.44 0.89 1.94 1.2c0.49 0.31 1.55 1 2.36 1.53 0.8 0.53 2.74 1.82 4.29 2.87 1.56 1.05 3.7 2.5 4.76 3.2 1.06 0.71 2.38 1.58 2.92 1.93s1.47 0.94 2.07 1.32c0.59 0.37 1.49 0.92 2 1.22 0.51 0.31 1.29 0.77 1.74 1.02 0.46 0.26 1.32 0.74 1.91 1.07 0.6 0.33 1.79 0.94 2.65 1.37 0.85 0.43 1.89 0.92 2.29 1.11 0.41 0.18 1.18 0.51 1.73 0.74 0.54 0.23 1.42 0.58 1.96 0.78 0.53 0.2 1.38 0.5 1.88 0.67 0.5 0.16 1.37 0.44 1.92 0.59 0.56 0.16 1.39 0.38 1.86 0.5 0.47 0.11 1.3 0.3 1.86 0.41s1.41 0.26 1.91 0.34c0.49 0.08 1.35 0.19 1.91 0.26 0.56 0.06 1.29 0.13 1.63 0.16 0.34 0.02 1.18 0.07 1.86 0.09 0.68 0.03 1.68 0.04 2.23 0.02 0.54-0.01 1.35-0.04 1.79-0.07s1.15-0.08 1.56-0.11c0.42-0.04 1.16-0.12 1.66-0.18 0.49-0.06 1.26-0.17 1.71-0.25s1.18-0.21 1.63-0.3 1.31-0.28 1.92-0.43c0.6-0.15 1.4-0.36 1.77-0.46 0.36-0.11 1.06-0.31 1.56-0.47 0.49-0.15 1.35-0.43 1.91-0.63s1.35-0.49 1.76-0.65c0.42-0.16 1.16-0.47 1.65-0.68 0.48-0.21 1.35-0.58 1.9-0.83 0.56-0.26 1.7-0.8 2.54-1.22 0.83-0.42 2.01-1.03 2.62-1.36 0.6-0.33 1.63-0.9 2.27-1.27 0.65-0.36 1.88-1.1 2.76-1.61 0.87-0.53 2.28-1.39 3.12-1.92 0.85-0.53 2.15-1.35 2.89-1.83 0.75-0.47 2.2-1.4 3.23-2.06 1.04-0.66 2.38-1.51 2.99-1.89 0.6-0.38 1.51-0.94 2-1.25s1.32-0.8 1.84-1.12c0.52-0.31 1.5-0.88 2.18-1.27s1.72-0.97 2.32-1.29c0.6-0.33 1.51-0.8 2.03-1.07 0.52-0.26 1.42-0.71 2.01-1 0.58-0.28 1.51-0.7 2.04-0.94s1.31-0.56 1.71-0.73c0.41-0.16 1.12-0.45 1.61-0.63 0.48-0.19 1.39-0.5 2.02-0.71s1.55-0.5 2.04-0.65c0.49-0.14 1.3-0.36 1.79-0.48 0.49-0.13 1.24-0.3 1.65-0.39 0.42-0.09 1.71-0.36 2.87-0.6 1.17-0.24 2.13-0.44 2.15-0.44s0.03-8.4 0.03-18.67-0.01-18.67-0.03-18.67c-0.02 0-1.63 0.11-3.57 0.23-1.95 0.13-3.86 0.26-4.26 0.31-0.39 0.04-1.04 0.11-1.44 0.16-0.41 0.05-1.05 0.14-1.44 0.2s-1 0.17-1.34 0.23c-0.34 0.07-0.96 0.19-1.38 0.28-0.41 0.09-1.12 0.25-1.58 0.37-0.46 0.11-1.16 0.3-1.57 0.41s-1.14 0.33-1.63 0.48c-0.5 0.16-1.29 0.42-1.77 0.59s-1.18 0.43-1.56 0.57-1.17 0.46-1.77 0.71-1.49 0.63-1.98 0.86c-0.49 0.22-1.69 0.8-2.67 1.29-0.97 0.48-2.17 1.1-2.66 1.37-0.5 0.27-1.33 0.74-1.86 1.04s-1.47 0.85-2.1 1.23c-0.62 0.38-1.63 0.99-2.22 1.37-0.6 0.38-1.6 1.01-2.22 1.41s-3.41 2.25-6.2 4.11-5.56 3.68-6.15 4.06-1.46 0.92-1.93 1.21-1.32 0.8-1.89 1.14c-0.57 0.33-1.44 0.83-1.93 1.1-0.49 0.28-1.42 0.76-2.05 1.09-0.63 0.32-1.61 0.8-2.18 1.05-0.57 0.26-1.41 0.62-1.86 0.8-0.46 0.18-1.18 0.46-1.61 0.61s-1.1 0.37-1.47 0.49c-0.38 0.11-1.04 0.31-1.47 0.41-0.43 0.11-1.14 0.28-1.57 0.36-0.43 0.09-1.15 0.21-1.59 0.28-0.43 0.06-1.07 0.14-1.41 0.17-0.4 0.04-1.27 0.06-2.41 0.06-1.35 0-2-0.02-2.62-0.08-0.45-0.04-1.19-0.13-1.65-0.2s-1.2-0.19-1.66-0.28c-0.45-0.08-1.17-0.24-1.58-0.34-0.42-0.11-1.17-0.31-1.66-0.46s-1.2-0.38-1.59-0.5c-0.38-0.14-1.08-0.39-1.56-0.58s-1.25-0.51-1.7-0.71c-0.46-0.2-1.32-0.61-1.93-0.91-0.6-0.3-1.43-0.73-1.84-0.95-0.41-0.21-1.09-0.6-1.54-0.85s-1.22-0.71-1.71-1.01-1.41-0.87-2.04-1.26c-0.63-0.4-2.14-1.39-3.37-2.2-1.22-0.81-3.35-2.24-4.73-3.16-1.37-0.92-3.21-2.14-4.07-2.7-0.85-0.56-2-1.29-2.54-1.64-0.54-0.33-1.54-0.95-2.23-1.36-0.68-0.41-1.7-1-2.25-1.32-0.56-0.31-1.4-0.78-1.88-1.05-0.48-0.26-1.55-0.82-2.39-1.24-0.83-0.42-1.96-0.97-2.5-1.22s-1.37-0.62-1.83-0.82c-0.47-0.2-1.31-0.55-1.88-0.77-0.57-0.23-1.51-0.58-2.09-0.8-0.58-0.21-1.55-0.54-2.14-0.73-0.59-0.2-1.61-0.51-2.25-0.69-0.65-0.19-1.53-0.43-1.97-0.54l-0.78-0.2v-14.17l0.7 0.19z" fill="url(#b)"/> <path d="m211.46 493.2h-10.04v-24.84h3.33v21.82h6.71v3.02z" fill="#1d3b5d"/> <path d="m217.52 493.2v-24.84h10.47v2.95h-7.13v7.81h6.03v2.98h-6.03v8.16h7.24v2.95h-10.57z" fill="#1d3b5d"/> <path d="m242.99 487.34h-5.32l-1.06 5.85h-3.23l4.93-24.84h4.12l5 24.84h-3.41l-1.03-5.85zm-0.53-2.8l-2.13-11.99-2.17 11.99h4.29z" fill="#1d3b5d"/> <path d="m265.62 473.61v14.33c0 3.66-2.27 5.25-6.03 5.25h-6.14v-24.84h6.14c3.76 0 6.03 1.6 6.03 5.25zm-6.17-2.3h-2.66v18.95h2.66c1.85 0 2.84-0.75 2.84-2.95v-13.06c0-2.2-0.99-2.94-2.84-2.94z" fill="#1d3b5d"/> <path d="m273 493.2v-24.84h10.47v2.95h-7.13v7.81h6.03v2.98h-6.03v8.16h7.24v2.95h-10.57z" fill="#1d3b5d"/> <path d="m300.03 493.2l-3.44-10.18h-2.91v10.18h-3.33v-24.84h6.21c3.76 0 6.03 1.6 6.03 5.25v4.15c0 2.48-1.06 4.01-2.91 4.75l3.76 10.68h-3.41zm-6.35-13.09h2.73c1.84 0 2.84-0.75 2.84-2.95v-2.91c0-2.2-0.99-2.94-2.84-2.94h-2.73v8.8z" fill="#1d3b5d"/> <path d="m317.84 477.13v-3.37c0-1.99-0.96-2.77-2.66-2.77s-2.66 0.78-2.66 2.77v1.7c0 1.49 0.53 2.02 1.95 2.84l3.23 1.77c2.13 1.21 3.48 2.41 3.48 4.79v3.44c0 3.72-2.16 5.18-5.92 5.18h-0.07c-3.76 0-5.93-1.42-5.93-5.18v-4.22h3.26v3.66c0 1.95 0.96 2.84 2.7 2.84s2.7-0.89 2.7-2.84v-1.95c0-1.49-0.53-2.13-1.99-2.95l-3.19-1.77c-2.27-1.31-3.48-2.38-3.48-4.75v-3.12c0-3.58 2.48-5.11 5.89-5.11h0.07c3.41 0 5.89 1.53 5.89 5.11v3.94h-3.26z" fill="#1d3b5d"/> <path d="m331.45 468.36v10.71h5.85v-10.71h3.33v24.84h-3.33v-11.14h-5.85v11.14h-3.33v-24.84h3.33z" fill="#1d3b5d"/> <path d="m348.3 493.2v-24.84h3.33v24.84h-3.33z" fill="#1d3b5d"/> <path d="m371.54 473.61v4.44c0 3.65-2.27 5.25-6.03 5.25h-2.87v9.9h-3.33v-24.84h6.21c3.76 0 6.03 1.6 6.03 5.25zm-3.34 0.64c0-2.2-0.99-2.94-2.84-2.94h-2.73v9.01h2.73c1.85 0 2.84-0.75 2.84-2.91v-3.16z" fill="#1d3b5d"/> <path d="m388.07 496.75v-31.93h3.05v31.93h-3.05z" fill="#1d3b5d"/> <path d="m418.25 493.2l-3.44-10.18h-2.91v10.18h-3.33v-24.84h6.21c3.76 0 6.03 1.6 6.03 5.25v4.15c0 2.48-1.06 4.01-2.91 4.75l3.76 10.68h-3.41zm-6.35-13.09h2.73c1.85 0 2.84-0.75 2.84-2.95v-2.91c0-2.2-0.99-2.94-2.84-2.94h-2.73v8.8z" fill="#1d3b5d"/> <path d="m428.11 493.2v-24.84h10.47v2.95h-7.13v7.81h6.03v2.98h-6.03v8.16h7.24v2.95h-10.57z" fill="#1d3b5d"/> <path d="m453.33 477.13v-3.37c0-1.99-0.96-2.77-2.66-2.77s-2.66 0.78-2.66 2.77v1.7c0 1.49 0.53 2.02 1.95 2.84l3.23 1.77c2.13 1.21 3.48 2.41 3.48 4.79v3.44c0 3.72-2.16 5.18-5.92 5.18h-0.07c-3.76 0-5.93-1.42-5.93-5.18v-4.22h3.26v3.66c0 1.95 0.96 2.84 2.7 2.84s2.7-0.89 2.7-2.84v-1.95c0-1.49-0.53-2.13-1.99-2.95l-3.19-1.77c-2.27-1.31-3.48-2.38-3.48-4.75v-3.12c0-3.58 2.48-5.11 5.89-5.11h0.07c3.41 0 5.89 1.53 5.89 5.11v3.94h-3.26z" fill="#1d3b5d"/> <path d="m463.76 493.2v-24.84h3.33v24.84h-3.33z" fill="#1d3b5d"/> <path d="m484.8 493.2h-10.04v-24.84h3.33v21.82h6.71v3.02z" fill="#1d3b5d"/> <path d="m491 493.2v-24.84h3.33v24.84h-3.33z" fill="#1d3b5d"/> <path d="m502 493.2v-24.84h10.47v2.95h-7.13v7.81h6.03v2.98h-6.03v8.16h7.24v2.95h-10.57z" fill="#1d3b5d"/> <path d="m519.34 493.2v-24.84h3.34l6.24 17.1v-17.1h3.09v24.84h-3.19l-6.39-17.67v17.67h-3.09z" fill="#1d3b5d"/> <path d="m551.52 488.23c0 3.72-2.27 5.25-6.03 5.25h-0.07c-3.76 0-6.03-1.49-6.03-5.25v-14.9c0-3.58 2.27-5.25 6.03-5.25h0.07c3.76 0 6.03 1.67 6.03 5.25v4.43h-3.33v-3.8c0-2.16-0.92-2.95-2.73-2.95s-2.73 0.78-2.73 2.95v13.62c0 2.16 0.92 2.95 2.73 2.95s2.73-0.78 2.73-2.95v-4.4h3.33v5.04z" fill="#1d3b5d"/> <path d="m558.75 493.2v-24.84h10.47v2.95h-7.13v7.81h6.03v2.98h-6.03v8.16h7.24v2.95h-10.57z" fill="#1d3b5d"/> <path d="m586.03 496.75v-31.93h3.05v31.93h-3.05z" fill="#1d3b5d"/> <path d="m606.53 493.2v-24.84h10.47v2.95h-7.13v7.81h6.03v2.98h-6.03v8.16h7.24v2.95h-10.57z" fill="#1d3b5d"/> <path d="m633.31 489.37h-1.88l-4.43-13.06v16.89h-3.12v-24.84h3.19l5.29 15.43 5.36-15.43h3.3v24.84h-3.23v-16.89l-4.47 13.06z" fill="#1d3b5d"/> <path d="m660.76 473.61v4.44c0 3.65-2.27 5.25-6.03 5.25h-2.87v9.9h-3.34v-24.84h6.21c3.76 0 6.03 1.6 6.03 5.25zm-3.33 0.64c0-2.2-0.99-2.94-2.84-2.94h-2.73v9.01h2.73c1.85 0 2.84-0.75 2.84-2.91v-3.16z" fill="#1d3b5d"/> <path d="m673.25 468.08h0.28c3.76 0 6.03 1.6 6.03 5.25v14.9c0 3.65-2.27 5.25-6.03 5.25h-0.28c-3.76 0-6.03-1.6-6.03-5.25v-14.9c0-3.69 2.27-5.25 6.03-5.25zm0.14 22.46c1.85 0 2.84-0.75 2.84-2.95v-13.62c0-2.2-0.99-2.95-2.84-2.95s-2.84 0.75-2.84 2.95v13.62c0 2.2 0.99 2.95 2.84 2.95z" fill="#1d3b5d"/> <path d="m702.94 493.2h-3.16l-3.58-18.48-3.62 18.48h-3.26l-4.01-24.84h3.3l2.52 18.87 3.55-18.87h3.05l3.58 18.87 2.52-18.87h3.12l-4.01 24.84z" fill="#1d3b5d"/> <path d="m713.04 493.2v-24.84h10.47v2.95h-7.13v7.81h6.03v2.98h-6.03v8.16h7.24v2.95h-10.57z" fill="#1d3b5d"/> <path d="m740.08 493.2l-3.44-10.18h-2.91v10.18h-3.33v-24.84h6.21c3.76 0 6.03 1.6 6.03 5.25v4.15c0 2.48-1.06 4.01-2.91 4.75l3.76 10.68h-3.41zm-6.35-13.09h2.73c1.85 0 2.84-0.75 2.84-2.95v-2.91c0-2.2-0.99-2.94-2.84-2.94h-2.73v8.8z" fill="#1d3b5d"/> <path d="m759.37 489.37h-1.88l-4.43-13.06v16.89h-3.12v-24.84h3.19l5.29 15.43 5.36-15.43h3.3v24.84h-3.23v-16.89l-4.47 13.06z" fill="#1d3b5d"/> <path d="m774.59 493.2v-24.84h10.47v2.95h-7.13v7.81h6.03v2.98h-6.03v8.16h7.24v2.95h-10.57z" fill="#1d3b5d"/> <path d="m791.93 493.2v-24.84h3.34l6.24 17.1v-17.1h3.09v24.84h-3.19l-6.39-17.67v17.67h-3.09z" fill="#1d3b5d"/> <path d="m822.58 471.31h-4.33v21.89h-3.33v-21.89h-4.33v-2.95h11.99v2.95z" fill="#1d3b5d"/>
</g>
</svg>