<svg version="1.1" xmlns:cc="http://creativecommons.org/ns#" xmlns:dc="http://purl.org/dc/elements/1.1/" xmlns:rdf="http://www.w3.org/1999/02/22-rdf-syntax-ns#" xmlns="http://www.w3.org/2000/svg" xmlns:xlink="http://www.w3.org/1999/xlink" x="0px" y="0px" viewBox="0 0 1024 768" xml:space="preserve">
<style>
#logo-fade{
opacity: 0;
animation: fadeIn 4s ease-in forwards infinite;
}

@keyframes fadeIn { 0% { opacity:0; } 50% { opacity:0; } 100% { opacity:1; } }
@keyframes fadeOut { from { opacity:1; } to { opacity:0; } }

#outline{
opacity: 1;
stroke-dasharray: 2000;
stroke-dashoffset: 2000;
animation: dash 4s ease-in-out forwards infinite;
}

@keyframes dash {
  0% {
    opacity: 1;
    stroke-dashoffset: 2000;
  }
  50% {
    opacity: 1;
    stroke-dashoffset: 1000;
  }
  100% {
    opacity: 0;
    stroke-dashoffset: 0;
  }
}
</style>
<path id="outline" d="m338.96 280.58c-1.44 0-2.93 0.26-4.47 0.78-1.44 0.51-2.73 1.33-3.86 2.46s-2.05 2.62-2.77 4.47c-0.72 1.75-1.08 3.85-1.08 6.32v30.5h7.09v-29.43c0-3.28 0.56-5.59 1.69-6.93 1.24-1.44 2.57-2.16 4.01-2.16h1.08c1.44 0 2.72 0.72 3.85 2.16 1.23 1.34 1.85 3.65 1.85 6.93v25.89c0 3.29-0.62 5.75-1.85 7.39-1.23 1.55-2.72 2.32-4.47 2.32h-2.92v5.24h2.92c1.75 0 3.24 0.82 4.47 2.46 1.23 1.54 1.85 3.96 1.85 7.24v28.82c0 3.38-0.62 5.75-1.85 7.08-1.13 1.34-2.41 2-3.85 2h-1.08c-1.44 0-2.77-0.66-4.01-2-1.13-1.33-1.69-3.64-1.69-6.93v-29.43h-7.09v30.35c0 2.47 0.36 4.63 1.08 6.48 0.72 1.74 1.64 3.23 2.77 4.46 1.13 1.13 2.42 1.96 3.86 2.47 1.54 0.51 3.03 0.77 4.47 0.77h2.31c1.43 0 2.87-0.26 4.31-0.77s2.72-1.34 3.85-2.47c1.23-1.23 2.21-2.72 2.93-4.46 0.72-1.85 1.08-4.01 1.08-6.48v-29.73c0-4.11-0.93-7.09-2.78-8.94-1.84-1.85-3.95-3.03-6.31-3.54 2.36-0.52 4.47-1.75 6.31-3.7 1.85-2.06 2.78-5.19 2.78-9.4v-26.19c0-2.47-0.36-4.57-1.08-6.32-0.72-1.85-1.7-3.34-2.93-4.47-1.13-1.13-2.41-1.95-3.85-2.46-1.44-0.52-2.88-0.78-4.31-0.78h-2.31zm343.77 0c-1.43 0-2.92 0.26-4.46 0.78-1.44 0.51-2.73 1.33-3.86 2.46s-2.05 2.62-2.77 4.47c-0.72 1.75-1.08 3.85-1.08 6.32v17.41c0 3.28 0.46 6.31 1.39 9.09 1.03 2.77 2.26 5.39 3.7 7.85 1.43 2.47 2.98 4.88 4.62 7.25 1.75 2.26 3.34 4.62 4.77 7.08 1.44 2.37 2.63 4.88 3.55 7.55 1.03 2.67 1.54 5.6 1.54 8.79v15.41c0 3.28-0.67 5.64-2 7.08-1.24 1.34-2.57 2-4.01 2h-1.08c-1.44 0-2.82-0.66-4.16-2-1.23-1.44-1.85-3.8-1.85-7.08v-29.28h-6.47v30.35c0 2.47 0.36 4.63 1.08 6.48 0.72 1.74 1.64 3.18 2.77 4.31 1.24 1.13 2.57 1.95 4.01 2.47 1.54 0.51 3.03 0.76 4.47 0.76h2.15c1.55 0 3.04-0.25 4.47-0.76 1.44-0.52 2.73-1.34 3.86-2.47s2.05-2.57 2.77-4.31c0.72-1.85 1.08-4.01 1.08-6.48v-17.41c0-4.93-1.03-9.24-3.08-12.94-2.06-3.8-4.32-7.45-6.78-10.94-2.37-3.59-4.58-7.24-6.63-10.94-2.05-3.8-3.08-8.11-3.08-12.94v-15.26c0-3.28 0.56-5.59 1.69-6.93 1.24-1.44 2.57-2.16 4.01-2.16h1.08c1.44 0 2.72 0.72 3.85 2.16 1.23 1.34 1.85 3.65 1.85 6.93v29.28h6.47v-30.35c0-2.47-0.36-4.57-1.08-6.32-0.72-1.85-1.69-3.34-2.92-4.47-1.13-1.13-2.42-1.95-3.86-2.46-1.44-0.52-2.87-0.78-4.31-0.78h-1.7zm-307.86 0.93v107.7h20.5v-5.39h-13.41v-102.31h-7.09zm165.37 0l10.79 107.7h9.25l10.32-107.7h-6.16l-8.48 87.21h-0.31l-8.47-87.21h-6.94zm49.21 0v107.7h22.03v-6.01h-14.94v-45.14h11.09v-5.4h-11.09v-45.14h14.33v-6.01h-21.42zm42.06 0v107.7h20.5v-5.39h-13.41v-102.31h-7.09zm-109.96 1.35l-0.67 0.01c-0.36 0-1.55 0.02-2.63 0.04-1.08 0.03-2.27 0.06-2.64 0.08s-0.94 0.06-1.26 0.09c-0.33 0.03-0.86 0.08-1.18 0.12-0.33 0.03-0.85 0.1-1.16 0.15-0.32 0.04-0.84 0.13-1.16 0.19-0.33 0.05-0.89 0.16-1.25 0.23-0.36 0.08-0.95 0.21-1.32 0.3-0.38 0.1-0.92 0.24-1.22 0.32-0.29 0.09-0.83 0.25-1.19 0.36s-0.98 0.32-1.36 0.46c-0.39 0.13-1.03 0.37-1.43 0.53-0.39 0.16-1.08 0.45-1.53 0.64-0.45 0.2-1.3 0.61-1.91 0.91-0.6 0.3-1.39 0.71-1.76 0.92s-0.98 0.56-1.36 0.78-0.97 0.58-1.32 0.79c-0.34 0.22-0.94 0.61-1.34 0.87s-1.1 0.73-1.55 1.04-1.19 0.84-1.65 1.16c-0.45 0.33-1.17 0.85-1.6 1.17-0.42 0.31-1.54 1.14-2.49 1.85-0.94 0.7-2.1 1.56-2.57 1.9s-1.08 0.78-1.36 0.97c-0.28 0.2-0.84 0.58-1.24 0.85s-1.04 0.68-1.43 0.92c-0.38 0.24-0.95 0.58-1.25 0.76-0.31 0.18-0.83 0.47-1.16 0.64-0.34 0.18-0.86 0.44-1.17 0.58-0.3 0.14-0.72 0.34-0.93 0.43-0.22 0.09-0.58 0.24-0.81 0.33s-0.6 0.22-0.83 0.3c-0.22 0.08-0.67 0.22-1.01 0.32-0.33 0.1-0.87 0.24-1.21 0.31-0.33 0.08-0.88 0.19-1.22 0.24-0.35 0.06-0.85 0.13-1.11 0.15-0.27 0.03-0.75 0.07-1.06 0.09-0.32 0.02-0.8 0.03-1.08 0.03s-0.77-0.01-1.09-0.03c-0.33-0.02-0.81-0.06-1.08-0.09-0.27-0.02-0.69-0.08-0.94-0.12-0.25-0.03-0.64-0.1-0.86-0.14-0.22-0.05-0.55-0.11-0.72-0.15-0.18-0.04-0.55-0.14-0.82-0.21s-0.66-0.19-0.87-0.25c-0.2-0.06-0.56-0.18-0.81-0.27-0.24-0.09-0.69-0.25-0.98-0.37-0.3-0.12-0.84-0.34-1.2-0.5s-0.95-0.45-1.31-0.63-0.87-0.44-1.13-0.59c-0.26-0.14-0.76-0.42-1.11-0.63-0.35-0.2-1.04-0.62-1.53-0.92-0.49-0.31-1.43-0.92-2.08-1.36-0.66-0.44-1.8-1.21-2.53-1.72-0.73-0.5-1.95-1.35-2.72-1.89-0.77-0.53-1.98-1.36-2.69-1.83-0.72-0.47-1.67-1.1-2.12-1.39-0.46-0.29-1.21-0.75-1.67-1.03s-1.1-0.65-1.43-0.84c-0.32-0.18-0.88-0.5-1.24-0.69-0.37-0.2-1.14-0.6-1.72-0.9-0.58-0.29-1.34-0.66-1.69-0.82-0.34-0.16-0.97-0.43-1.39-0.61-0.43-0.18-1.08-0.44-1.45-0.59-0.37-0.14-1.01-0.38-1.43-0.53-0.41-0.15-1.07-0.37-1.46-0.49s-1-0.3-1.36-0.4-0.97-0.27-1.34-0.36c-0.38-0.1-1-0.24-1.38-0.32-0.38-0.09-1.01-0.21-1.4-0.28-0.39-0.08-1.01-0.18-1.38-0.24-0.37-0.05-0.98-0.14-1.35-0.18-0.37-0.05-0.9-0.11-1.19-0.14s-0.82-0.07-1.18-0.1-1-0.07-1.43-0.08c-0.42-0.02-1.13-0.05-1.57-0.06l-0.8-0.02v8.84l0.9 0.03c0.49 0.01 1.15 0.03 1.47 0.05s0.84 0.06 1.16 0.09c0.33 0.03 0.86 0.08 1.18 0.12 0.32 0.03 0.94 0.12 1.36 0.18 0.43 0.07 1.15 0.19 1.6 0.28 0.46 0.09 1.17 0.25 1.6 0.36 0.42 0.1 1.06 0.27 1.42 0.37 0.37 0.1 1.04 0.32 1.51 0.47 0.46 0.15 1.14 0.39 1.52 0.53 0.38 0.15 0.97 0.38 1.32 0.53s0.87 0.37 1.15 0.5c0.29 0.13 0.81 0.38 1.17 0.55s0.97 0.48 1.34 0.68c0.38 0.2 0.95 0.51 1.27 0.68 0.31 0.18 0.86 0.5 1.23 0.71 0.36 0.21 0.97 0.58 1.36 0.82 0.38 0.25 1.14 0.73 1.68 1.08s1.48 0.98 2.09 1.4c0.61 0.41 1.79 1.23 2.64 1.82 0.84 0.59 1.92 1.33 2.39 1.66 0.48 0.33 1.32 0.89 1.87 1.26s1.27 0.83 1.59 1.04c0.32 0.2 0.82 0.51 1.11 0.69s0.81 0.49 1.16 0.69 0.98 0.56 1.4 0.78c0.41 0.23 1.12 0.6 1.58 0.83 0.45 0.22 1.12 0.53 1.48 0.69s0.9 0.39 1.19 0.51c0.3 0.12 0.78 0.31 1.08 0.42 0.29 0.11 0.82 0.29 1.16 0.41 0.34 0.11 0.81 0.26 1.04 0.32 0.23 0.07 0.65 0.18 0.93 0.26 0.27 0.07 0.78 0.19 1.12 0.26 0.34 0.08 0.92 0.19 1.29 0.26 0.38 0.06 0.92 0.14 1.2 0.18 0.29 0.04 0.76 0.09 1.05 0.12 0.28 0.03 0.78 0.06 1.11 0.08 0.32 0.02 1.1 0.04 1.73 0.04s1.41-0.01 1.73-0.04c0.33-0.02 0.83-0.06 1.11-0.08 0.29-0.03 0.8-0.09 1.14-0.14 0.34-0.04 0.91-0.13 1.26-0.2 0.36-0.06 0.91-0.18 1.24-0.25 0.32-0.08 0.86-0.21 1.19-0.3s0.84-0.24 1.13-0.33c0.28-0.1 0.72-0.24 0.97-0.33s0.74-0.27 1.1-0.41c0.35-0.14 0.93-0.38 1.29-0.54s1.07-0.5 1.58-0.75c0.51-0.26 1.22-0.63 1.58-0.83s0.91-0.52 1.21-0.7c0.31-0.18 0.82-0.49 1.15-0.7 0.32-0.2 0.95-0.61 1.4-0.91 0.44-0.29 1.05-0.71 1.36-0.92 0.3-0.21 0.79-0.56 1.09-0.78 0.3-0.21 0.85-0.61 1.23-0.89s1.29-0.95 2.02-1.5c0.73-0.54 1.7-1.26 2.15-1.6 0.45-0.33 1.04-0.77 1.31-0.96 0.27-0.2 0.65-0.47 0.84-0.61 0.2-0.14 0.61-0.42 0.91-0.64 0.31-0.21 0.85-0.58 1.21-0.82s0.91-0.6 1.21-0.79c0.31-0.2 0.84-0.53 1.18-0.73 0.35-0.21 0.93-0.55 1.3-0.75 0.37-0.21 1.14-0.6 1.71-0.89 0.58-0.28 1.32-0.63 1.65-0.77 0.33-0.15 0.85-0.36 1.14-0.47 0.3-0.12 0.86-0.32 1.25-0.45 0.39-0.14 0.99-0.33 1.33-0.43s0.93-0.26 1.31-0.35 0.92-0.21 1.19-0.27c0.28-0.05 0.61-0.11 0.73-0.13s0.25-0.05 0.29-0.06l0.08-0.01v10.54l-0.65 0.17c-0.36 0.09-0.99 0.26-1.41 0.38-0.41 0.12-1.2 0.36-1.74 0.55-0.55 0.18-1.24 0.42-1.54 0.53s-0.81 0.31-1.13 0.44-0.82 0.33-1.12 0.46c-0.29 0.12-0.85 0.37-1.24 0.54-0.39 0.18-1.15 0.54-1.69 0.8-0.53 0.26-1.28 0.64-1.66 0.84s-0.96 0.51-1.28 0.69c-0.32 0.17-0.99 0.55-1.49 0.83-0.49 0.28-1.22 0.71-1.61 0.94-0.4 0.24-1.13 0.69-1.64 1-0.51 0.32-1.44 0.9-2.07 1.31-0.63 0.4-1.71 1.09-2.41 1.54-0.69 0.45-1.73 1.12-2.3 1.49s-1.51 0.97-2.07 1.32c-0.57 0.36-1.34 0.84-1.72 1.07s-1.05 0.63-1.49 0.89c-0.45 0.26-1.08 0.62-1.42 0.81-0.33 0.18-0.94 0.51-1.36 0.73-0.41 0.22-1.08 0.55-1.48 0.74s-0.97 0.45-1.28 0.59c-0.3 0.13-0.86 0.36-1.23 0.51s-1.02 0.39-1.45 0.53c-0.43 0.15-1.05 0.34-1.38 0.44-0.33 0.09-0.79 0.21-1.02 0.26-0.23 0.06-0.65 0.15-0.94 0.2-0.29 0.06-0.73 0.14-0.98 0.17-0.25 0.04-0.68 0.1-0.97 0.13-0.28 0.03-0.84 0.06-1.23 0.08-0.39 0.01-1.05 0.01-1.48 0-0.42-0.02-1.02-0.05-1.31-0.08-0.3-0.03-0.76-0.09-1.03-0.13-0.27-0.03-0.78-0.12-1.14-0.19s-0.88-0.19-1.15-0.26c-0.27-0.06-0.64-0.16-0.84-0.22-0.19-0.05-0.66-0.2-1.03-0.32s-0.92-0.32-1.24-0.44c-0.31-0.12-0.84-0.33-1.16-0.47s-0.9-0.4-1.29-0.59c-0.39-0.18-1.01-0.49-1.38-0.69-0.37-0.19-0.93-0.5-1.25-0.67-0.31-0.18-0.91-0.53-1.33-0.78-0.41-0.25-1-0.6-1.29-0.79-0.3-0.18-0.98-0.62-1.52-0.98-0.54-0.35-1.36-0.91-1.83-1.23s-1.65-1.13-2.61-1.8-2.2-1.53-2.76-1.91c-0.55-0.39-1.58-1.09-2.28-1.55-0.71-0.47-1.62-1.07-2.04-1.33-0.42-0.27-1.17-0.73-1.67-1.03-0.49-0.3-1.21-0.72-1.59-0.93s-0.95-0.52-1.27-0.69c-0.31-0.17-0.87-0.45-1.24-0.64-0.37-0.18-0.96-0.47-1.31-0.63s-0.97-0.43-1.38-0.6c-0.41-0.18-1.09-0.44-1.51-0.6-0.43-0.16-1.08-0.39-1.45-0.51s-0.94-0.3-1.26-0.39c-0.33-0.09-0.86-0.24-1.2-0.32-0.33-0.08-0.85-0.2-1.16-0.27-0.31-0.06-0.87-0.17-1.25-0.24-0.38-0.06-0.98-0.15-1.34-0.2-0.36-0.04-0.9-0.1-1.21-0.13-0.3-0.03-0.83-0.07-1.18-0.09-0.34-0.02-1.47-0.06-2.52-0.1-1.04-0.03-2.07-0.07-2.28-0.08l-0.38-0.02v27.38l0.08 0.02c0.04 0.01 0.99 0.16 2.11 0.34s2.31 0.37 2.66 0.44c0.34 0.06 0.89 0.18 1.22 0.25 0.33 0.08 0.87 0.2 1.19 0.29 0.33 0.08 0.86 0.23 1.19 0.32 0.32 0.09 1.03 0.31 1.58 0.5 0.54 0.18 1.27 0.43 1.61 0.56 0.35 0.13 0.84 0.33 1.11 0.44s0.65 0.27 0.85 0.36c0.2 0.08 0.65 0.28 1 0.44 0.34 0.16 1.02 0.49 1.5 0.73s1.17 0.6 1.53 0.79 0.99 0.54 1.4 0.78c0.4 0.23 1.14 0.66 1.63 0.96 0.49 0.29 1.31 0.8 1.82 1.12 0.5 0.32 1.66 1.08 2.55 1.67 0.9 0.6 2.44 1.63 3.42 2.29s2.26 1.51 2.86 1.9c0.59 0.38 1.38 0.89 1.75 1.12s0.97 0.6 1.34 0.82 0.95 0.56 1.28 0.75 0.87 0.49 1.19 0.67c0.33 0.17 0.99 0.52 1.47 0.76s1.11 0.55 1.41 0.69 0.86 0.38 1.25 0.55c0.38 0.16 0.97 0.4 1.29 0.53 0.32 0.12 0.83 0.31 1.13 0.41 0.29 0.11 0.75 0.26 1.01 0.34s0.68 0.21 0.94 0.29c0.26 0.07 0.74 0.2 1.07 0.29 0.34 0.08 0.85 0.2 1.15 0.26 0.29 0.07 0.75 0.16 1.01 0.2 0.26 0.05 0.62 0.11 0.81 0.14 0.18 0.03 0.44 0.07 0.57 0.09 0.13 0.01 0.44 0.05 0.69 0.08s0.71 0.08 1.02 0.1c0.32 0.03 0.95 0.07 1.42 0.09 0.49 0.02 1.23 0.03 1.78 0.02 0.52-0.01 1.24-0.05 1.6-0.07 0.36-0.03 0.9-0.09 1.21-0.12 0.3-0.04 0.79-0.11 1.07-0.15 0.29-0.05 0.8-0.14 1.13-0.21s0.86-0.18 1.16-0.25c0.31-0.07 0.85-0.22 1.21-0.32 0.37-0.1 0.94-0.28 1.28-0.39s0.93-0.31 1.3-0.45c0.37-0.13 0.95-0.36 1.29-0.5 0.35-0.14 0.87-0.37 1.16-0.5 0.3-0.13 0.86-0.39 1.25-0.58 0.39-0.18 1.04-0.51 1.46-0.73 0.42-0.21 1.1-0.58 1.52-0.81 0.43-0.24 1.11-0.63 1.52-0.87s1.01-0.6 1.33-0.8c0.33-0.2 0.82-0.5 1.1-0.68 0.28-0.17 0.85-0.54 1.27-0.82 0.43-0.27 2.32-1.52 4.2-2.78 1.88-1.25 3.72-2.47 4.09-2.71s0.91-0.59 1.19-0.77c0.29-0.18 0.75-0.47 1.04-0.65s0.88-0.54 1.31-0.8c0.44-0.26 1.1-0.64 1.48-0.86 0.38-0.21 0.89-0.49 1.13-0.62s0.82-0.43 1.28-0.66 1.06-0.52 1.33-0.65c0.26-0.12 0.7-0.32 0.97-0.43 0.27-0.12 0.75-0.32 1.08-0.45 0.32-0.13 0.82-0.32 1.11-0.42s0.75-0.26 1.04-0.35c0.29-0.1 0.73-0.23 0.99-0.31 0.26-0.07 0.6-0.16 0.76-0.2s0.31-0.08 0.34-0.09l0.06-0.02v10.45l-0.22 0.06c-0.13 0.04-0.6 0.19-1.05 0.34-0.46 0.14-1.15 0.38-1.54 0.52-0.38 0.13-1.06 0.39-1.49 0.56-0.44 0.17-1.13 0.45-1.53 0.63-0.41 0.17-1.07 0.47-1.47 0.65-0.39 0.18-1.29 0.62-2 0.97-0.7 0.36-1.55 0.8-1.88 0.98-0.34 0.18-0.93 0.51-1.33 0.73-0.4 0.23-1.11 0.63-1.58 0.91s-1.25 0.74-1.72 1.03-1.27 0.78-1.78 1.1-1.73 1.09-2.71 1.71c-0.98 0.63-2.27 1.45-2.87 1.84-0.61 0.38-1.58 0.99-2.16 1.35s-1.41 0.87-1.85 1.13c-0.43 0.25-1.13 0.66-1.54 0.89-0.41 0.24-1.09 0.62-1.5 0.84s-1.2 0.63-1.75 0.9c-0.56 0.27-1.25 0.61-1.53 0.73-0.29 0.13-0.77 0.34-1.08 0.47-0.3 0.13-0.82 0.34-1.14 0.46-0.32 0.13-0.89 0.33-1.27 0.46-0.39 0.13-0.98 0.32-1.32 0.42-0.35 0.1-0.87 0.24-1.17 0.32-0.29 0.07-0.71 0.17-0.94 0.21-0.22 0.05-0.61 0.13-0.87 0.17-0.26 0.05-0.69 0.12-0.96 0.15-0.27 0.04-0.72 0.1-1.01 0.12-0.28 0.03-0.8 0.07-1.14 0.09-0.35 0.02-0.88 0.03-1.2 0.03s-0.85-0.01-1.18-0.03-0.83-0.06-1.11-0.09c-0.27-0.03-0.76-0.09-1.07-0.13-0.32-0.05-0.84-0.14-1.16-0.2-0.33-0.07-0.91-0.2-1.3-0.3s-0.96-0.26-1.28-0.36c-0.31-0.09-0.86-0.27-1.21-0.4-0.35-0.12-0.87-0.32-1.16-0.44-0.28-0.11-0.71-0.29-0.95-0.39s-0.71-0.31-1.05-0.47c-0.33-0.16-1-0.49-1.48-0.73-0.48-0.25-1.21-0.64-1.61-0.86-0.41-0.23-1.23-0.71-1.82-1.06-0.59-0.36-1.4-0.85-1.78-1.1-0.39-0.24-1.2-0.76-1.79-1.15s-1.35-0.89-1.68-1.12c-0.33-0.22-1.5-1.01-2.59-1.75s-2.49-1.67-3.11-2.08-1.4-0.92-1.74-1.14-0.85-0.54-1.14-0.72c-0.3-0.19-0.83-0.51-1.19-0.73s-1.02-0.6-1.46-0.86c-0.45-0.25-1.11-0.62-1.48-0.82-0.36-0.2-1.08-0.57-1.59-0.82-0.52-0.26-1.19-0.59-1.5-0.73s-0.77-0.34-1.03-0.45-0.76-0.32-1.12-0.46-0.92-0.36-1.24-0.47c-0.32-0.12-0.85-0.3-1.18-0.4-0.32-0.1-0.83-0.26-1.14-0.34-0.3-0.09-0.85-0.23-1.23-0.32-0.37-0.09-0.99-0.23-1.37-0.3-0.38-0.08-1-0.18-1.38-0.24-0.37-0.05-0.89-0.12-1.15-0.15s-0.68-0.06-0.93-0.08-1.28-0.08-2.3-0.14c-1.02-0.05-2.01-0.11-2.21-0.12-0.19-0.01-0.46-0.02-0.59-0.04l-0.25-0.01v27.28l0.06 0.02c0.03 0.01 0.97 0.21 2.08 0.44s2.41 0.52 2.89 0.64 1.22 0.31 1.64 0.43 1.14 0.35 1.6 0.5 1.23 0.42 1.71 0.6 1.15 0.45 1.5 0.59c0.34 0.14 0.86 0.36 1.16 0.49 0.29 0.13 0.91 0.42 1.37 0.64 0.47 0.22 1.24 0.61 1.72 0.86s1.13 0.6 1.45 0.78c0.31 0.17 0.78 0.44 1.04 0.58 0.26 0.15 0.77 0.46 1.14 0.68s1.02 0.61 1.43 0.87c0.42 0.26 1.12 0.71 1.57 1 0.44 0.28 2.21 1.45 3.93 2.59 1.72 1.15 3.43 2.27 3.8 2.51s1.07 0.68 1.55 0.98 1.17 0.71 1.53 0.93c0.36 0.21 0.83 0.48 1.05 0.6 0.21 0.12 0.59 0.34 0.84 0.47 0.25 0.14 0.82 0.45 1.26 0.68 0.45 0.23 1.14 0.58 1.53 0.77 0.4 0.18 1.01 0.47 1.36 0.62 0.35 0.16 0.97 0.42 1.38 0.58 0.41 0.17 1.01 0.4 1.35 0.52 0.33 0.12 0.88 0.31 1.23 0.42 0.34 0.11 0.89 0.28 1.21 0.37 0.33 0.1 0.9 0.25 1.27 0.34 0.36 0.09 0.84 0.21 1.06 0.26 0.23 0.04 0.68 0.13 1.01 0.2 0.33 0.06 0.9 0.16 1.26 0.21 0.36 0.06 1 0.14 1.42 0.19 0.41 0.04 0.96 0.1 1.21 0.12s0.74 0.05 1.09 0.07c0.35 0.01 1.13 0.03 1.72 0.03s1.36-0.02 1.7-0.03c0.34-0.02 0.87-0.06 1.17-0.09 0.31-0.03 0.8-0.08 1.1-0.12 0.29-0.04 0.81-0.11 1.15-0.17 0.34-0.05 0.92-0.15 1.3-0.23 0.37-0.08 1.01-0.22 1.42-0.32 0.4-0.1 1.08-0.28 1.5-0.4s1.13-0.34 1.57-0.49c0.44-0.14 1.07-0.37 1.4-0.49s0.82-0.31 1.08-0.41 0.83-0.34 1.28-0.53c0.44-0.19 1.09-0.48 1.44-0.64s1.14-0.54 1.75-0.84 1.43-0.72 1.82-0.93c0.39-0.2 1.01-0.54 1.38-0.74 0.37-0.21 1.04-0.59 1.5-0.85 0.45-0.26 1.2-0.69 1.68-0.97 0.47-0.28 1.27-0.76 1.78-1.07s1.2-0.73 1.53-0.93 1.07-0.66 1.63-1c0.57-0.35 1.7-1.05 2.53-1.55 0.82-0.5 1.94-1.18 2.5-1.51 0.55-0.33 1.41-0.83 1.91-1.12 0.51-0.29 1.23-0.7 1.61-0.9 0.38-0.21 1.08-0.59 1.57-0.84 0.48-0.25 1.29-0.66 1.79-0.9 0.51-0.24 1.25-0.58 1.64-0.76 0.4-0.17 1.03-0.44 1.4-0.59s0.91-0.35 1.18-0.45c0.28-0.11 0.8-0.29 1.16-0.41s0.92-0.29 1.23-0.38c0.32-0.09 0.82-0.22 1.11-0.3 0.3-0.07 0.84-0.19 1.2-0.26 0.36-0.08 0.9-0.18 1.21-0.22 0.3-0.05 0.83-0.12 1.16-0.16 0.33-0.03 0.85-0.08 1.16-0.1s0.66-0.03 0.78-0.03h0.23l-0.02-0.67c-0.01-0.36-0.05-2.32-0.08-4.35-0.04-2.02-0.07-3.71-0.07-3.76v-0.08l-0.43 0.03c-0.23 0.01-0.69 0.03-1.02 0.05-0.32 0.02-0.88 0.06-1.24 0.1s-0.98 0.11-1.38 0.17c-0.4 0.05-1.04 0.16-1.43 0.23s-0.95 0.19-1.24 0.25c-0.3 0.07-0.89 0.21-1.32 0.32-0.42 0.11-1 0.27-1.29 0.36-0.29 0.08-0.85 0.26-1.25 0.39s-0.97 0.33-1.27 0.43c-0.3 0.11-0.79 0.3-1.08 0.41s-0.79 0.31-1.11 0.45c-0.33 0.13-0.92 0.39-1.33 0.57s-1.04 0.47-1.41 0.65c-0.37 0.17-1.03 0.5-1.47 0.72-0.43 0.22-1.11 0.56-1.49 0.77-0.39 0.21-1.01 0.54-1.38 0.75-0.37 0.2-1.05 0.58-1.5 0.84s-1.21 0.7-1.68 0.97c-0.47 0.28-1.32 0.79-1.89 1.13-0.56 0.34-2.17 1.33-3.58 2.19-1.41 0.87-2.96 1.82-3.46 2.12s-1.3 0.78-1.78 1.06c-0.49 0.28-1.15 0.67-1.49 0.86-0.33 0.19-0.92 0.52-1.31 0.73s-1.08 0.59-1.55 0.83c-0.46 0.24-1.24 0.63-1.73 0.86-0.49 0.24-1.15 0.54-1.46 0.68-0.32 0.14-0.8 0.35-1.08 0.47-0.28 0.11-0.76 0.3-1.07 0.42s-0.9 0.33-1.31 0.47-1.03 0.34-1.37 0.44-0.87 0.24-1.17 0.31c-0.3 0.08-0.81 0.19-1.13 0.25-0.32 0.07-0.83 0.16-1.13 0.21-0.31 0.04-0.75 0.1-0.99 0.13s-0.65 0.07-0.91 0.08c-0.26 0.02-0.75 0.05-1.08 0.06s-1.01 0-1.5-0.02-1.15-0.06-1.46-0.08c-0.31-0.03-0.81-0.09-1.09-0.12-0.29-0.04-0.78-0.11-1.1-0.17-0.32-0.05-0.84-0.15-1.15-0.22-0.31-0.06-0.77-0.17-1.02-0.24-0.25-0.06-0.61-0.16-0.8-0.22-0.2-0.05-0.55-0.16-0.79-0.23-0.25-0.08-0.71-0.24-1.05-0.36-0.33-0.12-0.87-0.32-1.19-0.45s-0.85-0.36-1.18-0.5c-0.32-0.14-0.84-0.38-1.14-0.53-0.31-0.14-0.87-0.43-1.25-0.63s-1-0.54-1.38-0.75-1.03-0.59-1.44-0.84c-0.42-0.25-1-0.6-1.3-0.79-0.29-0.19-0.83-0.53-1.19-0.76s-2.11-1.38-3.89-2.56c-1.77-1.18-3.61-2.39-4.07-2.68-0.46-0.3-1.2-0.77-1.65-1.05-0.44-0.27-1.16-0.71-1.6-0.97-0.43-0.26-1.05-0.62-1.38-0.81-0.32-0.19-0.96-0.54-1.43-0.8-0.46-0.25-1.42-0.75-2.13-1.1-0.71-0.36-1.64-0.81-2.05-0.99-0.42-0.19-1.03-0.46-1.37-0.6-0.33-0.14-0.83-0.35-1.11-0.46-0.27-0.11-0.8-0.32-1.17-0.46s-0.98-0.35-1.35-0.48-1.03-0.35-1.46-0.48c-0.44-0.14-0.94-0.29-1.12-0.34l-0.33-0.09v-5.2c0-4.15 0.01-5.19 0.04-5.18s0.33 0.1 0.68 0.2c0.34 0.11 0.9 0.29 1.24 0.42 0.34 0.12 0.84 0.31 1.12 0.42s0.76 0.32 1.07 0.45c0.32 0.14 1.02 0.47 1.55 0.74 0.54 0.26 1.22 0.61 1.52 0.77 0.29 0.16 0.85 0.47 1.23 0.69 0.39 0.22 1.05 0.61 1.47 0.87 0.42 0.25 1.06 0.65 1.42 0.88s1.14 0.73 1.73 1.12c0.59 0.38 2 1.33 3.14 2.1s2.71 1.83 3.49 2.35 1.74 1.15 2.13 1.41c0.4 0.26 1.08 0.69 1.52 0.96 0.43 0.27 1.09 0.67 1.46 0.9 0.37 0.22 0.95 0.56 1.28 0.75s0.96 0.54 1.4 0.78c0.43 0.24 1.3 0.69 1.93 1s1.39 0.67 1.68 0.81c0.3 0.13 0.87 0.38 1.26 0.54 0.4 0.17 1.05 0.42 1.44 0.57 0.39 0.14 1.01 0.37 1.38 0.49s1 0.32 1.41 0.43c0.4 0.12 1.02 0.28 1.36 0.37 0.34 0.08 0.95 0.22 1.36 0.3s1.04 0.2 1.4 0.25c0.36 0.06 0.99 0.15 1.39 0.19 0.41 0.05 0.95 0.1 1.2 0.12s0.86 0.05 1.36 0.07 1.23 0.03 1.63 0.02c0.4-0.02 0.99-0.04 1.31-0.06 0.33-0.02 0.84-0.06 1.15-0.08 0.3-0.03 0.85-0.09 1.21-0.14 0.36-0.04 0.92-0.12 1.25-0.18s0.87-0.16 1.2-0.22c0.32-0.07 0.96-0.21 1.4-0.32 0.45-0.11 1.03-0.26 1.3-0.33 0.27-0.08 0.78-0.23 1.14-0.35 0.36-0.11 0.99-0.32 1.4-0.46 0.4-0.15 0.98-0.36 1.29-0.48s0.85-0.34 1.21-0.49c0.35-0.16 0.98-0.43 1.39-0.62 0.41-0.18 1.24-0.58 1.86-0.89 0.61-0.31 1.47-0.75 1.92-0.99 0.44-0.24 1.19-0.66 1.66-0.93s1.38-0.8 2.02-1.19c0.64-0.38 1.67-1.01 2.29-1.4s1.57-0.99 2.12-1.34c0.54-0.35 1.61-1.03 2.37-1.51 0.76-0.49 1.74-1.11 2.19-1.39 0.44-0.27 1.1-0.68 1.46-0.91 0.36-0.22 0.96-0.59 1.34-0.81 0.38-0.23 1.1-0.65 1.6-0.94 0.5-0.28 1.26-0.71 1.7-0.95 0.43-0.23 1.1-0.58 1.48-0.78s1.04-0.52 1.48-0.73c0.43-0.2 1.1-0.51 1.49-0.69 0.39-0.17 0.96-0.41 1.26-0.53 0.29-0.12 0.82-0.33 1.17-0.46 0.35-0.14 1.02-0.37 1.48-0.53 0.46-0.15 1.14-0.36 1.5-0.47 0.36-0.1 0.95-0.26 1.31-0.35s0.91-0.22 1.21-0.28c0.31-0.07 1.25-0.26 2.1-0.44s1.56-0.32 1.58-0.32c0.01 0 0.02-6.16 0.02-13.68s-0.01-13.67-0.02-13.67-1.19 0.07-2.62 0.17c-1.42 0.09-2.82 0.19-3.11 0.22-0.29 0.02-0.76 0.08-1.06 0.11-0.3 0.04-0.77 0.11-1.06 0.16-0.29 0.04-0.72 0.12-0.97 0.16-0.25 0.05-0.71 0.14-1.01 0.21-0.31 0.06-0.83 0.19-1.16 0.27-0.34 0.08-0.85 0.22-1.15 0.3s-0.83 0.24-1.19 0.36c-0.37 0.11-0.95 0.3-1.3 0.43-0.35 0.12-0.86 0.31-1.14 0.42-0.28 0.1-0.86 0.34-1.29 0.52-0.44 0.18-1.09 0.46-1.45 0.62-0.36 0.17-1.24 0.59-1.96 0.95-0.71 0.35-1.59 0.81-1.95 1-0.36 0.2-0.97 0.54-1.36 0.77-0.39 0.22-1.08 0.63-1.54 0.9-0.45 0.27-1.19 0.72-1.63 1-0.44 0.27-1.17 0.74-1.62 1.03-0.46 0.3-2.5 1.65-4.55 3.01-2.04 1.36-4.07 2.7-4.5 2.98-0.43 0.27-1.07 0.67-1.41 0.88-0.35 0.22-0.97 0.59-1.38 0.84-0.42 0.24-1.06 0.6-1.42 0.8s-1.03 0.56-1.49 0.8c-0.47 0.23-1.19 0.58-1.6 0.77-0.42 0.19-1.03 0.45-1.37 0.59-0.33 0.13-0.86 0.33-1.17 0.44-0.32 0.12-0.8 0.28-1.08 0.37-0.28 0.08-0.76 0.22-1.08 0.3-0.31 0.08-0.83 0.2-1.15 0.27-0.32 0.06-0.84 0.15-1.16 0.2-0.32 0.04-0.78 0.1-1.03 0.12-0.29 0.03-0.93 0.05-1.77 0.04-0.98 0-1.46-0.01-1.92-0.06-0.33-0.03-0.87-0.09-1.21-0.14-0.33-0.04-0.88-0.14-1.21-0.2-0.33-0.07-0.86-0.18-1.16-0.26-0.31-0.07-0.85-0.22-1.21-0.33s-0.88-0.27-1.16-0.37c-0.28-0.09-0.8-0.28-1.15-0.42s-0.91-0.38-1.24-0.52c-0.33-0.15-0.97-0.45-1.41-0.67-0.45-0.22-1.05-0.53-1.35-0.69-0.29-0.16-0.8-0.44-1.13-0.63-0.32-0.19-0.88-0.52-1.25-0.74-0.36-0.22-1.03-0.63-1.49-0.92s-1.57-1.02-2.47-1.61c-0.9-0.6-2.46-1.64-3.47-2.32-1-0.68-2.34-1.57-2.97-1.98s-1.47-0.95-1.87-1.2-1.13-0.7-1.63-1-1.24-0.73-1.65-0.96-1.03-0.58-1.38-0.77-1.14-0.6-1.75-0.9c-0.61-0.31-1.44-0.71-1.83-0.9-0.4-0.18-1.01-0.45-1.35-0.59-0.34-0.15-0.96-0.41-1.38-0.57-0.41-0.17-1.1-0.43-1.53-0.59-0.42-0.15-1.13-0.39-1.56-0.53-0.44-0.15-1.18-0.37-1.65-0.51-0.47-0.13-1.12-0.31-1.44-0.39l-0.57-0.15v-10.37l0.51 0.13c0.28 0.07 0.72 0.19 0.97 0.27 0.25 0.07 0.68 0.21 0.95 0.3 0.28 0.1 0.77 0.27 1.08 0.39 0.32 0.12 0.82 0.33 1.11 0.45 0.3 0.13 0.79 0.34 1.1 0.48 0.3 0.14 0.94 0.46 1.42 0.71 0.49 0.24 1.2 0.62 1.59 0.84s1.05 0.61 1.46 0.86c0.42 0.25 1.06 0.64 1.43 0.88 0.37 0.23 0.99 0.63 1.38 0.89 0.39 0.25 1.11 0.73 1.6 1.07 0.49 0.33 1.75 1.2 2.81 1.94 1.05 0.73 2.34 1.63 2.86 1.98 0.51 0.36 1.48 1.01 2.13 1.45 0.66 0.44 1.45 0.96 1.77 1.16 0.31 0.2 0.84 0.53 1.18 0.74 0.33 0.21 0.91 0.56 1.29 0.78s0.95 0.55 1.26 0.73c0.32 0.17 0.96 0.52 1.42 0.76s1.18 0.6 1.58 0.79c0.41 0.19 0.99 0.46 1.29 0.59 0.31 0.14 0.86 0.36 1.23 0.51s1.01 0.39 1.41 0.53c0.41 0.15 1.08 0.37 1.48 0.49 0.41 0.13 1.12 0.32 1.58 0.44 0.47 0.12 1.16 0.27 1.54 0.35s0.92 0.17 1.21 0.22c0.28 0.05 0.75 0.11 1.04 0.15s0.78 0.09 1.09 0.12c0.32 0.03 0.89 0.07 1.28 0.09 0.43 0.02 1.18 0.03 1.93 0.02 0.68-0.01 1.51-0.05 1.86-0.08 0.34-0.02 0.93-0.09 1.31-0.13 0.38-0.05 0.95-0.13 1.26-0.19 0.32-0.05 0.84-0.15 1.16-0.22 0.32-0.06 0.97-0.21 1.43-0.33s1.09-0.29 1.4-0.38c0.3-0.1 0.73-0.23 0.96-0.31 0.22-0.07 0.64-0.21 0.94-0.32 0.29-0.11 0.87-0.33 1.27-0.49 0.41-0.16 0.98-0.4 1.27-0.52 0.28-0.12 0.83-0.37 1.21-0.55 0.38-0.17 0.98-0.46 1.33-0.64 0.35-0.17 0.89-0.45 1.21-0.62 0.31-0.17 0.81-0.43 1.09-0.59 0.29-0.16 0.87-0.49 1.3-0.73 0.43-0.25 1.11-0.65 1.53-0.9 0.41-0.25 1.15-0.7 1.64-1 0.49-0.31 1.37-0.86 1.94-1.23 0.57-0.36 1.97-1.26 3.1-1.99 1.12-0.73 2.41-1.56 2.86-1.85 0.45-0.28 1.1-0.69 1.44-0.9 0.35-0.22 1.07-0.66 1.6-0.98 0.53-0.31 1.29-0.76 1.7-1 0.41-0.23 1.06-0.6 1.46-0.81 0.4-0.22 1.22-0.65 1.83-0.96s1.49-0.73 1.96-0.94c0.46-0.21 1.15-0.51 1.52-0.66 0.38-0.16 0.99-0.4 1.35-0.54 0.36-0.13 1-0.36 1.41-0.5 0.42-0.14 1.07-0.33 1.44-0.44s1-0.27 1.41-0.37 1.01-0.23 1.34-0.3c0.34-0.07 0.81-0.15 1.05-0.19s1.32-0.19 2.4-0.34c1.08-0.14 2.02-0.27 2.08-0.28l0.11-0.02v-27.38zm-102.26 133.83c-4.71 0-7.41 1.74-8.88 3.2-1.69 1.74-2.61 3.98-2.61 6.36 0.05 6.27 6.37 8.15 10.58 9.66 4.66 1.69 6.81 2.93 6.81 4.85 0 1.6-0.96 2.74-2.24 3.34-1.65 0.78-3.34 0.23-4.9 0.14-1.51-0.1-2.79 0.96-2.79 2.88 0 2.33 3.21 3.25 5.59 3.25 7.27 0 10.43-4.71 10.43-9.25 0-5.62-5.17-8.09-11.03-10.34-4.76-1.83-6.36-3.06-6.36-4.53 0-2.24 2.15-3.84 5.22-3.84 3.52 0 5.44 1.92 6.27 2.65 1.14 1.01 2.79 1.15 3.89-0.23 0.82-1.05 0.96-2.51 0.13-3.61-1.19-1.69-4.76-4.53-10.11-4.53zm55.96 0c-1.65 0-3.02 1.37-3.02 3.02 0 1.69 1.37 3.07 3.02 3.07 1.69 0 3.07-1.38 3.07-3.07 0-1.65-1.38-3.02-3.07-3.02zm129.22 0c-4.71 0-7.41 1.74-8.87 3.2-1.7 1.74-2.61 3.98-2.61 6.36 0.04 6.27 6.36 8.15 10.57 9.66 4.67 1.69 6.82 2.93 6.82 4.85 0 1.6-0.96 2.74-2.25 3.34-1.64 0.78-3.33 0.23-4.89 0.14-1.51-0.1-2.79 0.96-2.79 2.88 0 2.33 3.2 3.25 5.58 3.25 7.28 0 10.43-4.71 10.43-9.25 0-5.62-5.17-8.09-11.02-10.34-4.76-1.83-6.36-3.06-6.36-4.53 0-2.24 2.15-3.84 5.21-3.84 3.52 0 5.45 1.92 6.27 2.65 1.14 1.01 2.79 1.15 3.89-0.23 0.82-1.05 0.96-2.51 0.14-3.61-1.19-1.69-4.76-4.53-10.12-4.53zm21.91 0c-1.64 0-3.02 1.37-3.02 3.02 0 1.69 1.38 3.07 3.02 3.07 1.7 0 3.07-1.38 3.07-3.07 0-1.65-1.37-3.02-3.07-3.02zm39.86 0c-1.64 0-3.02 1.37-3.02 3.02 0 1.69 1.38 3.07 3.02 3.07 1.7 0 3.07-1.38 3.07-3.07 0-1.65-1.37-3.02-3.07-3.02zm90.09 0c-9.29 0-16.84 7.5-16.84 16.84 0 6.77 4.03 12.58 9.84 15.28 2.33 1.05 4.67 1.56 7 1.56 2.84 0 3.84-1.37 3.84-2.88 0-1.42-0.91-2.52-3.11-2.75-2.24-0.23-4.07-0.73-5.81-1.74-3.43-1.87-5.67-5.35-5.67-9.47 0-5.95 4.8-10.75 10.75-10.75 2.88 0 5.22 0.91 7.05 1.96 1.69 0.92 3.38 0.87 4.21-0.36 0.96-1.38 0.87-3.21-0.41-4.26-3.48-2.84-7.78-3.43-10.85-3.43zm-47.33 0.82c-0.51-0.01-0.99 0.13-1.42 0.37-1.46 0.78-1.6 2.15-1.6 3.29v25.36c0 1.64 1.37 3.01 3.02 3.01 1.69 0 3.06-1.37 3.06-3.01v-18.13l15.88 19.45c0.51 0.6 0.87 1.01 1.56 1.37 1.28 0.65 2.42 0.23 3.16-0.32 0.91-0.77 1.14-1.69 1.14-2.74v-16.57c0-1.64-1.37-3.02-3.07-3.02-1.64 0-3.02 1.38-3.02 3.07v9.06l-16.06-19.72c-0.88-1.03-1.81-1.46-2.65-1.47zm-478.02 0c-1.64 0-3.02 1.38-3.02 3.02v26c0 1.64 1.38 3.01 3.02 3.01h6.45c1.7 0 3.02-1.37 3.02-3.01 0-1.7-1.32-3.07-3.02-3.07h-3.38v-22.93c0-1.64-1.37-3.02-3.07-3.02zm25.96 0c-1.65 0-3.02 1.38-3.02 3.02v26c0 1.64 1.37 3.01 3.02 3.01h15.56c1.69 0 3.02-1.37 3.02-3.01 0-1.7-1.33-3.07-3.02-3.07h-12.49v-7.05h10.61c1.7 0 3.02-1.23 3.02-2.88 0-1.69-1.32-2.93-3.02-2.93h-10.61v-7h3.24c1.65 0 3.03-1.37 3.03-3.07 0-1.64-1.38-3.02-3.03-3.02h-6.31zm15.42 0c-1.69 0-3.07 1.38-3.07 3.02 0 1.7 1.38 3.07 3.07 3.07 1.65 0 3.02-1.37 3.02-3.07 0-1.64-1.37-3.02-3.02-3.02zm22.45 0c-1.19 0-2.24 0.69-2.75 1.74l-12.35 25.95c-0.69 1.51-0.05 3.34 1.46 4.07 1.51 0.69 3.3 0.05 4.03-1.46l2.88-6.04h15.38c1.05 0 1.97-0.55 2.51-1.38 1.06-1.55 0.23-2.88-0.27-3.93l-8.15-17.21c-0.5-1.05-1.6-1.74-2.74-1.74zm23.62 0c-1.65 0-3.02 1.38-3.02 3.02v26c0 1.64 1.37 3.01 3.02 3.01 1.69 0 3.07-1.37 3.07-3.01v-23.16h5.3c6.87 0 10.39 3.52 10.39 10.16 0 2.65-0.78 4.99-2.15 6.68l-1.05 1.19c-1.28 1.28-1.24 3.02-0.32 4.12 1.1 1.28 3.02 1.42 4.3 0.36 3.38-2.88 5.26-7.55 5.26-12.35 0-9.93-6.27-16.02-16.43-16.02h-8.37zm33.52 0c-1.65 0-3.02 1.38-3.02 3.02v26c0 1.64 1.37 3.01 3.02 3.01h15.55c1.7 0 3.02-1.37 3.02-3.01 0-1.7-1.32-3.07-3.02-3.07h-12.49v-7.05h10.62c1.69 0 3.02-1.23 3.02-2.88 0-1.69-1.33-2.93-3.02-2.93h-10.62v-7h3.25c1.65 0 3.02-1.37 3.02-3.07 0-1.64-1.37-3.02-3.02-3.02h-6.31zm15.42 0c-1.7 0-3.07 1.38-3.07 3.02 0 1.7 1.37 3.07 3.07 3.07 1.64 0 3.02-1.37 3.02-3.07 0-1.64-1.38-3.02-3.02-3.02zm13 0c-1.65 0-3.02 1.38-3.02 3.02v26c0 1.64 1.37 3.01 3.02 3.01 1.69 0 3.06-1.37 3.06-3.01v-8.24h6.64l1.37 2.19c0.87 1.42 2.75 1.84 4.17 0.92 2.79-1.78 0.54-4.71 0.54-4.71 3.16-1.79 4.85-5.04 4.85-8.97 0-6.23-4.25-10.21-10.79-10.21h-9.84zm61.22 0c-1.65 0-3.02 1.38-3.02 3.02v26c0 1.64 1.37 3.01 3.02 3.01 1.69 0 3.06-1.37 3.06-3.01v-9.75h13.18v9.75c0 1.64 1.38 3.01 3.07 3.01 1.65 0 3.02-1.37 3.02-3.01v-16.89c0-1.65-1.37-3.02-3.02-3.02-1.69 0-3.07 1.37-3.07 3.02v1.42h-13.18v-10.53c0-1.64-1.37-3.02-3.06-3.02zm19.31 0c-1.69 0-3.07 1.38-3.07 3.02 0 1.7 1.38 3.07 3.07 3.07 1.65 0 3.02-1.37 3.02-3.07 0-1.64-1.37-3.02-3.02-3.02zm28.68 0c-1.65 0-3.02 1.38-3.02 3.02v26c0 1.64 1.37 3.01 3.02 3.01 1.7 0 3.07-1.37 3.07-3.01v-22.93h8.51c3.66 0 3.94 3.75 3.94 4.94 0 0.96-0.37 2.01-0.92 2.93-0.87 1.42-0.46 3.3 1.01 4.16 1.42 0.92 3.29 0.46 4.16-0.96 1.15-1.87 1.79-4.07 1.79-6.13 0-5.31-3.12-11.03-9.98-11.03h-11.58zm48.49 0c-1.64 0-3.02 1.38-3.02 3.02v26c0 1.64 1.38 3.01 3.02 3.01 1.7 0 3.07-1.37 3.07-3.01v-8.24h6.64l1.37 2.19c0.87 1.42 2.74 1.84 4.16 0.92 2.79-1.78 0.55-4.71 0.55-4.71 3.16-1.79 4.85-5.04 4.85-8.97 0-6.23-4.25-10.21-10.8-10.21h-9.84zm30.79 0c-1.65 0-3.02 1.38-3.02 3.02v26c0 1.64 1.37 3.01 3.02 3.01h15.56c1.69 0 3.02-1.37 3.02-3.01 0-1.7-1.33-3.07-3.02-3.07h-12.5v-7.05h10.62c1.69 0 3.02-1.23 3.02-2.88 0-1.69-1.33-2.93-3.02-2.93h-10.62v-7h3.25c1.65 0 3.02-1.37 3.02-3.07 0-1.64-1.37-3.02-3.02-3.02h-6.31zm15.42 0c-1.69 0-3.07 1.38-3.07 3.02 0 1.7 1.38 3.07 3.07 3.07 1.65 0 3.02-1.37 3.02-3.07 0-1.64-1.37-3.02-3.02-3.02zm56.44 0c-1.65 0-3.02 1.38-3.02 3.02v26c0 1.64 1.37 3.01 3.02 3.01h6.45c1.69 0 3.02-1.37 3.02-3.01 0-1.7-1.33-3.07-3.02-3.07h-3.39v-22.93c0-1.64-1.37-3.02-3.06-3.02zm39.86 0c-1.65 0-3.02 1.38-3.02 3.02v26c0 1.64 1.37 3.01 3.02 3.01h15.55c1.7 0 3.03-1.37 3.03-3.01 0-1.7-1.33-3.07-3.03-3.07h-12.49v-7.05h10.62c1.69 0 3.02-1.23 3.02-2.88 0-1.69-1.33-2.93-3.02-2.93h-10.62v-7h3.25c1.65 0 3.02-1.37 3.02-3.07 0-1.64-1.37-3.02-3.02-3.02h-6.31zm15.42 0c-1.7 0-3.07 1.38-3.07 3.02 0 1.7 1.37 3.07 3.07 3.07 1.65 0 3.02-1.37 3.02-3.07 0-1.64-1.37-3.02-3.02-3.02zm34.78 0c-1.69 0-3.07 1.33-3.07 3.02 0 1.7 1.38 3.02 3.07 3.02 1.65 0 3.02-1.32 3.02-3.02 0-1.69-1.37-3.02-3.02-3.02zm46.68 0c-1.65 0-3.02 1.38-3.02 3.02v26c0 1.64 1.37 3.01 3.02 3.01h15.56c1.69 0 3.02-1.37 3.02-3.01 0-1.7-1.33-3.07-3.02-3.07h-12.49v-7.05h10.61c1.7 0 3.02-1.23 3.02-2.88 0-1.69-1.32-2.93-3.02-2.93h-10.61v-7h3.25c1.64 0 3.01-1.37 3.01-3.07 0-1.64-1.37-3.02-3.01-3.02h-6.32zm15.42 0c-1.69 0-3.07 1.38-3.07 3.02 0 1.7 1.38 3.07 3.07 3.07 1.65 0 3.02-1.37 3.02-3.07 0-1.64-1.37-3.02-3.02-3.02zm-409.45 5.91h6.78c3.15 0 4.71 1.87 4.71 4.66 0 2.57-1.24 4.95-4.85 4.95h-6.64v-9.61zm157.71 0h6.77c3.16 0 4.71 1.87 4.71 4.66 0 2.57-1.23 4.95-4.84 4.95h-6.64v-9.61zm-65.89 2.37c-1.65 0-3.02 1.38-3.02 3.03v17.71c0 1.64 1.37 3.01 3.02 3.01 1.69 0 3.07-1.37 3.07-3.01v-17.71c0-1.65-1.38-3.03-3.07-3.03zm151.13 0c-1.64 0-3.02 1.38-3.02 3.03v17.71c0 1.64 1.38 3.01 3.02 3.01 1.7 0 3.07-1.37 3.07-3.01v-17.71c0-1.65-1.37-3.03-3.07-3.03zm39.86 0c-1.64 0-3.02 1.38-3.02 3.03v17.71c0 1.64 1.38 3.01 3.02 3.01 1.7 0 3.07-1.37 3.07-3.01v-17.71c0-1.65-1.37-3.03-3.07-3.03zm-371.43 1.79l4.3 8.97h-8.56l4.26-8.97zm203.88 5.81c-1.65 0-3.02 1.37-3.02 3.02 0 1.7 1.37 3.07 3.02 3.07 1.69 0 3.02-1.37 3.02-3.07 0-1.65-1.33-3.02-3.02-3.02zm-88.41 6.68c-1.65 0-3.02 1.33-3.02 3.02s1.37 3.02 3.02 3.02c1.69 0 3.06-1.33 3.06-3.02s-1.37-3.02-3.06-3.02zm185.18 0c-1.65 0-3.02 1.33-3.02 3.02s1.37 3.02 3.02 3.02c1.69 0 3.07-1.33 3.07-3.02s-1.38-3.02-3.07-3.02zm170.21 1.19c-1.65 0-3.03 1.38-3.03 3.02 0 1.7 1.38 3.07 3.03 3.07 1.69 0 3.06-1.37 3.06-3.07 0-1.64-1.37-3.02-3.06-3.02zm-366.72 2.15c-1.65 0-3.02 1.38-3.02 3.07 0 1.65 1.37 3.02 3.02 3.02 1.69 0 3.01-1.37 3.01-3.02 0-1.69-1.32-3.07-3.01-3.07zm157.7 0c-1.64 0-3.02 1.38-3.02 3.07 0 1.65 1.38 3.02 3.02 3.02 1.7 0 3.02-1.37 3.02-3.02 0-1.69-1.32-3.07-3.02-3.07zm-310.11 0.05c-1.69 0-3.02 1.37-3.02 3.07 0 1.64 1.33 3.01 3.02 3.01s3.02-1.37 3.02-3.01c0-1.7-1.33-3.07-3.02-3.07zm60.58 0c-1.65 0-3.02 1.37-3.02 3.07 0 1.64 1.37 3.01 3.02 3.01 1.69 0 3.06-1.37 3.06-3.01 0-1.7-1.37-3.07-3.06-3.07zm20.42 0c-1.65 0-3.02 1.37-3.02 3.07 0 1.64 1.37 3.01 3.02 3.01 1.69 0 3.06-1.37 3.06-3.01 0-1.7-1.37-3.07-3.06-3.07zm328.74 0c-1.7 0-3.03 1.37-3.03 3.07 0 1.64 1.33 3.01 3.03 3.01 1.69 0 3.01-1.37 3.01-3.01 0-1.7-1.32-3.07-3.01-3.07zm-215.32 10.28c-1.64 0-3.02 1.37-3.02 3.06 0 1.65 1.38 3.02 3.02 3.02 1.7 0 3.07-1.37 3.07-3.02 0-1.69-1.37-3.06-3.07-3.06zm23.36 0.82c-0.3 0-0.6 0.04-0.9 0.14-1.56 0.5-2.48 2.19-1.97 3.8l8.14 25.94c0.37 1.24 1.47 2.11 2.75 2.15h0.14c1.23 0 2.33-0.78 2.79-1.92l7.64-19.4 7.64 19.4c0.46 1.19 1.65 1.97 2.93 1.92 1.28-0.04 2.38-0.91 2.79-2.15l5.4-17.25c0.51-1.6-0.41-3.29-1.97-3.8-1.6-0.5-3.34 0.37-3.84 1.97l-2.84 10.07-7.27-18.95c-0.46-1.14-1.6-1.92-2.84-1.92s-2.34 0.78-2.79 1.92l-7.28 18.95-5.58-18.72c-0.41-1.3-1.63-2.15-2.94-2.15zm181.35 0c-0.51-0.01-0.99 0.13-1.42 0.37-1.46 0.77-1.6 2.15-1.6 3.29v25.35c0 1.65 1.37 3.02 3.02 3.02 1.69 0 3.07-1.37 3.07-3.02v-18.12l15.88 19.45c0.5 0.59 0.86 1.01 1.55 1.37 1.28 0.64 2.43 0.23 3.16-0.32 0.91-0.78 1.14-1.69 1.14-2.74v-16.57c0-1.65-1.37-3.02-3.06-3.02-1.65 0-3.02 1.37-3.02 3.07v9.06l-16.07-19.72c-0.88-1.03-1.81-1.46-2.65-1.47zm-319.02 0c-1.65 0-3.02 1.37-3.02 3.02v25.99c0 1.65 1.37 3.02 3.02 3.02h15.56c1.69 0 3.02-1.37 3.02-3.02 0-1.69-1.33-3.06-3.02-3.06h-12.49v-7.05h10.61c1.7 0 3.02-1.24 3.02-2.88 0-1.7-1.32-2.93-3.02-2.93h-10.61v-7h3.25c1.64 0 3.02-1.38 3.02-3.07 0-1.65-1.38-3.02-3.02-3.02h-6.32zm15.42 0c-1.69 0-3.06 1.37-3.06 3.02 0 1.69 1.37 3.07 3.06 3.07 1.65 0 3.02-1.38 3.02-3.07 0-1.65-1.37-3.02-3.02-3.02zm57.1 0c-1.64 0-3.02 1.37-3.02 3.02v25.99c0 1.65 1.38 3.02 3.02 3.02 1.7 0 3.07-1.37 3.07-3.02v-22.92h8.51c3.66 0 3.94 3.75 3.94 4.94 0 0.96-0.37 2.01-0.92 2.93-0.87 1.42-0.46 3.29 1.01 4.16 1.42 0.92 3.29 0.46 4.16-0.96 1.15-1.88 1.79-4.07 1.79-6.13 0-5.31-3.11-11.03-9.98-11.03h-11.58zm102.32 0c-1.69 0-3.02 1.37-3.02 3.02 0 1.69 1.33 3.07 3.02 3.07s3.02-1.38 3.02-3.07c0-1.65-1.33-3.02-3.02-3.02zm11.99 0c-1.64 0-3.02 1.37-3.02 3.02v25.99c0 1.65 1.38 3.02 3.02 3.02h15.56c1.7 0 3.02-1.37 3.02-3.02 0-1.69-1.32-3.06-3.02-3.06h-12.49v-7.05h10.62c1.69 0 3.02-1.24 3.02-2.88 0-1.7-1.33-2.93-3.02-2.93h-10.62v-7h3.25c1.65 0 3.02-1.38 3.02-3.07 0-1.65-1.37-3.02-3.02-3.02h-6.32zm15.43 0c-1.7 0-3.07 1.37-3.07 3.02 0 1.69 1.37 3.07 3.07 3.07 1.64 0 3.02-1.38 3.02-3.07 0-1.65-1.38-3.02-3.02-3.02zm13 0c-1.65 0-3.03 1.37-3.03 3.02v25.99c0 1.65 1.38 3.02 3.03 3.02 1.69 0 3.06-1.37 3.06-3.02v-8.23h6.64l1.37 2.19c0.87 1.42 2.75 1.83 4.16 0.92 2.8-1.79 0.55-4.72 0.55-4.72 3.16-1.78 4.85-5.03 4.85-8.97 0-6.22-4.25-10.2-10.8-10.2h-9.83zm75.34 0c-1.65 0-3.02 1.37-3.02 3.02v25.99c0 1.65 1.37 3.02 3.02 3.02h15.56c1.69 0 3.02-1.37 3.02-3.02 0-1.69-1.33-3.06-3.02-3.06h-12.5v-7.05h10.62c1.69 0 3.02-1.24 3.02-2.88 0-1.7-1.33-2.93-3.02-2.93h-10.62v-7h3.25c1.65 0 3.02-1.38 3.02-3.07 0-1.65-1.37-3.02-3.02-3.02h-6.31zm15.42 0c-1.69 0-3.07 1.37-3.07 3.02 0 1.69 1.38 3.07 3.07 3.07 1.65 0 3.02-1.38 3.02-3.07 0-1.65-1.37-3.02-3.02-3.02zm34.78 0c-1.69 0-3.06 1.33-3.06 3.02s1.37 3.02 3.06 3.02c1.65 0 3.02-1.33 3.02-3.02s-1.37-3.02-3.02-3.02zm10.59 0c-1.65 0-3.02 1.37-3.02 3.02 0 1.69 1.37 3.07 3.02 3.07h6.63v22.92c0 1.65 1.33 3.02 3.02 3.02 1.7 0 3.02-1.37 3.02-3.02v-25.99c0-1.65-1.19-3.02-3.02-3.02h-9.65zm19.31 0c-1.69 0-3.07 1.37-3.07 3.02 0 1.69 1.38 3.07 3.07 3.07 1.65 0 3.02-1.38 3.02-3.07 0-1.65-1.37-3.02-3.02-3.02zm-341.78 0.01c-0.17 0.02-0.34 0.04-0.5 0.08-1.38 0.37-2.29 1.56-2.29 2.93v25.99c0 1.65 1.37 3.02 3.02 3.02 1.69 0 3.06-1.37 3.06-3.02v-15.51l8.52 16.93c0.54 1.01 1.55 1.6 2.65 1.6s2.1-0.59 2.65-1.55l8.93-17.25v6.67c0 1.65 1.37 3.03 3.02 3.03 1.69 0 3.06-1.38 3.06-3.03v-16.88c0-1.37-0.96-2.56-2.29-2.93-1.32-0.32-2.74 0.28-3.38 1.47l-11.94 22.1-11.63-22.06c-0.56-1.08-1.71-1.67-2.88-1.59zm218.07 0c-0.17 0.02-0.33 0.04-0.5 0.08-1.37 0.37-2.29 1.56-2.29 2.93v25.99c0 1.65 1.38 3.02 3.02 3.02 1.7 0 3.07-1.37 3.07-3.02v-15.51l8.51 16.93c0.55 1.01 1.56 1.6 2.66 1.6 1.09 0 2.1-0.59 2.65-1.55l8.92-17.25v6.67c0 1.65 1.37 3.03 3.02 3.03 1.69 0 3.07-1.38 3.07-3.03v-16.88c0-1.37-0.96-2.56-2.29-2.93-1.33-0.32-2.75 0.28-3.39 1.47l-11.94 22.1-11.62-22.06c-0.56-1.08-1.72-1.67-2.89-1.59zm-141.1 2.11c-0.67-0.02-1.36 0.19-1.92 0.63-4.12 3.25-6.5 8-6.5 13.22 0 9.34 7.56 16.89 16.84 16.89 9.29 0 16.89-7.55 16.89-16.89 0-5.22-2.38-9.97-6.5-13.22-1.33-1.01-3.25-0.78-4.25 0.55-1.06 1.28-0.83 3.2 0.5 4.25 2.65 2.06 4.16 5.08 4.16 8.42 0 5.95-4.85 10.8-10.8 10.8-5.94 0-10.75-4.85-10.75-10.8 0-3.34 1.51-6.36 4.12-8.42 1.33-1.05 1.56-2.97 0.55-4.25-0.59-0.75-1.46-1.15-2.34-1.18zm112.43 3.78h6.77c3.16 0 4.72 1.88 4.72 4.67 0 2.56-1.24 4.94-4.85 4.94h-6.64v-9.61zm-136.69 9.98c-1.65 0-3.02 1.37-3.02 3.02 0 1.69 1.37 3.07 3.02 3.07 1.69 0 3.02-1.38 3.02-3.07 0-1.65-1.33-3.02-3.02-3.02zm152.2 10.02c-1.64 0-3.02 1.37-3.02 3.07 0 1.64 1.38 3.02 3.02 3.02 1.7 0 3.02-1.38 3.02-3.02 0-1.7-1.32-3.07-3.02-3.07zm-175.85 0.05c-1.65 0-3.02 1.37-3.02 3.06 0 1.65 1.37 3.02 3.02 3.02 1.69 0 3.06-1.37 3.06-3.02 0-1.69-1.37-3.06-3.06-3.06zm218.07 0c-1.65 0-3.02 1.37-3.02 3.06 0 1.65 1.37 3.02 3.02 3.02 1.69 0 3.07-1.37 3.07-3.02 0-1.69-1.38-3.06-3.07-3.06z" fill="none" stroke="#1d3b5d" stroke-width="4" stroke-linejoin="round" stroke-linecap="round" />

<g id="logo-fade">

 
 <g id="logo-group" transform="translate(-2.8422e-14 5.6843e-14) scale(1)">
  <path id="path268127" style="font-variant-ligatures:none" d="m240.45 446.52c0-1.6931-1.327-3.0659-3.0202-3.0659h-3.3862v-22.926c0-1.6474-1.3728-3.0202-3.0659-3.0202-1.6474 0-3.0202 1.3728-3.0202 3.0202v25.992c0 1.6474 1.3728 3.0202 3.0202 3.0202h6.4522c1.6931 0 3.0202-1.3728 3.0202-3.0202zm3.0659 0c0 1.6474 1.327 3.0202 3.0202 3.0202 1.6931 0 3.0202-1.3728 3.0202-3.0202 0-1.6931-1.327-3.0659-3.0202-3.0659-1.6931 0-3.0202 1.3728-3.0202 3.0659z" stroke-miterlimit="2" stroke-width="0" fill="#1d3b5d"/>
  <path id="path268129" style="font-variant-ligatures:none" d="m256.94 449.54h15.558c1.6931 0 3.0202-1.3728 3.0202-3.0202 0-1.6931-1.327-3.0659-3.0202-3.0659h-12.492v-7.047h10.616c1.6931 0 3.0202-1.2355 3.0202-2.8829 0-1.6931-1.327-2.9286-3.0202-2.9286h-10.616v-7.0013h3.249c1.6474 0 3.0202-1.3728 3.0202-3.0659 0-1.6474-1.3728-3.0202-3.0202-3.0202h-6.3149c-1.6474 0-3.0202 1.3728-3.0202 3.0202v25.992c0 1.6474 1.3728 3.0202 3.0202 3.0202zm12.355-29.012c0 1.6931 1.3728 3.0659 3.0659 3.0659 1.6474 0 3.0202-1.3728 3.0202-3.0659 0-1.6474-1.3728-3.0202-3.0202-3.0202-1.6931 0-3.0659 1.3728-3.0659 3.0202z" stroke-miterlimit="2" stroke-width="0" fill="#1d3b5d"/>
  <path id="path268131" style="font-variant-ligatures:none" d="m281.17 449.27c1.5101 0.6864 3.2947 0.0458 4.0269-1.4643l2.8829-6.0403h15.375c1.0525 0 1.9677-0.54912 2.5168-1.3728 1.0525-1.5558 0.2288-2.8829-0.27456-3.9354l-8.1453-17.206c-0.50336-1.0525-1.6016-1.7389-2.7456-1.7389-1.1898 0-2.2422 0.6864-2.7456 1.7389l-12.355 25.946c-0.6864 1.5101-0.0458 3.3405 1.4643 4.0726zm9.3808-12.721 4.2557-8.969 4.3014 8.969zm13.545 9.9757c0 1.6474 1.3728 3.0202 3.0202 3.0202 1.6931 0 3.0659-1.3728 3.0659-3.0202 0-1.6931-1.3728-3.0659-3.0659-3.0659-1.6474 0-3.0202 1.3728-3.0202 3.0659z" stroke-miterlimit="2" stroke-width="0" fill="#1d3b5d"/>
  <path id="path268133" style="font-variant-ligatures:none" d="m343.23 433.53c0-9.9299-6.2691-16.016-16.428-16.016h-8.3741c-1.6474 0-3.0202 1.3728-3.0202 3.0202v25.992c0 1.6474 1.3728 3.0202 3.0202 3.0202 1.6931 0 3.0659-1.3728 3.0659-3.0202v-23.155h5.3082c6.864 0 10.388 3.5235 10.388 10.159 0 2.6541-0.77792 4.9878-2.1507 6.681l-1.0525 1.1898c-1.2813 1.2813-1.2355 3.0202-0.32032 4.1184 1.0982 1.2813 3.0202 1.4186 4.3014 0.36608 3.3862-2.8829 5.2624-7.5504 5.2624-12.355zm-18.716 12.996c0 1.6474 1.3728 3.0202 3.0202 3.0202 1.6931 0 3.0659-1.3728 3.0659-3.0202 0-1.6931-1.3728-3.0659-3.0659-3.0659-1.6474 0-3.0202 1.3728-3.0202 3.0659z" stroke-miterlimit="2" stroke-width="0" fill="#1d3b5d"/>
  <path id="path268135" style="font-variant-ligatures:none" d="m351.95 449.54h15.558c1.6931 0 3.0202-1.3728 3.0202-3.0202 0-1.6931-1.327-3.0659-3.0202-3.0659h-12.492v-7.047h10.616c1.6931 0 3.0202-1.2355 3.0202-2.8829 0-1.6931-1.327-2.9286-3.0202-2.9286h-10.616v-7.0013h3.249c1.6474 0 3.0202-1.3728 3.0202-3.0659 0-1.6474-1.3728-3.0202-3.0202-3.0202h-6.3149c-1.6474 0-3.0202 1.3728-3.0202 3.0202v25.992c0 1.6474 1.3728 3.0202 3.0202 3.0202zm12.355-29.012c0 1.6931 1.3728 3.0659 3.0659 3.0659 1.6474 0 3.0202-1.3728 3.0202-3.0659 0-1.6474-1.3728-3.0202-3.0202-3.0202-1.6931 0-3.0659 1.3728-3.0659 3.0202z" stroke-miterlimit="2" stroke-width="0" fill="#1d3b5d"/>
  <path id="path268137" style="font-variant-ligatures:none" d="m401 427.72c0-6.2234-4.2557-10.204-10.799-10.204h-9.8384c-1.6474 0-3.0202 1.3728-3.0202 3.0202v25.992c0 1.6474 1.3728 3.0202 3.0202 3.0202 1.6931 0 3.0659-1.3728 3.0659-3.0202v-8.2368h6.6352l1.3728 2.1965c0.86944 1.4186 2.7456 1.8304 4.1642 0.9152 2.7914-1.7846 0.54912-4.7133 0.54912-4.7133 3.1574-1.7846 4.8506-5.0336 4.8506-8.969zm-17.572 5.3082v-9.6096h6.7725c3.1574 0 4.7133 1.8762 4.7133 4.6675 0 2.5626-1.2355 4.9421-4.8506 4.9421zm12.492 13.453c0 1.6474 1.3728 3.0202 3.0202 3.0202 1.6931 0 3.0202-1.3728 3.0202-3.0202 0-1.6931-1.327-3.0659-3.0202-3.0659-1.6474 0-3.0202 1.3728-3.0202 3.0659z" stroke-miterlimit="2" stroke-width="0" fill="#1d3b5d"/>
  <path id="path268139" style="font-variant-ligatures:none" d="m431.28 441.12c0-5.6285-5.1709-8.0995-11.028-10.342-4.759-1.8304-6.3606-3.0659-6.3606-4.5302 0-2.2422 2.1507-3.8438 5.2166-3.8438 3.5235 0 5.4454 1.9219 6.2691 2.6541 1.144 1.0067 2.7914 1.144 3.8896-0.2288 0.82368-1.0525 0.96096-2.5168 0.13728-3.615-1.1898-1.6931-4.759-4.5302-10.113-4.5302-4.7133 0-7.4131 1.7389-8.8774 3.2032-1.6931 1.7389-2.6083 3.9811-2.6083 6.3606 0.0458 6.2691 6.3606 8.1453 10.571 9.6554 4.6675 1.6931 6.8182 2.9286 6.8182 4.8506 0 1.6016-0.96096 2.7456-2.2422 3.3405-1.6474 0.77792-3.3405 0.2288-4.8963 0.13728-1.5101-0.0915-2.7914 0.96096-2.7914 2.8829 0 2.3338 3.2032 3.249 5.5827 3.249 7.2758 0 10.433-4.7133 10.433-9.2435zm-24.024 1.9677c0 1.6931 1.3728 3.0202 3.0202 3.0202 1.6931 0 3.0659-1.327 3.0659-3.0202 0-1.6931-1.3728-3.0202-3.0659-3.0202-1.6474 0-3.0202 1.327-3.0202 3.0202z" stroke-miterlimit="2" stroke-width="0" fill="#1d3b5d"/>
  <path id="path268141" style="font-variant-ligatures:none" d="m438.57 420.53v25.992c0 1.6474 1.3728 3.0202 3.0202 3.0202 1.6931 0 3.0659-1.3728 3.0659-3.0202v-9.7469h13.179v9.7469c0 1.6474 1.3728 3.0202 3.0659 3.0202 1.6474 0 3.0202-1.3728 3.0202-3.0202v-16.885c0-1.6474-1.3728-3.0202-3.0202-3.0202-1.6931 0-3.0659 1.3728-3.0659 3.0202v1.4186h-13.179v-10.525c0-1.6474-1.3728-3.0202-3.0659-3.0202-1.6474 0-3.0202 1.3728-3.0202 3.0202zm19.265 0c0 1.6931 1.3728 3.0659 3.0659 3.0659 1.6474 0 3.0202-1.3728 3.0202-3.0659 0-1.6474-1.3728-3.0202-3.0202-3.0202-1.6931 0-3.0659 1.3728-3.0659 3.0202z" stroke-miterlimit="2" stroke-width="0" fill="#1d3b5d"/>
  <path id="path268143" style="font-variant-ligatures:none" d="m475.25 422.78c1.6931 0 3.0659-1.3728 3.0659-3.0659 0-1.6474-1.3728-3.0202-3.0659-3.0202-1.6474 0-3.0202 1.3728-3.0202 3.0202 0 1.6931 1.3728 3.0659 3.0202 3.0659zm-3.0202 23.749c0 1.6474 1.3728 3.0202 3.0202 3.0202 1.6931 0 3.0659-1.3728 3.0659-3.0202v-17.709c0-1.6474-1.3728-3.0202-3.0659-3.0202-1.6474 0-3.0202 1.3728-3.0202 3.0202z" stroke-miterlimit="2" stroke-width="0" fill="#1d3b5d"/>
  <path id="path268145" style="font-variant-ligatures:none" d="m511.14 428.54c0-5.3082-3.1117-11.028-9.9757-11.028h-11.577c-1.6474 0-3.0202 1.3728-3.0202 3.0202v25.992c0 1.6474 1.3728 3.0202 3.0202 3.0202 1.6931 0 3.0659-1.3728 3.0659-3.0202v-22.926h8.5114c3.6608 0 3.9354 3.7523 3.9354 4.9421 0 0.96096-0.36608 2.0134-0.9152 2.9286-0.86944 1.4186-0.4576 3.2947 1.0067 4.1642 1.4186 0.9152 3.2947 0.4576 4.1642-0.96096 1.144-1.8762 1.7846-4.0726 1.7846-6.1318zm-15.467 7.8707c0 1.6931 1.3728 3.0659 3.0202 3.0659 1.6931 0 3.0202-1.3728 3.0202-3.0659 0-1.6474-1.327-3.0202-3.0202-3.0202-1.6474 0-3.0202 1.3728-3.0202 3.0202z" stroke-miterlimit="2" stroke-width="0" fill="#1d3b5d"/>
  <path id="path268147" style="font-variant-ligatures:none" d="m558.71 427.72c0-6.2234-4.2557-10.204-10.799-10.204h-9.8384c-1.6474 0-3.0202 1.3728-3.0202 3.0202v25.992c0 1.6474 1.3728 3.0202 3.0202 3.0202 1.6931 0 3.0659-1.3728 3.0659-3.0202v-8.2368h6.6352l1.3728 2.1965c0.86944 1.4186 2.7456 1.8304 4.1642 0.9152 2.7914-1.7846 0.54912-4.7133 0.54912-4.7133 3.1574-1.7846 4.8506-5.0336 4.8506-8.969zm-17.572 5.3082v-9.6096h6.7725c3.1574 0 4.7133 1.8762 4.7133 4.6675 0 2.5626-1.2355 4.9421-4.8506 4.9421zm12.492 13.453c0 1.6474 1.3728 3.0202 3.0202 3.0202 1.6931 0 3.0202-1.3728 3.0202-3.0202 0-1.6931-1.327-3.0659-3.0202-3.0659-1.6474 0-3.0202 1.3728-3.0202 3.0659z" stroke-miterlimit="2" stroke-width="0" fill="#1d3b5d"/>
  <path id="path268149" style="font-variant-ligatures:none" d="m568.86 449.54h15.558c1.6931 0 3.0202-1.3728 3.0202-3.0202 0-1.6931-1.327-3.0659-3.0202-3.0659h-12.492v-7.047h10.616c1.6931 0 3.0202-1.2355 3.0202-2.8829 0-1.6931-1.327-2.9286-3.0202-2.9286h-10.616v-7.0013h3.249c1.6474 0 3.0202-1.3728 3.0202-3.0659 0-1.6474-1.3728-3.0202-3.0202-3.0202h-6.3149c-1.6474 0-3.0202 1.3728-3.0202 3.0202v25.992c0 1.6474 1.3728 3.0202 3.0202 3.0202zm12.355-29.012c0 1.6931 1.3728 3.0659 3.0659 3.0659 1.6474 0 3.0202-1.3728 3.0202-3.0659 0-1.6474-1.3728-3.0202-3.0202-3.0202-1.6931 0-3.0659 1.3728-3.0659 3.0202z" stroke-miterlimit="2" stroke-width="0" fill="#1d3b5d"/>
  <path id="path268151" style="font-variant-ligatures:none" d="m616.46 441.12c0-5.6285-5.1709-8.0995-11.028-10.342-4.759-1.8304-6.3606-3.0659-6.3606-4.5302 0-2.2422 2.1507-3.8438 5.2166-3.8438 3.5235 0 5.4454 1.9219 6.2691 2.6541 1.144 1.0067 2.7914 1.144 3.8896-0.2288 0.82368-1.0525 0.96096-2.5168 0.13728-3.615-1.1898-1.6931-4.759-4.5302-10.113-4.5302-4.7133 0-7.4131 1.7389-8.8774 3.2032-1.6931 1.7389-2.6083 3.9811-2.6083 6.3606 0.0458 6.2691 6.3606 8.1453 10.571 9.6554 4.6675 1.6931 6.8182 2.9286 6.8182 4.8506 0 1.6016-0.96096 2.7456-2.2422 3.3405-1.6474 0.77792-3.3405 0.2288-4.8963 0.13728-1.5101-0.0915-2.7914 0.96096-2.7914 2.8829 0 2.3338 3.2032 3.249 5.5827 3.249 7.2758 0 10.433-4.7133 10.433-9.2435zm-24.024 1.9677c0 1.6931 1.3728 3.0202 3.0202 3.0202 1.6931 0 3.0659-1.327 3.0659-3.0202 0-1.6931-1.3728-3.0202-3.0659-3.0202-1.6474 0-3.0202 1.327-3.0202 3.0202z" stroke-miterlimit="2" stroke-width="0" fill="#1d3b5d"/>
  <path id="path268153" style="font-variant-ligatures:none" d="m626.38 422.78c1.6931 0 3.0659-1.3728 3.0659-3.0659 0-1.6474-1.3728-3.0202-3.0659-3.0202-1.6474 0-3.0202 1.3728-3.0202 3.0202 0 1.6931 1.3728 3.0659 3.0202 3.0659zm-3.0202 23.749c0 1.6474 1.3728 3.0202 3.0202 3.0202 1.6931 0 3.0659-1.3728 3.0659-3.0202v-17.709c0-1.6474-1.3728-3.0202-3.0659-3.0202-1.6474 0-3.0202 1.3728-3.0202 3.0202z" stroke-miterlimit="2" stroke-width="0" fill="#1d3b5d"/>
  <path id="path268155" style="font-variant-ligatures:none" d="m650.19 446.52c0-1.6931-1.327-3.0659-3.0202-3.0659h-3.3862v-22.926c0-1.6474-1.3728-3.0202-3.0659-3.0202-1.6474 0-3.0202 1.3728-3.0202 3.0202v25.992c0 1.6474 1.3728 3.0202 3.0202 3.0202h6.4522c1.6931 0 3.0202-1.3728 3.0202-3.0202zm3.0659 0c0 1.6474 1.327 3.0202 3.0202 3.0202 1.6931 0 3.0202-1.3728 3.0202-3.0202 0-1.6931-1.327-3.0659-3.0202-3.0659-1.6931 0-3.0202 1.3728-3.0202 3.0659z" stroke-miterlimit="2" stroke-width="0" fill="#1d3b5d"/>
  <path id="path268157" style="font-variant-ligatures:none" d="m666.24 422.78c1.6931 0 3.0659-1.3728 3.0659-3.0659 0-1.6474-1.3728-3.0202-3.0659-3.0202-1.6474 0-3.0202 1.3728-3.0202 3.0202 0 1.6931 1.3728 3.0659 3.0202 3.0659zm-3.0202 23.749c0 1.6474 1.3728 3.0202 3.0202 3.0202 1.6931 0 3.0659-1.3728 3.0659-3.0202v-17.709c0-1.6474-1.3728-3.0202-3.0659-3.0202-1.6474 0-3.0202 1.3728-3.0202 3.0202z" stroke-miterlimit="2" stroke-width="0" fill="#1d3b5d"/>
  <path id="path268159" style="font-variant-ligatures:none" d="m680.58 449.54h15.558c1.6931 0 3.0202-1.3728 3.0202-3.0202 0-1.6931-1.327-3.0659-3.0202-3.0659h-12.492v-7.047h10.616c1.6931 0 3.0202-1.2355 3.0202-2.8829 0-1.6931-1.327-2.9286-3.0202-2.9286h-10.616v-7.0013h3.249c1.6474 0 3.0202-1.3728 3.0202-3.0659 0-1.6474-1.3728-3.0202-3.0202-3.0202h-6.3149c-1.6474 0-3.0202 1.3728-3.0202 3.0202v25.992c0 1.6474 1.3728 3.0202 3.0202 3.0202zm12.355-29.012c0 1.6931 1.3728 3.0659 3.0659 3.0659 1.6474 0 3.0202-1.3728 3.0202-3.0659 0-1.6474-1.3728-3.0202-3.0202-3.0202-1.6931 0-3.0659 1.3728-3.0659 3.0202z" stroke-miterlimit="2" stroke-width="0" fill="#1d3b5d"/>
  <path id="path268161" style="font-variant-ligatures:none" d="m727.71 429.64v9.0605l-16.062-19.723c-1.4186-1.6474-2.9286-1.7389-4.0726-1.0982-1.4643 0.77792-1.6016 2.1507-1.6016 3.2947v25.351c0 1.6474 1.3728 3.0202 3.0202 3.0202 1.6931 0 3.0659-1.3728 3.0659-3.0202v-18.121l15.879 19.448c0.50336 0.59488 0.86944 1.0067 1.5558 1.3728 1.2813 0.64064 2.4253 0.2288 3.1574-0.32032 0.9152-0.77792 1.144-1.6931 1.144-2.7456v-16.565c0-1.6474-1.3728-3.0202-3.0659-3.0202-1.6474 0-3.0202 1.3728-3.0202 3.0659zm0-9.1062c0 1.6931 1.3728 3.0202 3.0659 3.0202 1.6474 0 3.0202-1.327 3.0202-3.0202 0-1.6931-1.3728-3.0202-3.0202-3.0202-1.6931 0-3.0659 1.327-3.0659 3.0202z" stroke-miterlimit="2" stroke-width="0" fill="#1d3b5d"/>
  <path id="path268163" style="font-variant-ligatures:none" d="m745.58 433.53c0-5.9488 4.8048-10.754 10.754-10.754 2.8829 0 5.2166 0.9152 7.047 1.9677 1.6931 0.9152 3.3862 0.86944 4.2099-0.36608 0.96096-1.3728 0.86944-3.2032-0.41184-4.2557-3.4778-2.8371-7.7792-3.432-10.845-3.432-9.2893 0-16.84 7.5046-16.84 16.84 0 6.7725 4.0269 12.584 9.8384 15.284 2.3338 1.0525 4.6675 1.5558 7.0013 1.5558 2.8371 0 3.8438-1.3728 3.8438-2.8829 0-1.4186-0.9152-2.5168-3.1117-2.7456-2.2422-0.2288-4.0726-0.73216-5.8115-1.7389-3.432-1.8762-5.6742-5.3539-5.6742-9.4723zm17.068 10.754c0 1.6931 1.3728 3.0659 3.0202 3.0659 1.6931 0 3.0659-1.3728 3.0659-3.0659 0-1.6474-1.3728-3.0202-3.0659-3.0202-1.6474 0-3.0202 1.3728-3.0202 3.0202z" stroke-miterlimit="2" stroke-width="0" fill="#1d3b5d"/>
  <path id="path268165" style="font-variant-ligatures:none" d="m777.46 449.54h15.558c1.6931 0 3.0202-1.3728 3.0202-3.0202 0-1.6931-1.327-3.0659-3.0202-3.0659h-12.492v-7.047h10.616c1.6931 0 3.0202-1.2355 3.0202-2.8829 0-1.6931-1.327-2.9286-3.0202-2.9286h-10.616v-7.0013h3.249c1.6474 0 3.0202-1.3728 3.0202-3.0659 0-1.6474-1.3728-3.0202-3.0202-3.0202h-6.3149c-1.6474 0-3.0202 1.3728-3.0202 3.0202v25.992c0 1.6474 1.3728 3.0202 3.0202 3.0202zm12.355-29.012c0 1.6931 1.3728 3.0659 3.0659 3.0659 1.6474 0 3.0202-1.3728 3.0202-3.0659 0-1.6474-1.3728-3.0202-3.0202-3.0202-1.6931 0-3.0659 1.3728-3.0659 3.0202z" stroke-miterlimit="2" stroke-width="0" fill="#1d3b5d"/>
  <path id="path268167" style="font-variant-ligatures:none" d="m326.65 486.59h15.558c1.6931 0 3.0202-1.3728 3.0202-3.0202 0-1.6931-1.327-3.0659-3.0202-3.0659h-12.492v-7.047h10.616c1.6931 0 3.0202-1.2355 3.0202-2.8829 0-1.6931-1.327-2.9286-3.0202-2.9286h-10.616v-7.0013h3.249c1.6474 0 3.0202-1.3728 3.0202-3.0659 0-1.6474-1.3728-3.0202-3.0202-3.0202h-6.3149c-1.6474 0-3.0202 1.3728-3.0202 3.0202v25.992c0 1.6474 1.3728 3.0202 3.0202 3.0202zm12.355-29.012c0 1.6931 1.3728 3.0659 3.0659 3.0659 1.6474 0 3.0202-1.3728 3.0202-3.0659 0-1.6474-1.3728-3.0202-3.0202-3.0202-1.6931 0-3.0659 1.3728-3.0659 3.0202z" stroke-miterlimit="2" stroke-width="0" fill="#1d3b5d"/>
  <path id="path268169" style="font-variant-ligatures:none" d="m372.68 485.04 8.9232-17.252v6.681c0 1.6474 1.3728 3.0202 3.0202 3.0202 1.6931 0 3.0659-1.3728 3.0659-3.0202v-16.885c0-1.3728-0.96096-2.5626-2.288-2.9286-1.327-0.32032-2.7456 0.27456-3.3862 1.4643l-11.943 22.102-11.623-22.056c-0.64064-1.2355-2.0592-1.8304-3.3862-1.5101-1.3728 0.36608-2.288 1.5558-2.288 2.9286v25.992c0 1.6474 1.3728 3.0202 3.0202 3.0202 1.6931 0 3.0659-1.3728 3.0659-3.0202v-15.513l8.5114 16.931c0.54912 1.0067 1.5558 1.6016 2.6541 1.6016 1.0982 0 2.105-0.59488 2.6541-1.5558zm8.9232-1.4643c0 1.6474 1.3728 3.0202 3.0202 3.0202 1.6931 0 3.0659-1.3728 3.0659-3.0202 0-1.6931-1.3728-3.0659-3.0659-3.0659-1.6474 0-3.0202 1.3728-3.0202 3.0659z" stroke-miterlimit="2" stroke-width="0" fill="#1d3b5d"/>
  <path id="path268171" style="font-variant-ligatures:none" d="m420.73 465.59c0-5.3082-3.1117-11.028-9.9757-11.028h-11.577c-1.6474 0-3.0202 1.3728-3.0202 3.0202v25.992c0 1.6474 1.3728 3.0202 3.0202 3.0202 1.6931 0 3.0659-1.3728 3.0659-3.0202v-22.926h8.5114c3.6608 0 3.9354 3.7523 3.9354 4.9421 0 0.96096-0.36608 2.0134-0.9152 2.9286-0.86944 1.4186-0.4576 3.2947 1.0067 4.1642 1.4186 0.9152 3.2947 0.4576 4.1642-0.96096 1.144-1.8762 1.7846-4.0726 1.7846-6.1318zm-15.467 7.8707c0 1.6931 1.3728 3.0659 3.0202 3.0659 1.6931 0 3.0202-1.3728 3.0202-3.0659 0-1.6474-1.327-3.0202-3.0202-3.0202-1.6474 0-3.0202 1.3728-3.0202 3.0202z" stroke-miterlimit="2" stroke-width="0" fill="#1d3b5d"/>
  <path id="path268173" style="font-variant-ligatures:none" d="m457.85 470.53c0-5.2166-2.3795-9.9757-6.4979-13.225-1.327-1.0067-3.249-0.77792-4.2557 0.54912-1.0525 1.2813-0.82368 3.2032 0.50336 4.2557 2.6541 2.0592 4.1642 5.0794 4.1642 8.4198 0 5.9488-4.8506 10.799-10.799 10.799-5.9488 0-10.754-4.8506-10.754-10.799 0-3.3405 1.5101-6.3606 4.1184-8.4198 1.327-1.0525 1.5558-2.9744 0.54912-4.2557-1.0525-1.327-2.9744-1.5558-4.2557-0.54912-4.1184 3.249-6.4979 8.008-6.4979 13.225 0 9.335 7.5504 16.885 16.84 16.885 9.2893 0 16.885-7.5504 16.885-16.885zm-19.906-13.728c0 1.6474 1.3728 3.0202 3.0202 3.0202 1.6931 0 3.0659-1.3728 3.0659-3.0202 0-1.6931-1.3728-3.0659-3.0659-3.0659-1.6474 0-3.0202 1.3728-3.0202 3.0659z" stroke-miterlimit="2" stroke-width="0" fill="#1d3b5d"/>
  <path id="path268175" style="font-variant-ligatures:none" d="m496.27 484.44 5.3997-17.252c0.50336-1.6016-0.41184-3.2947-1.9677-3.7981-1.6016-0.50336-3.3405 0.36608-3.8438 1.9677l-2.8371 10.067-7.2758-18.945c-0.4576-1.144-1.6016-1.9219-2.8371-1.9219s-2.3338 0.77792-2.7914 1.9219l-7.2758 18.945-5.5827-18.716c-0.50336-1.6016-2.2422-2.5168-3.8438-2.0134-1.5558 0.50336-2.471 2.1965-1.9677 3.7981l8.1453 25.946c0.36608 1.2355 1.4643 2.105 2.7456 2.1507h0.13728c1.2355 0 2.3338-0.77792 2.7914-1.9219l7.6419-19.402 7.6419 19.402c0.4576 1.1898 1.6474 1.9677 2.9286 1.9219 1.2813-0.0458 2.3795-0.9152 2.7914-2.1507zm2.1965-26.861c0 1.6931 1.327 3.0659 3.0202 3.0659 1.6931 0 3.0202-1.3728 3.0202-3.0659 0-1.6474-1.327-3.0202-3.0202-3.0202-1.6931 0-3.0202 1.3728-3.0202 3.0202z" stroke-miterlimit="2" stroke-width="0" fill="#1d3b5d"/>
  <path id="path268177" style="font-variant-ligatures:none" d="m513.48 486.59h15.558c1.6931 0 3.0202-1.3728 3.0202-3.0202 0-1.6931-1.327-3.0659-3.0202-3.0659h-12.492v-7.047h10.616c1.6931 0 3.0202-1.2355 3.0202-2.8829 0-1.6931-1.327-2.9286-3.0202-2.9286h-10.616v-7.0013h3.249c1.6474 0 3.0202-1.3728 3.0202-3.0659 0-1.6474-1.3728-3.0202-3.0202-3.0202h-6.3149c-1.6474 0-3.0202 1.3728-3.0202 3.0202v25.992c0 1.6474 1.3728 3.0202 3.0202 3.0202zm12.355-29.012c0 1.6931 1.3728 3.0659 3.0659 3.0659 1.6474 0 3.0202-1.3728 3.0202-3.0659 0-1.6474-1.3728-3.0202-3.0202-3.0202-1.6931 0-3.0659 1.3728-3.0659 3.0202z" stroke-miterlimit="2" stroke-width="0" fill="#1d3b5d"/>
  <path id="path268179" style="font-variant-ligatures:none" d="m562.54 464.76c0-6.2234-4.2557-10.204-10.799-10.204h-9.8384c-1.6474 0-3.0202 1.3728-3.0202 3.0202v25.992c0 1.6474 1.3728 3.0202 3.0202 3.0202 1.6931 0 3.0659-1.3728 3.0659-3.0202v-8.2368h6.6352l1.3728 2.1965c0.86944 1.4186 2.7456 1.8304 4.1642 0.9152 2.7914-1.7846 0.54912-4.7133 0.54912-4.7133 3.1574-1.7846 4.8506-5.0336 4.8506-8.969zm-17.572 5.3082v-9.6096h6.7725c3.1574 0 4.7133 1.8762 4.7133 4.6675 0 2.5626-1.2355 4.9421-4.8506 4.9421zm12.492 13.453c0 1.6474 1.3728 3.0202 3.0202 3.0202 1.6931 0 3.0202-1.3728 3.0202-3.0202 0-1.6931-1.327-3.0659-3.0202-3.0659-1.6474 0-3.0202 1.3728-3.0202 3.0659z" stroke-miterlimit="2" stroke-width="0" fill="#1d3b5d"/>
  <path id="path268181" style="font-variant-ligatures:none" d="m590.76 485.04 8.9232-17.252v6.681c0 1.6474 1.3728 3.0202 3.0202 3.0202 1.6931 0 3.0659-1.3728 3.0659-3.0202v-16.885c0-1.3728-0.96096-2.5626-2.288-2.9286-1.327-0.32032-2.7456 0.27456-3.3862 1.4643l-11.943 22.102-11.623-22.056c-0.64064-1.2355-2.0592-1.8304-3.3862-1.5101-1.3728 0.36608-2.288 1.5558-2.288 2.9286v25.992c0 1.6474 1.3728 3.0202 3.0202 3.0202 1.6931 0 3.0659-1.3728 3.0659-3.0202v-15.513l8.5114 16.931c0.54912 1.0067 1.5558 1.6016 2.6541 1.6016 1.0982 0 2.105-0.59488 2.6541-1.5558zm8.9232-1.4643c0 1.6474 1.3728 3.0202 3.0202 3.0202 1.6931 0 3.0659-1.3728 3.0659-3.0202 0-1.6931-1.3728-3.0659-3.0659-3.0659-1.6474 0-3.0202 1.3728-3.0202 3.0659z" stroke-miterlimit="2" stroke-width="0" fill="#1d3b5d"/>
  <path id="path268183" style="font-variant-ligatures:none" d="m617.25 486.59h15.558c1.6931 0 3.0202-1.3728 3.0202-3.0202 0-1.6931-1.327-3.0659-3.0202-3.0659h-12.492v-7.047h10.616c1.6931 0 3.0202-1.2355 3.0202-2.8829 0-1.6931-1.327-2.9286-3.0202-2.9286h-10.616v-7.0013h3.249c1.6474 0 3.0202-1.3728 3.0202-3.0659 0-1.6474-1.3728-3.0202-3.0202-3.0202h-6.3149c-1.6474 0-3.0202 1.3728-3.0202 3.0202v25.992c0 1.6474 1.3728 3.0202 3.0202 3.0202zm12.355-29.012c0 1.6931 1.3728 3.0659 3.0659 3.0659 1.6474 0 3.0202-1.3728 3.0202-3.0659 0-1.6474-1.3728-3.0202-3.0202-3.0202-1.6931 0-3.0659 1.3728-3.0659 3.0202z" stroke-miterlimit="2" stroke-width="0" fill="#1d3b5d"/>
  <path id="path268185" style="font-variant-ligatures:none" d="m664.39 466.69v9.0605l-16.062-19.723c-1.4186-1.6474-2.9286-1.7389-4.0726-1.0982-1.4643 0.77792-1.6016 2.1507-1.6016 3.2947v25.351c0 1.6474 1.3728 3.0202 3.0202 3.0202 1.6931 0 3.0659-1.3728 3.0659-3.0202v-18.121l15.879 19.448c0.50337 0.59488 0.86944 1.0067 1.5558 1.3728 1.2813 0.64064 2.4253 0.2288 3.1574-0.32032 0.9152-0.77792 1.144-1.6931 1.144-2.7456v-16.565c0-1.6474-1.3728-3.0202-3.0659-3.0202-1.6474 0-3.0202 1.3728-3.0202 3.0659zm0-9.1062c0 1.6931 1.3728 3.0202 3.0659 3.0202 1.6474 0 3.0202-1.327 3.0202-3.0202 0-1.6931-1.3728-3.0202-3.0202-3.0202-1.6931 0-3.0659 1.327-3.0659 3.0202z" stroke-miterlimit="2" stroke-width="0" fill="#1d3b5d"/>
  <path id="path268187" style="font-variant-ligatures:none" d="m690.71 483.57v-25.992c0-1.6474-1.1898-3.0202-3.0202-3.0202h-9.6554c-1.6474 0-3.0202 1.3728-3.0202 3.0202 0 1.6931 1.3728 3.0659 3.0202 3.0659h6.6352v22.926c0 1.6474 1.327 3.0202 3.0202 3.0202 1.6931 0 3.0202-1.3728 3.0202-3.0202zm3.5693-25.992c0 1.6931 1.3728 3.0659 3.0659 3.0659 1.6474 0 3.0202-1.3728 3.0202-3.0659 0-1.6474-1.3728-3.0202-3.0202-3.0202-1.6931 0-3.0659 1.3728-3.0659 3.0202z" stroke-miterlimit="2" stroke-width="0" fill="#1d3b5d"/>
  <path id="path268190" style="font-variant-ligatures:none" d="m340.03 331.28q2.6194 0 4.4683-2.3112 1.849-2.4653 1.849-7.3958v-25.885q0-4.9306-1.849-6.9336-1.6949-2.1571-3.852-2.1571h-1.0786q-2.1571 0-4.0061 2.1571-1.6949 2.003-1.6949 6.9336v29.429h-7.0877v-30.508q0-3.6979 1.0786-6.3173 1.0786-2.7734 2.7734-4.4683 1.6949-1.6949 3.852-2.4653 2.3112-0.7704 4.4683-0.7704h2.3112q2.1571 0 4.3142 0.7704t3.852 2.4653q1.849 1.6949 2.9275 4.4683 1.0786 2.6194 1.0786 6.3173v26.194q0 6.3173-2.7734 9.3989-2.7734 2.9275-6.3173 3.6979 3.5438 0.7704 6.3173 3.5438 2.7734 2.7734 2.7734 8.9366v29.737q0 3.6979-1.0786 6.4714-1.0786 2.6194-2.9275 4.4683-1.6949 1.6949-3.852 2.4653t-4.3142 0.7704h-2.3112q-2.1571 0-4.4683-0.7704-2.1571-0.7704-3.852-2.4653-1.6949-1.849-2.7734-4.4683-1.0786-2.7734-1.0786-6.4714v-30.354h7.0877v29.429q0 4.9306 1.6949 6.9336 1.849 2.003 4.0061 2.003h1.0786q2.1571 0 3.852-2.003 1.849-2.003 1.849-7.0877v-28.813q0-4.9306-1.849-7.2418-1.849-2.4653-4.4683-2.4653h-2.9275v-5.2387z" stroke-miterlimit="2" stroke-width="0" fill="#1d3b5d"/>
  <path id="path268192" style="font-variant-ligatures:none" d="m381.96 281.51v102.31h13.405v5.3928h-20.49v-107.7z" stroke-miterlimit="2" stroke-width="0" fill="#363759"/>
  <path id="path268196" style="font-variant-ligatures:none" d="m564.43 281.51h6.1632l-10.323 107.7h-9.2448l-10.786-107.7h6.9336l8.4744 87.209h0.30816z" stroke-miterlimit="2" stroke-width="0" fill="#692f51"/>
  <path id="path268198" style="font-variant-ligatures:none" d="m596.54 287.52v45.145h11.094v5.3928h-11.094v45.145h14.946v6.0091h-22.04v-107.7h21.417v6.0091z" stroke-miterlimit="2" stroke-width="0" fill="#822b4d"/>
  <path id="path268200" style="font-variant-ligatures:none" d="m638.6 281.51v102.31h13.405v5.3928h-20.49v-107.7z" stroke-miterlimit="2" stroke-width="0" fill="#9b2749"/>
  <path id="path268202" style="font-variant-ligatures:none" d="m690.13 324.96v-29.275q0-4.9306-1.8489-6.9336-1.6949-2.1571-3.852-2.1571h-1.0785q-2.1571 0-4.0061 2.1571-1.6949 2.003-1.6949 6.9336v15.254q0 7.2418 3.0816 12.943 3.0816 5.5469 6.6254 10.94 3.6979 5.2387 6.7795 10.94 3.0816 5.5469 3.0816 12.943v17.411q0 3.6979-1.0785 6.4714-1.0786 2.6194-2.7735 4.3142-1.6949 1.6949-3.852 2.4653t-4.4683 0.7704h-2.1571q-2.1571 0-4.4683-0.7704-2.1571-0.7704-4.0061-2.4653-1.6949-1.6949-2.7734-4.3142-1.0785-2.7734-1.0785-6.4714v-30.354h6.4714v29.275q0 4.9306 1.8489 7.0877 2.003 2.003 4.1602 2.003h1.0785q2.1571 0 4.0061-2.003 2.003-2.1571 2.003-7.0877v-15.408q0-4.7765-1.5408-8.7826-1.3867-4.0061-3.5439-7.5499-2.1571-3.6979-4.7765-7.0877-2.4653-3.5438-4.6224-7.2418-2.1571-3.6979-3.6979-7.8581-1.3867-4.1602-1.3867-9.0907v-17.411q0-3.6979 1.0785-6.3173 1.0786-2.7734 2.7734-4.4683 1.6949-1.6949 3.852-2.4653 2.3112-0.7704 4.4683-0.7704h1.6949q2.1571 0 4.3143 0.7704 2.1571 0.7704 3.852 2.4653 1.849 1.6949 2.9275 4.4683 1.0785 2.6194 1.0785 6.3173v30.354z" stroke-miterlimit="2" stroke-width="0" fill="#b42345"/>
  <path id="icon" stroke-width=".60507" fill="#4f3355" d="m520.88 282.86c-0.36535 0.003-1.5499 0.0242-2.6325 0.0478-1.0822 0.0232-2.2708 0.0599-2.6409 0.0807-0.37006 0.0212-0.93761 0.0609-1.2616 0.0881-0.32364 0.0276-0.85351 0.0801-1.1775 0.11673-0.32364 0.037-0.84607 0.10496-1.1606 0.15072-0.31455 0.0461-0.83669 0.13019-1.1606 0.18637-0.32364 0.0565-0.88274 0.1635-1.2421 0.23785-0.3593 0.0744-0.95746 0.21026-1.3288 0.30244-0.37141 0.0918-0.91777 0.23515-1.2138 0.31825-0.29604 0.0831-0.8333 0.24289-1.1943 0.35526-0.36064 0.11203-0.97391 0.3169-1.3625 0.45584-0.38856 0.13861-1.0291 0.37982-1.4234 0.53592-0.39428 0.15576-1.0832 0.44508-1.5307 0.64221-0.44743 0.19715-1.3056 0.60488-1.9072 0.90597-0.60117 0.30076-1.3961 0.71555-1.7662 0.92176-0.37006 0.20589-0.98299 0.55677-1.3625 0.77951-0.37914 0.22271-0.96956 0.57998-1.312 0.79397-0.34214 0.21396-0.94802 0.60252-1.3457 0.86361-0.39765 0.26072-1.094 0.73001-1.5475 1.0422-0.45316 0.31253-1.195 0.83529-1.6484 1.1617-0.45315 0.32632-1.1724 0.85048-1.598 1.165-0.42557 0.31455-1.5458 1.1472-2.4895 1.8499-0.94366 0.70279-2.1016 1.5583-2.5736 1.9008-0.47165 0.34247-1.0849 0.78217-1.3625 0.9773-0.27754 0.19479-0.8333 0.57494-1.235 0.84444-0.40134 0.26947-1.0449 0.6856-1.4298 0.92514-0.38452 0.2392-0.94935 0.57931-1.2545 0.75561-0.30513 0.17628-0.82858 0.46527-1.163 0.64222-0.3344 0.17696-0.85653 0.43801-1.1606 0.58032-0.30412 0.1423-0.72699 0.33372-0.93961 0.42523-0.21261 0.0915-0.57594 0.23953-0.8074 0.32901-0.23112 0.0895-0.60218 0.22574-0.82422 0.30244-0.22204 0.077-0.67622 0.22035-1.0092 0.31893-0.33305 0.0989-0.87808 0.24087-1.2111 0.31623-0.33306 0.0754-0.88546 0.18234-1.2279 0.23818-0.34213 0.0555-0.84171 0.12414-1.1102 0.15206-0.26813 0.0283-0.74514 0.0663-1.0597 0.0848-0.31455 0.0185-0.79899 0.0336-1.0765 0.0336-0.27755-0.00034-0.76941-0.0151-1.0934-0.0336-0.3231-0.0188-0.80776-0.0569-1.0758-0.0853s-0.69219-0.0823-0.94209-0.1204c-0.24989-0.0375-0.63592-0.10347-0.85798-0.14704-0.22206-0.0436-0.54698-0.11133-0.72306-0.15066-0.17547-0.0393-0.54395-0.1319-0.81744-0.20572-0.2741-0.0738-0.66316-0.18576-0.86464-0.24929-0.20149-0.0629-0.56756-0.18515-0.81382-0.27107-0.24626-0.0853-0.69038-0.2511-0.98626-0.36848-0.29588-0.11678-0.83318-0.34429-1.1944-0.50523-0.36062-0.16035-0.95056-0.4411-1.3118-0.62322-0.36062-0.18273-0.86766-0.44775-1.1272-0.58934-0.25896-0.14158-0.75814-0.42476-1.1097-0.62866-0.35154-0.20391-1.0407-0.6208-1.5308-0.92636s-1.4292-0.91547-2.0857-1.3548c-0.65711-0.43927-1.7928-1.2138-2.5231-1.7208-0.73092-0.50704-1.9574-1.3578-2.7252-1.8908-0.76783-0.53306-1.9786-1.3578-2.6913-1.8321-0.71217-0.47498-1.6664-1.0988-2.1196-1.3868-0.4532-0.28861-1.2023-0.75149-1.6652-1.0298-0.46287-0.27833-1.1061-0.6571-1.4298-0.84225-0.32363-0.18503-0.88376-0.4979-1.2447-0.69468-0.36064-0.19714-1.1328-0.59849-1.7157-0.89187-0.58267-0.29335-1.3416-0.66309-1.6861-0.8212-0.34483-0.15811-0.97295-0.43465-1.3961-0.61432-0.42355-0.17965-1.0739-0.44441-1.4456-0.58839-0.37208-0.14399-1.0153-0.38251-1.4298-0.52986-0.41508-0.14703-1.0716-0.36667-1.4606-0.48829-0.38846-0.12101-1.0014-0.30374-1.362-0.40539-0.36062-0.10166-0.96629-0.2626-1.3451-0.35699-0.37938-0.095-0.99836-0.24021-1.3759-0.3225-0.37757-0.0829-1.0062-0.20936-1.3965-0.28136-0.39087-0.072-1.0129-0.17728-1.3832-0.23356-0.37006-0.0562-0.97561-0.14028-1.3457-0.18671-0.37006-0.0464-0.9073-0.10731-1.1943-0.13524-0.28663-0.0283-0.81648-0.0733-1.1775-0.10058-0.36098-0.0269-1.0042-0.0643-1.4298-0.0831-0.42556-0.0185-1.1334-0.0434-1.5728-0.0552l-0.79899-0.0215v8.8436l0.89556 0.0222c0.49251 0.0125 1.1549 0.038 1.4718 0.0568s0.8414 0.0572 1.165 0.0851c0.32397 0.0279 0.85381 0.0811 1.1775 0.11841 0.32397 0.037 0.93695 0.12044 1.3625 0.18571 0.42557 0.0649 1.1455 0.19209 1.6 0.28225 0.4545 0.0902 1.1708 0.24794 1.5916 0.35054 0.42052 0.10295 1.0631 0.27183 1.4274 0.37612 0.36468 0.10395 1.0412 0.31421 1.5038 0.46728 0.46257 0.15307 1.1485 0.39462 1.5243 0.53659 0.37545 0.1423 0.96986 0.37846 1.3204 0.52548 0.35088 0.14701 0.86966 0.37241 1.1536 0.50059 0.2836 0.12851 0.80976 0.37544 1.1687 0.5487 0.35929 0.17359 0.9635 0.47939 1.3426 0.68021 0.37948 0.20051 0.94699 0.50866 1.2616 0.68464 0.31455 0.17628 0.86731 0.49419 1.2279 0.70647 0.36097 0.21228 0.97391 0.58335 1.3625 0.82489 0.38856 0.24121 1.1455 0.72499 1.6821 1.0748 0.53659 0.34954 1.4752 0.97761 2.0858 1.3958 0.61057 0.41783 1.7992 1.239 2.6409 1.8244 0.84207 0.5857 1.9196 1.3322 2.3953 1.6588 0.47536 0.32666 1.3157 0.89386 1.8671 1.2599 0.55139 0.36602 1.2676 0.8333 1.5913 1.0379 0.32397 0.20454 0.82319 0.51606 1.1102 0.69232 0.28697 0.17595 0.8091 0.48713 1.1606 0.69099 0.35156 0.20387 0.97997 0.55677 1.3961 0.78416 0.41649 0.22742 1.128 0.59647 1.5812 0.82053 0.4535 0.22406 1.1196 0.53827 1.4802 0.69843 0.36098 0.16014 0.89822 0.38957 1.1943 0.51001 0.29605 0.1201 0.78048 0.3085 1.0765 0.41884 0.29604 0.11001 0.81847 0.29201 1.1606 0.40404 0.34247 0.11203 0.81145 0.25837 1.0425 0.32532 0.23111 0.0666 0.6476 0.18099 0.92514 0.25365 0.27789 0.0727 0.78254 0.19344 1.1212 0.26846 0.33911 0.075 0.92213 0.18806 1.2952 0.25131 0.37342 0.0629 0.91371 0.14567 1.2003 0.18334 0.28697 0.038 0.75627 0.0915 1.0429 0.11909 0.28697 0.0276 0.78653 0.067 1.1102 0.0868 0.32397 0.0202 1.1035 0.0363 1.7326 0.0363 0.62909 0 1.4089-0.0165 1.7326-0.037 0.32397-0.0202 0.82356-0.0596 1.1102-0.0875 0.28696-0.0276 0.79832-0.0878 1.1367-0.13389 0.33843-0.0458 0.90633-0.13625 1.2616-0.20152 0.3556-0.0649 0.91135-0.17897 1.235-0.25298 0.32397-0.0743 0.86125-0.20959 1.1943-0.30042 0.33306-0.0912 0.84038-0.24054 1.127-0.33238 0.28697-0.0919 0.72566-0.23785 0.97561-0.32431 0.24996-0.0865 0.74181-0.27081 1.0934-0.40976 0.35155-0.13894 0.93458-0.3825 1.2952-0.54129 0.36098-0.15879 1.0725-0.49722 1.5812-0.75191 0.50901-0.25467 1.2206-0.62776 1.5812-0.82925 0.36097-0.20118 0.90596-0.51472 1.2111-0.69673 0.30513-0.18167 0.82017-0.49656 1.1438-0.69976 0.32397-0.2032 0.95207-0.61197 1.3961-0.90833 0.44407-0.29605 1.0574-0.71289 1.3625-0.92618 0.30513-0.21295 0.79729-0.56147 1.0934-0.77412 0.29605-0.21261 0.84879-0.61396 1.2279-0.89217 0.37948-0.27822 1.2878-0.95207 2.0185-1.4974 0.73104-0.54533 1.6999-1.2659 2.1531-1.6014 0.45349-0.33541 1.0439-0.76904 1.312-0.96381 0.26846-0.19478 0.64693-0.46762 0.84104-0.60658 0.19445-0.13894 0.6032-0.42658 0.90833-0.63956 0.30547-0.21295 0.85048-0.58402 1.2111-0.82458 0.36098-0.2402 0.90597-0.59613 1.2111-0.79095 0.30547-0.19445 0.83735-0.52245 1.1822-0.72868 0.34483-0.20622 0.92781-0.54297 1.2952-0.74816 0.36737-0.20522 1.1374-0.60519 1.711-0.88915 0.57359-0.28393 1.3154-0.63278 1.6484-0.77509 0.33305-0.14231 0.84776-0.35358 1.1438-0.4693 0.29605-0.11573 0.85617-0.31926 1.2447-0.45181 0.38856-0.13289 0.98741-0.32397 1.3308-0.42423 0.34348-0.10058 0.93386-0.25769 1.312-0.3492 0.37814-0.0912 0.91474-0.2116 1.1923-0.26745 0.27754-0.0555 0.6032-0.11741 0.7233-0.13759 0.12043-0.0202 0.25265-0.0441 0.29436-0.0532l0.0757-0.0168v10.548l-0.6476 0.16283c-0.35626 0.0895-0.98807 0.26038-1.4045 0.37981-0.41615 0.11943-1.2034 0.36636-1.7494 0.5487-0.54567 0.18234-1.2374 0.42321-1.5368 0.53524-0.29941 0.11236-0.80637 0.30917-1.127 0.43734-0.3206 0.12818-0.82488 0.33508-1.1209 0.45955-0.29605 0.12482-0.85617 0.3704-1.2448 0.54601-0.38856 0.17595-1.1455 0.53456-1.6821 0.79699-0.53659 0.26275-1.2858 0.64089-1.6653 0.84105-0.37914 0.19983-0.95443 0.50799-1.2784 0.68463-0.32364 0.17662-0.9928 0.5524-1.4863 0.83529-0.49352 0.28259-1.2202 0.70648-1.6148 0.94197-0.39462 0.23583-1.1334 0.68597-1.6424 1.0005-0.50866 0.31489-1.4399 0.90028-2.069 1.3013-0.62909 0.40067-1.7114 1.0967-2.4054 1.5468-0.69371 0.44979-1.7308 1.1203-2.3044 1.49-0.5736 0.36972-1.5044 0.96314-2.069 1.3184-0.56417 0.35526-1.3362 0.8353-1.7157 1.0668-0.37914 0.23112-1.053 0.63278-1.4971 0.89187-0.44407 0.25938-1.0799 0.62304-1.413 0.80807-0.33305 0.18537-0.94535 0.51438-1.3605 0.73171-0.4148 0.21699-1.0809 0.55004-1.4802 0.73975-0.39899 0.18974-0.97524 0.45484-1.2804 0.58907-0.30513 0.13423-0.85786 0.36434-1.2279 0.51169-0.37006 0.14702-1.0234 0.38654-1.452 0.53188-0.42859 0.14533-1.0506 0.34079-1.3827 0.43398-0.33204 0.0935-0.79125 0.21464-1.0207 0.26913-0.22943 0.0545-0.65165 0.14466-0.93858 0.20017-0.28662 0.0559-0.72565 0.13222-0.97561 0.16955-0.24962 0.0374-0.68832 0.0922-0.97428 0.12179-0.28595 0.0296-0.83868 0.0659-1.2283 0.0807-0.38991 0.0148-1.0567 0.0148-1.4819 0.00033-0.42523-0.0145-1.0153-0.0508-1.3114-0.0804-0.29605-0.0296-0.75761-0.0848-1.0261-0.12212-0.26812-0.0373-0.7835-0.12649-1.1448-0.19815-0.36165-0.0717-0.87638-0.18537-1.1438-0.25231-0.27047-0.066-0.64863-0.16579-0.84286-0.22145-0.19423-0.0551-0.65589-0.19968-1.0262-0.32069-0.37031-0.12222-0.92999-0.32008-1.2446-0.44049-0.31463-0.12101-0.8368-0.33279-1.1605-0.47135-0.32371-0.13856-0.90518-0.40237-1.2918-0.5857-0.38664-0.18394-1.0074-0.49495-1.379-0.69038-0.37212-0.19604-0.93422-0.50039-1.2489-0.67647-0.31463-0.17668-0.91244-0.52459-1.3287-0.77388-0.41628-0.24989-0.99896-0.60567-1.2954-0.79143-0.29588-0.18575-0.97719-0.62684-1.5145-0.98081-0.5373-0.35396-1.362-0.90699-1.8334-1.2277-0.47135-0.32129-1.6446-1.1321-2.6066-1.8013-0.96206-0.66921-2.2036-1.5314-2.7585-1.9156-0.55485-0.38482-1.5847-1.0819-2.2878-1.549-0.70308-0.46771-1.6186-1.0655-2.0354-1.3299-0.41568-0.26381-1.1654-0.72548-1.6652-1.025-0.49918-0.29951-1.2186-0.71942-1.598-0.93241-0.37877-0.21298-0.94693-0.52398-1.2616-0.69038-0.31464-0.167-0.87432-0.4544-1.2446-0.63955-0.3703-0.18515-0.96024-0.46893-1.3118-0.63048-0.35155-0.16156-0.97234-0.43384-1.3796-0.60507-0.40721-0.17123-1.0885-0.44049-1.5139-0.59781-0.42557-0.15744-1.0765-0.38553-1.4466-0.50698-0.37005-0.12145-0.93761-0.29638-1.2616-0.3889-0.32363-0.0925-0.86125-0.23616-1.1943-0.31925-0.33305-0.0831-0.85787-0.20522-1.1664-0.27116-0.30849-0.0659-0.86894-0.17258-1.2454-0.2365-0.37645-0.0639-0.9793-0.15408-1.3399-0.20017-0.3603-0.0461-0.90494-0.10664-1.2104-0.13491-0.30512-0.0279-0.83499-0.0666-1.1775-0.0854-0.34213-0.0192-1.4776-0.0646-2.5231-0.10127-1.0452-0.0363-2.071-0.075-2.2792-0.0854l-0.37847-0.0192v27.385l0.0757 0.0165c0.0417 0.009 0.99177 0.16182 2.111 0.33945s2.3155 0.37544 2.6577 0.43969c0.34247 0.0646 0.89253 0.17796 1.2225 0.25232 0.32969 0.0747 0.86731 0.20353 1.1943 0.28629 0.32666 0.0831 0.85919 0.22674 1.1828 0.3196 0.32397 0.0925 1.0355 0.3169 1.5812 0.4989 0.54601 0.18167 1.2726 0.43701 1.6148 0.56754 0.34213 0.13019 0.84207 0.32733 1.1102 0.43768 0.26846 0.11001 0.65099 0.27048 0.85048 0.35593 0.19983 0.0858 0.64628 0.28595 0.99243 0.44508 0.34651 0.15913 1.0234 0.48646 1.5044 0.72699 0.48108 0.24088 1.1701 0.59647 1.5307 0.79058 0.36098 0.19411 0.98904 0.54297 1.3961 0.77509 0.40707 0.23213 1.1415 0.66406 1.6316 0.96012 0.49049 0.29605 1.308 0.80268 1.8166 1.1263 0.509 0.32329 1.6595 1.0759 2.5568 1.6723 0.89756 0.59647 2.434 1.6249 3.4146 2.2853 0.98063 0.66006 2.2674 1.5152 2.8595 1.8997 0.5921 0.38486 1.3793 0.88848 1.7494 1.1196 0.37006 0.23112 0.97561 0.60185 1.3457 0.82422 0.37006 0.22238 0.94536 0.55947 1.2784 0.7492 0.33305 0.18974 0.87063 0.48949 1.1943 0.66642 0.32397 0.17662 0.98232 0.5201 1.4634 0.76299s1.1169 0.55273 1.413 0.68862c0.29604 0.13592 0.85616 0.38285 1.2447 0.5487 0.38856 0.16619 0.97155 0.40438 1.2952 0.52952 0.32397 0.12515 0.83093 0.31186 1.127 0.41447 0.29605 0.10294 0.75023 0.255 1.0092 0.33776 0.25905 0.0828 0.68294 0.21161 0.94197 0.28663 0.25904 0.0747 0.74351 0.20387 1.0765 0.28764 0.33305 0.0834 0.84776 0.20386 1.1438 0.26778 0.29604 0.0643 0.75022 0.15442 1.0092 0.20118 0.25904 0.0464 0.62237 0.10799 0.8074 0.13659s0.44239 0.0666 0.57225 0.0851c0.12986 0.0181 0.44003 0.0569 0.68965 0.0861 0.24962 0.0293 0.7112 0.0747 1.0257 0.10093 0.31455 0.0266 0.95038 0.0659 1.413 0.0875 0.49352 0.0229 1.2303 0.0306 1.783 0.0185 0.51808-0.0114 1.2374-0.0441 1.598-0.0727 0.36098-0.0286 0.90597-0.0821 1.2111-0.11909 0.30547-0.0367 0.78992-0.10463 1.0765-0.15071 0.28696-0.0461 0.79396-0.13827 1.127-0.20455 0.33306-0.0663 0.85551-0.17998 1.1606-0.25298 0.30547-0.073 0.85048-0.21632 1.2111-0.31859 0.36098-0.10193 0.93592-0.2772 1.2784-0.38923 0.34247-0.11169 0.92581-0.31455 1.2962-0.45047 0.37073-0.13591 0.95376-0.36232 1.2952-0.50361 0.3418-0.14096 0.86355-0.36333 1.1596-0.49386 0.29605-0.13087 0.85617-0.39125 1.2448-0.57864 0.38856-0.18772 1.0472-0.5164 1.4634-0.73068 0.41649-0.21464 1.1018-0.58166 1.523-0.81581 0.42154-0.23415 1.1021-0.62473 1.5126-0.86731 0.41076-0.24289 1.0119-0.60353 1.3366-0.80201 0.32465-0.19815 0.81715-0.50362 1.0947-0.67889 0.27755-0.17493 0.85181-0.5423 1.2764-0.81611 0.42456-0.27385 2.3118-1.525 4.1938-2.7798 1.8819-1.2548 3.7241-2.478 4.0939-2.7183 0.36973-0.23987 0.90494-0.58369 1.1893-0.76432 0.28427-0.18033 0.75156-0.47402 1.0382-0.65263 0.28696-0.17864 0.87734-0.53726 1.312-0.79663 0.43499-0.25938 1.1011-0.64627 1.4802-0.85956 0.37948-0.21295 0.88715-0.49386 1.1287-0.62407 0.24155-0.13019 0.81684-0.4259 1.2784-0.65704 0.46156-0.23146 1.059-0.52246 1.3272-0.64657 0.26846-0.12414 0.70751-0.32094 0.97561-0.43735 0.26846-0.1164 0.75325-0.31757 1.0779-0.44743 0.32431-0.12952 0.82386-0.31859 1.1102-0.42018 0.28596-0.10127 0.75495-0.26073 1.0416-0.35425 0.28696-0.0935 0.7334-0.23011 0.99243-0.30412 0.25904-0.0737 0.59983-0.16619 0.75694-0.20522 0.15744-0.0394 0.31252-0.079 0.34482-0.0888l0.0589-0.0172v10.451l-0.22709 0.0639c-0.12481 0.0353-0.59781 0.18436-1.0513 0.33137-0.45315 0.14668-1.1421 0.38049-1.5307 0.51943-0.38856 0.13861-1.0621 0.3926-1.497 0.56451-0.43465 0.17157-1.1236 0.45517-1.5307 0.63011-0.40707 0.17494-1.0654 0.46729-1.4634 0.6496-0.39764 0.182-1.2986 0.62105-2.0017 0.97525-0.70309 0.35391-1.5509 0.79191-1.8839 0.97295-0.33305 0.18099-0.93083 0.51169-1.3288 0.73473-0.39764 0.22338-1.1091 0.63248-1.5812 0.90966-0.47165 0.27721-1.2437 0.73879-1.7157 1.0257-0.47166 0.28663-1.274 0.78181-1.783 1.0998-0.50866 0.31791-1.7275 1.09-2.7082 1.7157-0.98064 0.62576-2.2749 1.4503-2.8764 1.8324-0.60118 0.38184-1.5704 0.99007-2.1531 1.3514-0.58268 0.36131-1.4153 0.869-1.8503 1.128-0.43499 0.25905-1.1283 0.66376-1.5415 0.89926-0.41312 0.23583-1.0866 0.61027-1.497 0.83263-0.41043 0.22203-1.2003 0.62842-1.7554 0.9033-0.55509 0.27452-1.2437 0.60488-1.5307 0.73371-0.28663 0.12884-0.7714 0.34011-1.0765 0.46896-0.30513 0.12918-0.81714 0.33541-1.1378 0.45854-0.32027 0.12312-0.89556 0.33036-1.2784 0.46055-0.3825 0.13019-0.97561 0.31825-1.3181 0.41817-0.34213 0.0999-0.86458 0.24188-1.1606 0.31556-0.29604 0.0737-0.71991 0.1719-0.94196 0.21833-0.22204 0.0464-0.61566 0.12246-0.87469 0.16888-0.25904 0.0464-0.69032 0.11506-0.95879 0.15207-0.26812 0.0373-0.72227 0.0908-1.0092 0.11875-0.28663 0.0279-0.80135 0.0663-1.1438 0.0854-0.34213 0.0188-0.88176 0.0343-1.199 0.0343s-0.84709-0.0155-1.1775-0.0343c-0.33036-0.0188-0.82791-0.0578-1.1055-0.0865-0.27754-0.0286-0.76196-0.0898-1.0765-0.13625-0.31455-0.0461-0.83669-0.13658-1.1606-0.20117-0.32363-0.0646-0.90663-0.19849-1.2952-0.29773-0.38856-0.0992-0.96381-0.25871-1.2784-0.35459-0.31455-0.0955-0.85956-0.27654-1.2111-0.40202-0.35155-0.12548-0.87365-0.32228-1.1606-0.43734-0.28662-0.11472-0.71658-0.29235-0.9554-0.39394-0.23851-0.10194-0.7078-0.31354-1.0429-0.47032-0.33473-0.15677-1.0025-0.48612-1.4836-0.73237-0.48108-0.24625-1.2077-0.6335-1.6148-0.86022-0.40706-0.22675-1.2245-0.70345-1.8166-1.0594-0.59209-0.3556-1.3944-0.84813-1.783-1.0944-0.38856-0.24625-1.1909-0.76565-1.783-1.1542-0.5921-0.3889-1.3491-0.89115-1.6821-1.1162-0.33305-0.2254-1.4988-1.0133-2.5904-1.7511-1.0917-0.73745-2.4918-1.676-3.1119-2.0851-0.61971-0.40942-1.4032-0.92079-1.741-1.1367-0.33776-0.21597-0.85248-0.54197-1.1438-0.72396-0.29134-0.18234-0.82386-0.509-1.1835-0.72632-0.35929-0.21766-1.018-0.60387-1.4634-0.85853-0.44542-0.25501-1.1082-0.62437-1.4725-0.82083-0.36467-0.19681-1.0839-0.56821-1.598-0.82526-0.51438-0.25702-1.1876-0.58233-1.4957-0.72226-0.3085-0.14029-0.7714-0.3455-1.0291-0.45585-0.25803-0.11001-0.76269-0.31657-1.1216-0.45887-0.3593-0.14231-0.91777-0.35358-1.2417-0.4693-0.32363-0.11573-0.85351-0.29504-1.1775-0.39798-0.32363-0.10295-0.83633-0.25703-1.1388-0.34248-0.30277-0.0854-0.8552-0.2291-1.2279-0.31959-0.37275-0.0902-0.99074-0.22507-1.3733-0.29942-0.38251-0.0747-1.0032-0.18065-1.3793-0.23583-0.37612-0.0552-0.89586-0.12312-1.1549-0.15071-0.25904-0.0279-0.6752-0.0666-0.92515-0.0861-0.24962-0.0195-1.2868-0.0804-2.3045-0.13558-1.0177-0.0548-2.0091-0.10833-2.2035-0.11842-0.19411-0.0101-0.46291-0.0269-0.59714-0.0373l-0.24391-0.0188v27.285l0.0589 0.0179c0.0323 0.01 0.9672 0.20824 2.0774 0.44071 1.1102 0.2328 2.4121 0.51976 2.8932 0.63786 0.48108 0.11808 1.2178 0.31354 1.6374 0.43465 0.41952 0.12111 1.1384 0.34382 1.598 0.49487 0.45954 0.15105 1.229 0.4222 1.71 0.60252 0.48107 0.18032 1.1549 0.44474 1.497 0.58705 0.34214 0.14264 0.86458 0.36602 1.1606 0.49689 0.29605 0.13053 0.91674 0.41783 1.3793 0.63786 0.46258 0.22001 1.2346 0.60621 1.7157 0.85786 0.48108 0.25198 1.132 0.60152 1.4466 0.77679 0.31455 0.17561 0.78387 0.4407 1.0429 0.5894 0.25904 0.1487 0.77376 0.45215 1.1438 0.67416 0.37006 0.2217 1.0136 0.61566 1.4298 0.87469 0.41649 0.25937 1.1203 0.70581 1.5643 0.99207 0.44407 0.28629 2.2153 1.4547 3.9361 2.5961 1.7208 1.1418 3.4315 2.2702 3.8015 2.5073 0.37006 0.23718 1.0664 0.67623 1.5475 0.97561 0.48107 0.29942 1.1701 0.71828 1.5307 0.93084 0.36064 0.21262 0.83028 0.48545 1.0433 0.60622 0.21295 0.12077 0.59142 0.33271 0.84104 0.47098 0.24962 0.13826 0.81818 0.44205 1.2639 0.67519 0.44541 0.23314 1.1341 0.57797 1.5307 0.76668 0.3963 0.1884 1.0082 0.47066 1.3598 0.62643 0.35156 0.1561 0.97223 0.4175 1.3793 0.581 0.40707 0.16383 1.0126 0.39562 1.3457 0.51572 0.33306 0.12011 0.88576 0.30917 1.2279 0.42086 0.34247 0.11136 0.89047 0.27957 1.2185 0.3741 0.32801 0.0942 0.89556 0.24659 1.2616 0.33843 0.36602 0.0915 0.84709 0.20589 1.0692 0.254 0.22203 0.0481 0.67386 0.13894 1.0042 0.20218 0.33036 0.0629 0.89792 0.1598 1.2616 0.21531 0.36367 0.0555 1.0019 0.13861 1.418 0.18436 0.41648 0.0461 0.96145 0.0996 1.2111 0.11909 0.24996 0.0192 0.74181 0.0501 1.0934 0.0686 0.35155 0.0181 1.1236 0.0333 1.7157 0.0333 0.5921 0.00034 1.3568-0.0151 1.6989-0.0343 0.34247-0.0188 0.87233-0.0572 1.1775-0.0851 0.30547-0.0279 0.7973-0.0811 1.0934-0.11842 0.29604-0.037 0.81411-0.11203 1.1512-0.16619 0.33709-0.0545 0.91976-0.16047 1.2952-0.23549 0.37511-0.0754 1.0153-0.21867 1.4224-0.31893 0.40707-0.0999 1.0846-0.28057 1.5058-0.40134 0.42119-0.12077 1.125-0.33945 1.5643-0.48613 0.43935-0.14667 1.0712-0.36803 1.4042-0.49218 0.33306-0.12413 0.81751-0.30916 1.0765-0.4111 0.25904-0.10226 0.83433-0.34112 1.2784-0.53053 0.44408-0.18973 1.095-0.4767 1.4466-0.63749 0.35155-0.16115 1.1388-0.54029 1.7494-0.84304 0.61057-0.30244 1.4281-0.71925 1.8166-0.92582 0.38856-0.20689 1.0092-0.54297 1.3793-0.74719 0.37006-0.20455 1.0439-0.58335 1.4971-0.84238 0.45349-0.2587 1.2094-0.6977 1.6797-0.97524 0.47064-0.27755 1.273-0.75731 1.783-1.0668 0.51034-0.30916 1.2-0.72832 1.533-0.93186 0.33306-0.20353 1.0675-0.65499 1.6316-1.0032 0.56451-0.34853 1.6999-1.0449 2.5231-1.5479 0.82355-0.5026 1.9482-1.1822 2.4999-1.5095 0.55139-0.32766 1.4143-0.8313 1.9176-1.1196 0.50294-0.28831 1.2253-0.69401 1.6044-0.90192 0.37948-0.2079 1.0856-0.58536 1.5694-0.83838 0.48377-0.25332 1.2918-0.6577 1.7961-0.89822 0.50429-0.24088 1.241-0.58133 1.6374-0.75657 0.39663-0.17561 1.0264-0.44138 1.3998-0.59109 0.37343-0.14936 0.90597-0.35526 1.1835-0.45719 0.27755-0.10193 0.80002-0.28259 1.1606-0.40168 0.36098-0.11876 0.91335-0.28999 1.2279-0.38049s0.81411-0.22506 1.1102-0.29941c0.29605-0.074 0.83367-0.19479 1.1943-0.26846 0.36097-0.0737 0.90633-0.17292 1.2118-0.22035 0.30581-0.0474 0.82828-0.11607 1.1606-0.15206 0.33272-0.036 0.85484-0.0817 1.16-0.10093 0.30546-0.0195 0.65704-0.0356 0.7818-0.0356h0.22641l-0.0179-0.66442c-0.0101-0.36535-0.0477-2.3223-0.0838-4.3482-0.0363-2.0259-0.0656-3.7184-0.0656-3.7612v-0.0774l-0.42893 0.0198c-0.23584 0.0108-0.69371 0.0353-1.0177 0.0539-0.32363 0.0188-0.88376 0.0643-1.2447 0.10059-0.36064 0.0367-0.981 0.11236-1.3783 0.16855-0.39731 0.0562-1.0405 0.16114-1.4298 0.23313-0.38923 0.0723-0.94971 0.18537-1.2458 0.25131-0.29605 0.0663-0.88648 0.20992-1.312 0.31926-0.42556 0.10934-1.0082 0.26846-1.2952 0.35357-0.28663 0.0848-0.84673 0.26173-1.2448 0.39294-0.39764 0.13087-0.97089 0.32767-1.274 0.43667-0.30278 0.10899-0.7872 0.29066-1.0765 0.40336-0.28899 0.1127-0.79058 0.31489-1.1145 0.44878-0.32364 0.1339-0.92176 0.39126-1.3288 0.57191-0.40707 0.18066-1.0429 0.472-1.413 0.64761-0.37006 0.1756-1.0284 0.4989-1.4634 0.71791-0.43465 0.21934-1.1085 0.5672-1.4971 0.77339-0.38856 0.20622-1.0092 0.54197-1.3793 0.74617-0.37006 0.20455-1.0436 0.58335-1.497 0.84238-0.45316 0.2587-1.2101 0.69806-1.6821 0.97627-0.47165 0.27789-1.3194 0.7852-1.8839 1.1274-0.56417 0.34214-2.177 1.3295-3.5835 2.1938-1.4065 0.86427-2.9642 1.8166-3.4614 2.1164-0.49756 0.29974-1.2996 0.77678-1.7826 1.0601-0.48276 0.28326-1.1505 0.66981-1.4836 0.85955-0.33306 0.18941-0.92346 0.51876-1.3117 0.73171-0.38856 0.21329-1.0849 0.58537-1.5475 0.82689-0.46291 0.24154-1.2427 0.63114-1.7329 0.86524-0.49016 0.23449-1.1488 0.54029-1.4634 0.68022-0.31455 0.13961-0.799 0.34785-1.0765 0.4629-0.27754 0.11473-0.7593 0.30581-1.0705 0.42456-0.31153 0.11843-0.90192 0.32936-1.312 0.46863-0.41043 0.13928-1.0261 0.33541-1.3685 0.43533-0.34214 0.0999-0.8673 0.24222-1.1667 0.31589-0.29941 0.0737-0.80674 0.18671-1.127 0.25097-0.32061 0.0646-0.83227 0.15576-1.1378 0.2032-0.30513 0.0471-0.75191 0.10832-0.99243 0.13557-0.24054 0.0272-0.6493 0.0649-0.90832 0.0834-0.25905 0.0188-0.74351 0.0434-1.0765 0.0552-0.33305 0.0114-1.0066 0.004-1.4971-0.0162-0.49016-0.0202-1.1488-0.0602-1.4634-0.0888-0.31455-0.0283-0.80637-0.0811-1.0934-0.11774-0.28662-0.0363-0.7818-0.11069-1.1004-0.16552-0.31826-0.0548-0.833-0.15375-1.1438-0.22002-0.31052-0.0659-0.76904-0.17359-1.019-0.23852-0.24962-0.0653-0.61294-0.16383-0.80741-0.21901-0.19411-0.0555-0.55004-0.16215-0.79058-0.23717-0.24053-0.075-0.70986-0.23448-1.0429-0.35425-0.33305-0.1201-0.87033-0.32464-1.1943-0.45484-0.32363-0.13019-0.85351-0.35458-1.1775-0.49823-0.32363-0.14365-0.83838-0.3815-1.1438-0.52817-0.30513-0.14668-0.86525-0.43028-1.2447-0.63012-0.37914-0.19983-0.99982-0.53793-1.3793-0.75155-0.37915-0.21329-1.0291-0.59109-1.4439-0.83971-0.41446-0.24862-0.99745-0.60387-1.2952-0.78956-0.29739-0.1857-0.83633-0.52683-1.197-0.75863-0.36063-0.23145-2.1093-1.3854-3.8856-2.5638-1.7763-1.1788-3.6081-2.3855-4.0706-2.6819-0.46258-0.29638-1.2044-0.76535-1.6484-1.0422-0.44407-0.27687-1.163-0.71555-1.598-0.97524-0.43465-0.25938-1.0554-0.62304-1.3793-0.80843-0.32363-0.18537-0.9672-0.54399-1.4298-0.797-0.46258-0.25298-1.4237-0.75119-2.1362-1.1072-0.71223-0.35627-1.6357-0.80171-2.0522-0.98977-0.41615-0.18839-1.0295-0.45786-1.3625-0.59916-0.33305-0.14163-0.83263-0.34819-1.1102-0.45921-0.27754-0.11102-0.8074-0.31589-1.1775-0.4545-0.37005-0.13894-0.97561-0.35795-1.3457-0.48646-0.37006-0.12851-1.0284-0.34482-1.4634-0.4804-0.43465-0.13558-0.93828-0.28831-1.1186-0.33911l-0.328-0.0922v-5.1966c0-4.1433 0.008-5.1936 0.0421-5.1812 0.0232 0.009 0.32598 0.10126 0.67247 0.20588 0.34685 0.10429 0.907 0.28966 1.2447 0.41144 0.3381 0.12212 0.84141 0.31321 1.119 0.4249 0.27755 0.11169 0.76196 0.31623 1.0765 0.45416 0.31455 0.13793 1.011 0.46762 1.5475 0.73274 0.53658 0.26509 1.2178 0.61329 1.5139 0.77442 0.29604 0.16081 0.85284 0.473 1.2377 0.69335 0.38453 0.22069 1.0429 0.60991 1.4634 0.86494 0.42018 0.25534 1.0594 0.651 1.42 0.87941 0.36097 0.22809 1.1395 0.7314 1.7302 1.1179 0.59108 0.38655 2.0064 1.3336 3.1455 2.1043 1.1395 0.77074 2.7071 1.8264 3.4843 2.3458 0.77714 0.51909 1.7386 1.1539 2.1362 1.4106 0.39798 0.25669 1.0792 0.68899 1.5139 0.96078 0.43499 0.27183 1.0934 0.67623 1.4634 0.89823 0.37006 0.22203 0.94535 0.56013 1.2784 0.75125 0.33306 0.19108 0.96145 0.54264 1.3961 0.78084 0.43499 0.23851 1.3053 0.68862 1.9344 1.0005 0.62909 0.31186 1.386 0.67623 1.6821 0.8091 0.29605 0.13322 0.86391 0.37814 1.2616 0.54399 0.39799 0.16619 1.0433 0.4212 1.4345 0.5672 0.39091 0.146 1.0116 0.36535 1.3793 0.48746 0.36736 0.12246 1.0012 0.3186 1.4082 0.436 0.40707 0.11741 1.0203 0.28225 1.3625 0.36603 0.34247 0.0838 0.9554 0.22001 1.3625 0.30277 0.40707 0.0824 1.0362 0.19647 1.3978 0.25333 0.36198 0.0569 0.99007 0.14095 1.3961 0.18637 0.40605 0.0457 0.94299 0.0989 1.1926 0.11808 0.24996 0.0192 0.86289 0.0508 1.3625 0.0707 0.49958 0.0199 1.234 0.0269 1.6316 0.0155 0.39798-0.0111 0.98837-0.0353 1.312-0.0539 0.32397-0.0185 0.83868-0.0565 1.1438-0.0844 0.30547-0.028 0.85049-0.0881 1.2111-0.13356 0.36097-0.0457 0.92514-0.12817 1.2542-0.18368 0.32902-0.0559 0.86627-0.15475 1.1943-0.22002 0.32801-0.0653 0.96012-0.20757 1.4056-0.31657 0.44508-0.10866 1.0278-0.26005 1.2952-0.33675 0.26711-0.0764 0.78114-0.23078 1.1418-0.34248 0.36098-0.11202 0.98904-0.32195 1.3961-0.46661 0.40707-0.14466 0.99007-0.36063 1.2952-0.48006s0.84745-0.34045 1.2044-0.49151c0.35728-0.15105 0.98402-0.42624 1.3931-0.6116 0.40875-0.18571 1.2444-0.58806 1.8567-0.89453 0.61263-0.30648 1.4768-0.75428 1.921-0.99443 0.44407-0.24054 1.1936-0.65704 1.6653-0.92581 0.47199-0.2688 1.3803-0.80238 2.0185-1.1855 0.63853-0.38318 1.6676-1.0146 2.2876-1.4028 0.62001-0.38822 1.5738-0.9911 2.1194-1.339 0.546-0.34819 1.6131-1.0295 2.3717-1.5139 0.75863-0.48444 1.7426-1.1078 2.1867-1.3854 0.44407-0.27754 1.1028-0.68663 1.4634-0.90936 0.36097-0.2227 0.96653-0.59074 1.3457-0.8178 0.37948-0.22742 1.0974-0.6473 1.5956-0.93326 0.49823-0.28561 1.2629-0.71253 1.6989-0.94868 0.436-0.23583 1.1035-0.58907 1.4826-0.78484 0.37948-0.19546 1.0425-0.52346 1.4738-0.72868 0.43095-0.20487 1.1048-0.51438 1.4971-0.68796 0.39193-0.17325 0.95613-0.41446 1.2532-0.53591 0.29705-0.12111 0.82689-0.32868 1.1775-0.46089 0.35055-0.13222 1.0157-0.36703 1.4782-0.52178 0.46258-0.15476 1.1364-0.36637 1.4971-0.47032 0.36098-0.10395 0.95141-0.2624 1.312-0.35222 0.36097-0.0898 0.90596-0.21699 1.2111-0.28259 0.30547-0.0656 1.2515-0.26376 2.1026-0.44004 0.85114-0.17629 1.559-0.32061 1.5728-0.32061s0.0252-6.1541 0.0252-13.675c0-7.521-0.0101-13.675-0.0222-13.675s-1.1893 0.0757-2.6156 0.16821c-1.4264 0.0929-2.8279 0.19176-3.1149 0.22036-0.28662 0.0286-0.76365 0.0821-1.0597 0.11908-0.29605 0.037-0.77273 0.10463-1.0597 0.15038-0.28663 0.0458-0.72566 0.12145-0.97561 0.16787-0.24963 0.0464-0.70382 0.13827-1.0093 0.20387-0.30513 0.0656-0.82761 0.18739-1.1606 0.27015-0.33305 0.0828-0.84776 0.21867-1.1438 0.30176-0.29605 0.0831-0.8333 0.24391-1.1943 0.35694-0.36063 0.11304-0.94366 0.30715-1.2952 0.43163-0.35156 0.12413-0.86525 0.31186-1.1418 0.41682-0.27654 0.1053-0.8592 0.33978-1.2952 0.52178-0.436 0.18167-1.0877 0.46392-1.4486 0.62673-0.36064 0.16282-1.2387 0.58739-1.9512 0.94397-0.71217 0.3566-1.5902 0.80939-1.9512 1.0066-0.36064 0.19748-0.97392 0.54063-1.3625 0.76336-0.38856 0.22237-1.0802 0.62878-1.5371 0.90258-0.45686 0.27418-1.1913 0.72396-1.6316 0.99981-0.4407 0.27552-1.1718 0.74078-1.6252 1.0332-0.45315 0.29268-2.4969 1.6464-4.5416 3.0083-2.0444 1.3621-4.0713 2.7011-4.5036 2.9756-0.4323 0.27452-1.0681 0.67314-1.413 0.88612-0.34482 0.21296-0.9672 0.58739-1.3837 0.83197-0.41615 0.24457-1.052 0.60821-1.413 0.80843-0.36063 0.20017-1.0345 0.55744-1.497 0.79397-0.46258 0.23616-1.1815 0.58402-1.598 0.77243-0.41615 0.18873-1.0295 0.45282-1.3625 0.58671-0.33306 0.13423-0.86289 0.33541-1.1775 0.44744-0.31455 0.11203-0.799 0.27418-1.0765 0.3603-0.27754 0.0865-0.76196 0.22338-1.0765 0.30446-0.31455 0.0807-0.83367 0.20084-1.1536 0.2661-0.3196 0.0656-0.84208 0.1561-1.1606 0.20152-0.31826 0.0451-0.7832 0.10193-1.0332 0.12615-0.29066 0.0283-0.92617 0.0434-1.7662 0.0424-0.98335-0.001-1.4638-0.0165-1.9176-0.0602-0.33306-0.0323-0.87808-0.0969-1.2111-0.14331-0.33305-0.0464-0.87807-0.1376-1.2111-0.20253-0.33305-0.0649-0.8552-0.17931-1.1606-0.25399-0.30513-0.0747-0.85012-0.22406-1.2111-0.33204-0.36064-0.10766-0.8831-0.27418-1.1606-0.37006-0.27754-0.0956-0.79227-0.28764-1.1438-0.42725-0.35155-0.13928-0.91171-0.37343-1.2447-0.52044-0.33306-0.14668-0.9689-0.44643-1.413-0.66612-0.44408-0.21935-1.0496-0.53019-1.3457-0.69069-0.29605-0.16047-0.80305-0.4434-1.127-0.62908-0.32363-0.18571-0.88649-0.51674-1.2505-0.7354-0.36367-0.21867-1.0375-0.63514-1.4971-0.92515-0.45955-0.29033-1.5694-1.0157-2.4669-1.6121-0.89725-0.5968-2.4569-1.64-3.4651-2.3189-1.0082-0.67889-2.3482-1.5687-2.9773-1.9778-0.62909-0.40875-1.4692-0.94772-1.8671-1.197-0.39765-0.24962-1.132-0.69909-1.6316-0.99914-0.49958-0.30009-1.2414-0.73437-1.6484-0.96521-0.40707-0.23078-1.0278-0.57594-1.3793-0.76704-0.35156-0.19075-1.1388-0.59882-1.7494-0.907-0.61058-0.30782-1.4355-0.70883-1.8335-0.89114-0.39764-0.18234-1.0032-0.45181-1.3457-0.59848-0.34213-0.14702-0.96248-0.40269-1.378-0.56821-0.41582-0.16552-1.1044-0.42725-1.5307-0.582-0.42624-0.15441-1.1311-0.39697-1.5657-0.53894-0.43465-0.14197-1.1764-0.36905-1.6484-0.50395-0.47165-0.13524-1.119-0.3122-1.4382-0.39327l-0.57361-0.14946v-10.373l0.51304 0.13322c0.28225 0.0733 0.71658 0.19445 0.96551 0.26947 0.24861 0.0747 0.68021 0.21228 0.95878 0.30547 0.27856 0.0932 0.76366 0.26812 1.0782 0.3889 0.31455 0.12044 0.81412 0.32162 1.1102 0.4471 0.29605 0.12514 0.78719 0.34314 1.0914 0.48377 0.30412 0.14095 0.94735 0.45719 1.4298 0.70345 0.48209 0.24625 1.1946 0.62673 1.5832 0.84606 0.38856 0.21901 1.0472 0.60286 1.4634 0.85284 0.41648 0.24996 1.0597 0.64658 1.4298 0.8811 0.37006 0.23482 0.99074 0.63551 1.3793 0.89048 0.38856 0.25501 1.1078 0.73673 1.598 1.0705 0.4905 0.33407 1.7544 1.2074 2.8091 1.9411s2.3415 1.6269 2.8595 1.9845c0.51808 0.35761 1.4792 1.0086 2.1362 1.4466 0.65704 0.43802 1.4516 0.96049 1.7662 1.1606 0.31455 0.20017 0.84474 0.53322 1.1778 0.74012 0.33339 0.2069 0.91607 0.55811 1.2952 0.78017 0.37914 0.22238 0.94699 0.54836 1.2622 0.72463 0.31522 0.17628 0.95238 0.51943 1.4163 0.76233 0.46359 0.24289 1.1748 0.59848 1.5801 0.78991 0.40538 0.19142 0.98668 0.45787 1.2922 0.5921 0.30513 0.13422 0.8575 0.36434 1.2276 0.51135 0.37005 0.14735 1.0059 0.38654 1.413 0.53188 0.40706 0.145 1.0732 0.36501 1.4802 0.48847 0.40707 0.12347 1.1186 0.32027 1.5812 0.43701 0.46257 0.11673 1.1516 0.27418 1.5307 0.34987 0.37948 0.0757 0.92449 0.17528 1.2111 0.22137 0.28696 0.0461 0.75627 0.11371 1.0429 0.15004 0.28696 0.0363 0.77878 0.0891 1.0934 0.11707 0.31455 0.0283 0.88981 0.069 1.2784 0.0902 0.43196 0.0235 1.1835 0.0313 1.9344 0.0198 0.6755-0.0104 1.5082-0.0427 1.8503-0.0717 0.34248-0.0289 0.9329-0.0915 1.312-0.1386 0.37948-0.0474 0.94699-0.12986 1.2616-0.18369 0.31455-0.0535 0.83699-0.15206 1.1606-0.21867 0.32397-0.0666 0.9672-0.21732 1.4298-0.33507 0.46257-0.11741 1.091-0.28999 1.3961-0.38352 0.30513-0.0932 0.73673-0.22943 0.95879-0.3021 0.22204-0.073 0.64561-0.21901 0.9416-0.3243 0.29572-0.1053 0.871-0.32499 1.2784-0.48781 0.40707-0.16282 0.97525-0.39798 1.2619-0.52212 0.28696-0.12413 0.83197-0.36972 1.2111-0.54567 0.37948-0.17628 0.9773-0.46391 1.3288-0.63955 0.35155-0.17561 0.89653-0.45585 1.2111-0.62304 0.31455-0.16686 0.80674-0.43229 1.0934-0.5894 0.28696-0.15744 0.87032-0.48646 1.2969-0.73171 0.42658-0.24491 1.1156-0.64929 1.5307-0.89822 0.41547-0.24929 1.1566-0.70242 1.6468-1.0072 0.49015-0.30513 1.3608-0.85484 1.9344-1.2219 0.5736-0.36736 1.9664-1.2652 3.095-1.9956 1.1287-0.73001 2.4172-1.5593 2.8632-1.8419 0.44643-0.28293 1.0974-0.69232 1.4466-0.90936 0.34954-0.21733 1.0671-0.65498 1.595-0.97258 0.52784-0.31758 1.2922-0.76735 1.6989-0.99982 0.40673-0.23212 1.0651-0.6005 1.4628-0.81883 0.39798-0.218 1.2229-0.64797 1.8335-0.95577 0.61057-0.30748 1.4886-0.73037 1.9512-0.93997 0.46258-0.20925 1.1495-0.50765 1.5266-0.66309 0.37712-0.15542 0.98269-0.39462 1.3457-0.53154 0.36299-0.13692 1.0008-0.36232 1.417-0.50092 0.41649-0.13861 1.0597-0.3381 1.4298-0.44306 0.37006-0.1053 1.0059-0.2725 1.413-0.37141 0.40706-0.0989 1.0126-0.23347 1.3457-0.29907 0.33305-0.0656 0.80238-0.15038 1.0429-0.18873 0.24054-0.038 1.3232-0.1894 2.4054-0.33608 1.0826-0.14701 2.0172-0.27552 2.0774-0.28595l0.10933-0.0192v-27.381z"/>
 </g>

</g>
</svg>